<?xml version="1.0" encoding="UTF-8"?>
<svg xmlns="http://www.w3.org/2000/svg" xmlns:xlink="http://www.w3.org/1999/xlink" width="504" height="504" viewBox="0 0 504 504">
<defs>
<g>
<g id="glyph-0-0">
<path d="M 0.875 -6.046875 L 5.71875 -6.046875 L 5.71875 0 L 0.875 0 Z M 1.203125 -5.71875 L 1.203125 -0.328125 L 5.390625 -0.328125 L 5.390625 -5.71875 Z M 1.203125 -5.71875 "/>
</g>
<g id="glyph-0-1">
<path d="M 4.546875 -3.03125 C 4.546875 -2.019531 4.367188 -1.25 4.015625 -0.71875 C 3.660156 -0.1875 3.132812 0.078125 2.4375 0.078125 C 1.738281 0.078125 1.210938 -0.179688 0.859375 -0.703125 C 0.515625 -1.234375 0.34375 -2.007812 0.34375 -3.03125 C 0.34375 -4.070312 0.507812 -4.847656 0.84375 -5.359375 C 1.1875 -5.878906 1.726562 -6.140625 2.46875 -6.140625 C 3.175781 -6.140625 3.695312 -5.875 4.03125 -5.34375 C 4.375 -4.820312 4.546875 -4.050781 4.546875 -3.03125 Z M 3.765625 -3.03125 C 3.765625 -3.90625 3.660156 -4.535156 3.453125 -4.921875 C 3.253906 -5.316406 2.925781 -5.515625 2.46875 -5.515625 C 1.988281 -5.515625 1.644531 -5.320312 1.4375 -4.9375 C 1.226562 -4.550781 1.125 -3.914062 1.125 -3.03125 C 1.125 -2.164062 1.226562 -1.535156 1.4375 -1.140625 C 1.644531 -0.742188 1.976562 -0.546875 2.4375 -0.546875 C 2.894531 -0.546875 3.226562 -0.75 3.4375 -1.15625 C 3.65625 -1.5625 3.765625 -2.1875 3.765625 -3.03125 Z M 3.765625 -3.03125 "/>
</g>
<g id="glyph-0-2">
<path d="M 0.671875 0 L 0.671875 -0.65625 L 2.21875 -0.65625 L 2.21875 -5.3125 L 0.84375 -4.34375 L 0.84375 -5.0625 L 2.28125 -6.046875 L 2.984375 -6.046875 L 2.984375 -0.65625 L 4.46875 -0.65625 L 4.46875 0 Z M 0.671875 0 "/>
</g>
<g id="glyph-0-3">
<path d="M 0.4375 0 L 0.4375 -0.546875 C 0.582031 -0.878906 0.757812 -1.171875 0.96875 -1.421875 C 1.1875 -1.679688 1.410156 -1.914062 1.640625 -2.125 C 1.867188 -2.332031 2.097656 -2.523438 2.328125 -2.703125 C 2.554688 -2.878906 2.757812 -3.054688 2.9375 -3.234375 C 3.125 -3.410156 3.273438 -3.597656 3.390625 -3.796875 C 3.503906 -3.992188 3.5625 -4.210938 3.5625 -4.453125 C 3.5625 -4.785156 3.460938 -5.039062 3.265625 -5.21875 C 3.078125 -5.40625 2.804688 -5.5 2.453125 -5.5 C 2.128906 -5.5 1.859375 -5.410156 1.640625 -5.234375 C 1.429688 -5.054688 1.304688 -4.804688 1.265625 -4.484375 L 0.484375 -4.5625 C 0.535156 -5.039062 0.738281 -5.421875 1.09375 -5.703125 C 1.445312 -5.992188 1.898438 -6.140625 2.453125 -6.140625 C 3.066406 -6.140625 3.535156 -5.992188 3.859375 -5.703125 C 4.191406 -5.421875 4.359375 -5.015625 4.359375 -4.484375 C 4.359375 -4.242188 4.300781 -4.007812 4.1875 -3.78125 C 4.082031 -3.550781 3.921875 -3.316406 3.703125 -3.078125 C 3.492188 -2.847656 3.09375 -2.492188 2.5 -2.015625 C 2.164062 -1.742188 1.898438 -1.5 1.703125 -1.28125 C 1.515625 -1.0625 1.378906 -0.851562 1.296875 -0.65625 L 4.453125 -0.65625 L 4.453125 0 Z M 0.4375 0 "/>
</g>
<g id="glyph-0-4">
<path d="M 4.5 -1.671875 C 4.5 -1.109375 4.320312 -0.675781 3.96875 -0.375 C 3.613281 -0.0703125 3.109375 0.078125 2.453125 0.078125 C 1.835938 0.078125 1.347656 -0.0546875 0.984375 -0.328125 C 0.617188 -0.609375 0.398438 -1.019531 0.328125 -1.5625 L 1.140625 -1.625 C 1.234375 -0.90625 1.671875 -0.546875 2.453125 -0.546875 C 2.835938 -0.546875 3.140625 -0.640625 3.359375 -0.828125 C 3.585938 -1.023438 3.703125 -1.316406 3.703125 -1.703125 C 3.703125 -2.023438 3.570312 -2.28125 3.3125 -2.46875 C 3.0625 -2.65625 2.695312 -2.75 2.21875 -2.75 L 1.78125 -2.75 L 1.78125 -3.421875 L 2.203125 -3.421875 C 2.628906 -3.421875 2.957031 -3.507812 3.1875 -3.6875 C 3.425781 -3.875 3.546875 -4.128906 3.546875 -4.453125 C 3.546875 -4.773438 3.445312 -5.03125 3.25 -5.21875 C 3.0625 -5.40625 2.78125 -5.5 2.40625 -5.5 C 2.070312 -5.5 1.796875 -5.410156 1.578125 -5.234375 C 1.367188 -5.066406 1.25 -4.820312 1.21875 -4.5 L 0.4375 -4.5625 C 0.5 -5.0625 0.703125 -5.445312 1.046875 -5.71875 C 1.398438 -6 1.859375 -6.140625 2.421875 -6.140625 C 3.023438 -6.140625 3.492188 -6 3.828125 -5.71875 C 4.171875 -5.4375 4.34375 -5.046875 4.34375 -4.546875 C 4.34375 -4.148438 4.234375 -3.832031 4.015625 -3.59375 C 3.796875 -3.351562 3.484375 -3.191406 3.078125 -3.109375 L 3.078125 -3.09375 C 3.523438 -3.039062 3.875 -2.882812 4.125 -2.625 C 4.375 -2.375 4.5 -2.054688 4.5 -1.671875 Z M 4.5 -1.671875 "/>
</g>
<g id="glyph-0-5">
<path d="M 3.78125 -1.375 L 3.78125 0 L 3.046875 0 L 3.046875 -1.375 L 0.203125 -1.375 L 0.203125 -1.96875 L 2.96875 -6.046875 L 3.78125 -6.046875 L 3.78125 -1.984375 L 4.640625 -1.984375 L 4.640625 -1.375 Z M 3.046875 -5.1875 C 3.046875 -5.164062 3.007812 -5.085938 2.9375 -4.953125 C 2.863281 -4.816406 2.804688 -4.722656 2.765625 -4.671875 L 1.21875 -2.390625 L 0.984375 -2.0625 L 0.921875 -1.984375 L 3.046875 -1.984375 Z M 3.046875 -5.1875 "/>
</g>
<g id="glyph-1-0">
<path d="M -3.65625 -4.90625 L -0.234375 -8.328125 L 4.046875 -4.046875 L 0.625 -0.625 Z M -3.203125 -4.890625 L 0.609375 -1.078125 L 3.578125 -4.046875 L -0.234375 -7.859375 Z M -3.203125 -4.890625 "/>
</g>
<g id="glyph-1-1">
<path d="M 1.984375 -3.796875 C 2.296875 -3.484375 2.414062 -3.125 2.34375 -2.71875 C 2.28125 -2.320312 2.035156 -1.910156 1.609375 -1.484375 C 1.203125 -1.078125 0.820312 -0.832031 0.46875 -0.75 C 0.113281 -0.664062 -0.238281 -0.726562 -0.59375 -0.9375 L -0.203125 -1.515625 C 0.0234375 -1.390625 0.25 -1.359375 0.46875 -1.421875 C 0.6875 -1.484375 0.925781 -1.644531 1.1875 -1.90625 C 1.46875 -2.1875 1.628906 -2.429688 1.671875 -2.640625 C 1.722656 -2.859375 1.664062 -3.050781 1.5 -3.21875 C 1.363281 -3.351562 1.210938 -3.414062 1.046875 -3.40625 C 0.878906 -3.394531 0.671875 -3.316406 0.421875 -3.171875 L -0.09375 -2.875 C -0.488281 -2.644531 -0.789062 -2.503906 -1 -2.453125 C -1.207031 -2.398438 -1.40625 -2.390625 -1.59375 -2.421875 C -1.78125 -2.453125 -1.957031 -2.550781 -2.125 -2.71875 C -2.425781 -3.019531 -2.546875 -3.351562 -2.484375 -3.71875 C -2.429688 -4.09375 -2.195312 -4.488281 -1.78125 -4.90625 C -1.425781 -5.257812 -1.078125 -5.476562 -0.734375 -5.5625 C -0.390625 -5.644531 -0.0429688 -5.578125 0.296875 -5.359375 L -0.140625 -4.796875 C -0.328125 -4.921875 -0.519531 -4.953125 -0.71875 -4.890625 C -0.925781 -4.835938 -1.140625 -4.703125 -1.359375 -4.484375 C -1.609375 -4.234375 -1.753906 -4.015625 -1.796875 -3.828125 C -1.835938 -3.640625 -1.78125 -3.46875 -1.625 -3.3125 C -1.53125 -3.21875 -1.429688 -3.164062 -1.328125 -3.15625 C -1.222656 -3.144531 -1.097656 -3.160156 -0.953125 -3.203125 C -0.816406 -3.253906 -0.5625 -3.394531 -0.1875 -3.625 C 0.175781 -3.84375 0.453125 -3.984375 0.640625 -4.046875 C 0.835938 -4.117188 1.007812 -4.15625 1.15625 -4.15625 C 1.300781 -4.15625 1.441406 -4.125 1.578125 -4.0625 C 1.722656 -4.007812 1.859375 -3.921875 1.984375 -3.796875 Z M 1.984375 -3.796875 "/>
</g>
<g id="glyph-1-2">
<path d="M -0.8125 -2.5 C -0.375 -2.0625 0.015625 -1.804688 0.359375 -1.734375 C 0.703125 -1.660156 1.015625 -1.765625 1.296875 -2.046875 C 1.484375 -2.234375 1.585938 -2.441406 1.609375 -2.671875 C 1.640625 -2.910156 1.5625 -3.15625 1.375 -3.40625 L 1.96875 -3.9375 C 2.238281 -3.582031 2.351562 -3.191406 2.3125 -2.765625 C 2.28125 -2.347656 2.085938 -1.960938 1.734375 -1.609375 C 1.285156 -1.160156 0.789062 -0.957031 0.25 -1 C -0.277344 -1.050781 -0.820312 -1.351562 -1.375 -1.90625 C -1.925781 -2.457031 -2.222656 -3 -2.265625 -3.53125 C -2.316406 -4.070312 -2.117188 -4.566406 -1.671875 -5.015625 C -1.335938 -5.347656 -0.972656 -5.539062 -0.578125 -5.59375 C -0.179688 -5.644531 0.195312 -5.539062 0.5625 -5.28125 L 0.046875 -4.671875 C -0.171875 -4.828125 -0.390625 -4.90625 -0.609375 -4.90625 C -0.828125 -4.90625 -1.046875 -4.796875 -1.265625 -4.578125 C -1.554688 -4.285156 -1.664062 -3.976562 -1.59375 -3.65625 C -1.53125 -3.34375 -1.269531 -2.957031 -0.8125 -2.5 Z M -0.8125 -2.5 "/>
</g>
<g id="glyph-1-3">
<path d="M 0.515625 -0.515625 L -3.765625 -4.796875 L -0.53125 -8.03125 L -0.046875 -7.546875 L -2.703125 -4.890625 L -1.34375 -3.53125 L 1.140625 -6.015625 L 1.609375 -5.546875 L -0.875 -3.0625 L 0.625 -1.5625 L 3.40625 -4.34375 L 3.875 -3.875 Z M 0.515625 -0.515625 "/>
</g>
<g id="glyph-1-4">
<path d="M 0.3125 -0.3125 L -0.078125 -0.703125 C -0.203125 -1.035156 -0.28125 -1.367188 -0.3125 -1.703125 C -0.34375 -2.035156 -0.347656 -2.351562 -0.328125 -2.65625 C -0.316406 -2.96875 -0.289062 -3.265625 -0.25 -3.546875 C -0.21875 -3.835938 -0.195312 -4.109375 -0.1875 -4.359375 C -0.1875 -4.617188 -0.21875 -4.859375 -0.28125 -5.078125 C -0.34375 -5.296875 -0.460938 -5.492188 -0.640625 -5.671875 C -0.867188 -5.898438 -1.113281 -6.007812 -1.375 -6 C -1.644531 -6 -1.90625 -5.875 -2.15625 -5.625 C -2.382812 -5.394531 -2.507812 -5.140625 -2.53125 -4.859375 C -2.5625 -4.585938 -2.476562 -4.320312 -2.28125 -4.0625 L -2.875 -3.5625 C -3.1875 -3.9375 -3.316406 -4.351562 -3.265625 -4.8125 C -3.210938 -5.269531 -2.992188 -5.691406 -2.609375 -6.078125 C -2.171875 -6.515625 -1.734375 -6.742188 -1.296875 -6.765625 C -0.867188 -6.796875 -0.46875 -6.625 -0.09375 -6.25 C 0.0703125 -6.082031 0.195312 -5.878906 0.28125 -5.640625 C 0.363281 -5.398438 0.410156 -5.117188 0.421875 -4.796875 C 0.441406 -4.484375 0.414062 -3.945312 0.34375 -3.1875 C 0.300781 -2.769531 0.285156 -2.410156 0.296875 -2.109375 C 0.316406 -1.816406 0.367188 -1.578125 0.453125 -1.390625 L 2.6875 -3.625 L 3.15625 -3.15625 Z M 0.3125 -0.3125 "/>
</g>
<g id="glyph-1-5">
<path d="M -1.84375 -2.46875 C -2.539062 -3.164062 -2.894531 -3.890625 -2.90625 -4.640625 C -2.914062 -5.390625 -2.582031 -6.101562 -1.90625 -6.78125 C -1.425781 -7.257812 -0.957031 -7.566406 -0.5 -7.703125 C -0.0390625 -7.835938 0.4375 -7.8125 0.9375 -7.625 L 0.546875 -6.890625 C 0.191406 -7.015625 -0.144531 -7.023438 -0.46875 -6.921875 C -0.789062 -6.816406 -1.109375 -6.609375 -1.421875 -6.296875 C -1.921875 -5.796875 -2.148438 -5.265625 -2.109375 -4.703125 C -2.078125 -4.148438 -1.789062 -3.601562 -1.25 -3.0625 C -0.707031 -2.519531 -0.144531 -2.226562 0.4375 -2.1875 C 1.03125 -2.15625 1.570312 -2.382812 2.0625 -2.875 C 2.34375 -3.15625 2.5625 -3.457031 2.71875 -3.78125 C 2.875 -4.101562 2.945312 -4.414062 2.9375 -4.71875 L 2.171875 -5.484375 L 0.90625 -4.21875 L 0.421875 -4.703125 L 2.234375 -6.515625 L 3.71875 -5.03125 C 3.707031 -4.582031 3.601562 -4.128906 3.40625 -3.671875 C 3.207031 -3.210938 2.914062 -2.789062 2.53125 -2.40625 C 2.082031 -1.957031 1.609375 -1.660156 1.109375 -1.515625 C 0.609375 -1.367188 0.101562 -1.378906 -0.40625 -1.546875 C -0.914062 -1.710938 -1.394531 -2.019531 -1.84375 -2.46875 Z M -1.84375 -2.46875 "/>
</g>
<g id="glyph-1-6">
<path d="M 1.140625 1.328125 L 0.75 0.9375 L 4.375 -2.6875 L 4.765625 -2.296875 Z M 1.140625 1.328125 "/>
</g>
<g id="glyph-1-7">
<path d="M 1.546875 -4.828125 C 2.117188 -4.253906 2.421875 -3.703125 2.453125 -3.171875 C 2.484375 -2.640625 2.257812 -2.132812 1.78125 -1.65625 C 1.300781 -1.175781 0.789062 -0.957031 0.25 -1 C -0.277344 -1.050781 -0.820312 -1.351562 -1.375 -1.90625 C -2.507812 -3.039062 -2.585938 -4.097656 -1.609375 -5.078125 C -1.109375 -5.578125 -0.601562 -5.804688 -0.09375 -5.765625 C 0.414062 -5.722656 0.960938 -5.410156 1.546875 -4.828125 Z M 0.984375 -4.265625 C 0.523438 -4.722656 0.128906 -4.984375 -0.203125 -5.046875 C -0.546875 -5.117188 -0.875 -5 -1.1875 -4.6875 C -1.507812 -4.363281 -1.632812 -4.023438 -1.5625 -3.671875 C -1.5 -3.328125 -1.242188 -2.929688 -0.796875 -2.484375 C -0.367188 -2.054688 0.0195312 -1.800781 0.375 -1.71875 C 0.738281 -1.644531 1.070312 -1.757812 1.375 -2.0625 C 1.695312 -2.382812 1.820312 -2.71875 1.75 -3.0625 C 1.6875 -3.414062 1.429688 -3.816406 0.984375 -4.265625 Z M 0.984375 -4.265625 "/>
</g>
<g id="glyph-1-8">
<path d="M 2.515625 -2.515625 L 0.421875 -4.609375 C 0.210938 -4.816406 0.0234375 -4.957031 -0.140625 -5.03125 C -0.304688 -5.101562 -0.460938 -5.117188 -0.609375 -5.078125 C -0.753906 -5.035156 -0.914062 -4.925781 -1.09375 -4.75 C -1.351562 -4.488281 -1.46875 -4.191406 -1.4375 -3.859375 C -1.414062 -3.535156 -1.242188 -3.210938 -0.921875 -2.890625 L 0.984375 -0.984375 L 0.4375 -0.4375 L -2.140625 -3.015625 C -2.523438 -3.398438 -2.769531 -3.625 -2.875 -3.6875 L -2.359375 -4.203125 C -2.347656 -4.191406 -2.316406 -4.164062 -2.265625 -4.125 C -2.222656 -4.09375 -2.171875 -4.050781 -2.109375 -4 C -2.046875 -3.945312 -1.9375 -3.84375 -1.78125 -3.6875 L -1.765625 -3.703125 C -1.859375 -4.046875 -1.867188 -4.34375 -1.796875 -4.59375 C -1.734375 -4.851562 -1.578125 -5.109375 -1.328125 -5.359375 C -0.972656 -5.710938 -0.617188 -5.882812 -0.265625 -5.875 C 0.0742188 -5.875 0.457031 -5.664062 0.875 -5.25 L 3.0625 -3.0625 Z M 2.515625 -2.515625 "/>
</g>
<g id="glyph-1-9">
<path d="M 0.421875 -0.421875 L -4.078125 -4.921875 L -3.53125 -5.46875 L 0.96875 -0.96875 Z M 0.421875 -0.421875 "/>
</g>
<g id="glyph-1-10">
<path d="M 1.875 0.71875 C 1.726562 0.863281 1.59375 0.976562 1.46875 1.0625 L 1.046875 0.640625 C 1.140625 0.566406 1.234375 0.484375 1.328125 0.390625 C 1.660156 0.0546875 1.675781 -0.457031 1.375 -1.15625 L 1.296875 -1.328125 L -3.265625 -3.296875 L -2.6875 -3.875 L -0.171875 -2.765625 C -0.140625 -2.734375 -0.09375 -2.703125 -0.03125 -2.671875 C 0.0195312 -2.648438 0.195312 -2.566406 0.5 -2.421875 C 0.800781 -2.273438 0.96875 -2.195312 1 -2.1875 L 0.609375 -2.984375 L -0.765625 -5.796875 L -0.1875 -6.375 L 1.828125 -1.828125 C 2.054688 -1.347656 2.191406 -0.960938 2.234375 -0.671875 C 2.285156 -0.390625 2.28125 -0.132812 2.21875 0.09375 C 2.164062 0.332031 2.050781 0.539062 1.875 0.71875 Z M 1.875 0.71875 "/>
</g>
<g id="glyph-1-11">
<path d="M 2.328125 -2.328125 L 0.234375 -4.421875 C -0.0742188 -4.734375 -0.335938 -4.90625 -0.546875 -4.9375 C -0.753906 -4.96875 -0.96875 -4.875 -1.1875 -4.65625 C -1.425781 -4.414062 -1.523438 -4.140625 -1.484375 -3.828125 C -1.441406 -3.515625 -1.257812 -3.195312 -0.9375 -2.875 L 0.96875 -0.96875 L 0.4375 -0.4375 L -2.140625 -3.015625 C -2.523438 -3.398438 -2.769531 -3.625 -2.875 -3.6875 L -2.359375 -4.203125 C -2.347656 -4.191406 -2.316406 -4.164062 -2.265625 -4.125 C -2.222656 -4.09375 -2.171875 -4.050781 -2.109375 -4 C -2.046875 -3.945312 -1.9375 -3.84375 -1.78125 -3.6875 L -1.765625 -3.703125 C -1.878906 -4.046875 -1.90625 -4.335938 -1.84375 -4.578125 C -1.78125 -4.816406 -1.640625 -5.046875 -1.421875 -5.265625 C -1.171875 -5.515625 -0.921875 -5.660156 -0.671875 -5.703125 C -0.429688 -5.753906 -0.179688 -5.703125 0.078125 -5.546875 L 0.09375 -5.5625 C -0.0078125 -5.894531 -0.0273438 -6.1875 0.03125 -6.4375 C 0.101562 -6.695312 0.253906 -6.941406 0.484375 -7.171875 C 0.804688 -7.492188 1.128906 -7.640625 1.453125 -7.609375 C 1.785156 -7.585938 2.160156 -7.367188 2.578125 -6.953125 L 4.765625 -4.765625 L 4.234375 -4.234375 L 2.140625 -6.328125 C 1.828125 -6.640625 1.566406 -6.8125 1.359375 -6.84375 C 1.148438 -6.875 0.9375 -6.78125 0.71875 -6.5625 C 0.46875 -6.3125 0.363281 -6.03125 0.40625 -5.71875 C 0.457031 -5.414062 0.644531 -5.101562 0.96875 -4.78125 L 2.875 -2.875 Z M 2.328125 -2.328125 "/>
</g>
<g id="glyph-1-12">
<path d="M -0.6875 -2.375 C -0.3125 -2 0.0507812 -1.785156 0.40625 -1.734375 C 0.757812 -1.679688 1.085938 -1.804688 1.390625 -2.109375 C 1.628906 -2.347656 1.773438 -2.582031 1.828125 -2.8125 C 1.890625 -3.050781 1.875 -3.269531 1.78125 -3.46875 L 2.375 -3.8125 C 2.695312 -3.09375 2.507812 -2.382812 1.8125 -1.6875 C 1.332031 -1.207031 0.816406 -0.984375 0.265625 -1.015625 C -0.273438 -1.054688 -0.832031 -1.363281 -1.40625 -1.9375 C -1.9375 -2.46875 -2.21875 -3.003906 -2.25 -3.546875 C -2.289062 -4.097656 -2.078125 -4.609375 -1.609375 -5.078125 C -0.640625 -6.046875 0.421875 -5.953125 1.578125 -4.796875 L 1.65625 -4.71875 Z M 0.6875 -4.5625 C 0.300781 -4.882812 -0.0390625 -5.046875 -0.34375 -5.046875 C -0.65625 -5.054688 -0.945312 -4.925781 -1.21875 -4.65625 C -1.476562 -4.394531 -1.597656 -4.097656 -1.578125 -3.765625 C -1.554688 -3.429688 -1.394531 -3.101562 -1.09375 -2.78125 Z M 0.6875 -4.5625 "/>
</g>
<g id="glyph-1-13">
<path d="M 0.4375 -0.4375 L -2.078125 -2.953125 C -2.316406 -3.191406 -2.582031 -3.4375 -2.875 -3.6875 L -2.359375 -4.203125 C -1.972656 -3.859375 -1.742188 -3.648438 -1.671875 -3.578125 L -1.65625 -3.59375 C -1.84375 -3.945312 -1.929688 -4.234375 -1.921875 -4.453125 C -1.910156 -4.671875 -1.800781 -4.882812 -1.59375 -5.09375 C -1.519531 -5.164062 -1.4375 -5.226562 -1.34375 -5.28125 L -0.84375 -4.78125 C -0.9375 -4.726562 -1.046875 -4.640625 -1.171875 -4.515625 C -1.390625 -4.296875 -1.460938 -4.03125 -1.390625 -3.71875 C -1.316406 -3.40625 -1.097656 -3.066406 -0.734375 -2.703125 L 0.984375 -0.984375 Z M 0.4375 -0.4375 "/>
</g>
<g id="glyph-1-14">
<path d="M 2.96875 -0.375 C 2.601562 -0.0078125 2.242188 0.207031 1.890625 0.28125 C 1.535156 0.351562 1.191406 0.285156 0.859375 0.078125 L 1.34375 -0.5625 C 1.53125 -0.4375 1.726562 -0.394531 1.9375 -0.4375 C 2.144531 -0.476562 2.347656 -0.597656 2.546875 -0.796875 C 3.097656 -1.347656 3.054688 -1.941406 2.421875 -2.578125 L 1.890625 -3.109375 L 1.875 -3.09375 C 1.976562 -2.78125 1.992188 -2.484375 1.921875 -2.203125 C 1.847656 -1.921875 1.691406 -1.660156 1.453125 -1.421875 C 1.046875 -1.015625 0.617188 -0.847656 0.171875 -0.921875 C -0.273438 -0.992188 -0.789062 -1.320312 -1.375 -1.90625 C -1.957031 -2.488281 -2.285156 -3.019531 -2.359375 -3.5 C -2.429688 -3.976562 -2.265625 -4.421875 -1.859375 -4.828125 C -1.617188 -5.066406 -1.359375 -5.21875 -1.078125 -5.28125 C -0.796875 -5.34375 -0.515625 -5.328125 -0.234375 -5.234375 L -0.21875 -5.25 C -0.269531 -5.300781 -0.367188 -5.40625 -0.515625 -5.5625 C -0.660156 -5.71875 -0.734375 -5.804688 -0.734375 -5.828125 L -0.21875 -6.34375 C -0.132812 -6.21875 0.078125 -5.984375 0.421875 -5.640625 L 2.9375 -3.125 C 3.863281 -2.195312 3.875 -1.28125 2.96875 -0.375 Z M 0.859375 -4.140625 C 0.585938 -4.410156 0.316406 -4.601562 0.046875 -4.71875 C -0.210938 -4.84375 -0.457031 -4.882812 -0.6875 -4.84375 C -0.925781 -4.8125 -1.128906 -4.710938 -1.296875 -4.546875 C -1.578125 -4.265625 -1.675781 -3.957031 -1.59375 -3.625 C -1.519531 -3.300781 -1.257812 -2.914062 -0.8125 -2.46875 C -0.363281 -2.019531 0.015625 -1.753906 0.328125 -1.671875 C 0.648438 -1.597656 0.957031 -1.707031 1.25 -2 C 1.414062 -2.164062 1.515625 -2.367188 1.546875 -2.609375 C 1.578125 -2.847656 1.535156 -3.097656 1.421875 -3.359375 C 1.304688 -3.617188 1.117188 -3.878906 0.859375 -4.140625 Z M 0.859375 -4.140625 "/>
</g>
<g id="glyph-1-15">
<path d="M 1.96875 -3.03125 C 2.082031 -2.707031 2.097656 -2.414062 2.015625 -2.15625 C 1.941406 -1.90625 1.78125 -1.65625 1.53125 -1.40625 C 1.113281 -0.988281 0.671875 -0.820312 0.203125 -0.90625 C -0.265625 -0.988281 -0.785156 -1.316406 -1.359375 -1.890625 C -2.503906 -3.035156 -2.675781 -4.007812 -1.875 -4.8125 C -1.625 -5.0625 -1.367188 -5.222656 -1.109375 -5.296875 C -0.859375 -5.378906 -0.578125 -5.367188 -0.265625 -5.265625 L -2 -7 L -1.46875 -7.53125 L 2.359375 -3.703125 C 2.691406 -3.367188 2.925781 -3.15625 3.0625 -3.0625 L 2.546875 -2.546875 C 2.503906 -2.566406 2.421875 -2.628906 2.296875 -2.734375 C 2.179688 -2.847656 2.078125 -2.953125 1.984375 -3.046875 Z M -0.796875 -2.484375 C -0.347656 -2.035156 0.0351562 -1.769531 0.359375 -1.6875 C 0.679688 -1.601562 0.976562 -1.695312 1.25 -1.96875 C 1.5625 -2.28125 1.679688 -2.613281 1.609375 -2.96875 C 1.535156 -3.320312 1.273438 -3.722656 0.828125 -4.171875 C 0.390625 -4.609375 0 -4.859375 -0.34375 -4.921875 C -0.6875 -4.984375 -1.015625 -4.859375 -1.328125 -4.546875 C -1.597656 -4.273438 -1.691406 -3.976562 -1.609375 -3.65625 C -1.523438 -3.332031 -1.253906 -2.941406 -0.796875 -2.484375 Z M -0.796875 -2.484375 "/>
</g>
<g id="glyph-1-16">
<path d="M 0.5625 -0.5625 L -0.09375 -1.21875 L 0.5 -1.8125 L 1.15625 -1.15625 Z M 0.5625 -0.5625 "/>
</g>
<g id="glyph-1-17">
<path d="M 1.53125 -4.84375 C 2.675781 -3.695312 2.847656 -2.722656 2.046875 -1.921875 C 1.796875 -1.671875 1.539062 -1.503906 1.28125 -1.421875 C 1.03125 -1.347656 0.753906 -1.367188 0.453125 -1.484375 C 0.515625 -1.421875 0.601562 -1.316406 0.71875 -1.171875 C 0.84375 -1.035156 0.910156 -0.953125 0.921875 -0.921875 L 0.390625 -0.390625 C 0.296875 -0.523438 0.0820312 -0.757812 -0.25 -1.09375 L -4.078125 -4.921875 L -3.53125 -5.46875 L -2.25 -4.1875 C -2.125 -4.0625 -1.976562 -3.90625 -1.8125 -3.71875 L -1.796875 -3.734375 C -1.910156 -4.035156 -1.925781 -4.316406 -1.84375 -4.578125 C -1.757812 -4.835938 -1.597656 -5.085938 -1.359375 -5.328125 C -0.941406 -5.742188 -0.5 -5.910156 -0.03125 -5.828125 C 0.4375 -5.742188 0.957031 -5.414062 1.53125 -4.84375 Z M 0.984375 -4.265625 C 0.523438 -4.722656 0.136719 -4.988281 -0.171875 -5.0625 C -0.492188 -5.144531 -0.796875 -5.046875 -1.078125 -4.765625 C -1.378906 -4.460938 -1.492188 -4.132812 -1.421875 -3.78125 C -1.359375 -3.4375 -1.097656 -3.035156 -0.640625 -2.578125 C -0.210938 -2.148438 0.171875 -1.898438 0.515625 -1.828125 C 0.859375 -1.753906 1.1875 -1.875 1.5 -2.1875 C 1.769531 -2.457031 1.863281 -2.753906 1.78125 -3.078125 C 1.707031 -3.410156 1.441406 -3.804688 0.984375 -4.265625 Z M 0.984375 -4.265625 "/>
</g>
<g id="glyph-1-18">
<path d="M 3.546875 -3.546875 L 1.8125 -4.3125 L -0.140625 -2.359375 L 0.625 -0.625 L 0.015625 -0.015625 L -2.53125 -6.03125 L -1.859375 -6.703125 L 4.125 -4.125 Z M -1.765625 -5.921875 L -1.6875 -5.8125 C -1.570312 -5.59375 -1.4375 -5.300781 -1.28125 -4.9375 L -0.421875 -2.984375 L 1.1875 -4.59375 L -0.78125 -5.4375 C -0.976562 -5.53125 -1.191406 -5.640625 -1.421875 -5.765625 Z M -1.765625 -5.921875 "/>
</g>
<g id="glyph-1-19">
<path d="M 2.625 -5.03125 C 3.007812 -4.644531 3.164062 -4.207031 3.09375 -3.71875 C 3.03125 -3.238281 2.75 -2.75 2.25 -2.25 L 0.515625 -0.515625 L -3.765625 -4.796875 L -2.21875 -6.34375 C -1.21875 -7.34375 -0.367188 -7.492188 0.328125 -6.796875 C 0.578125 -6.546875 0.71875 -6.265625 0.75 -5.953125 C 0.789062 -5.648438 0.710938 -5.335938 0.515625 -5.015625 C 0.878906 -5.316406 1.25 -5.46875 1.625 -5.46875 C 2 -5.46875 2.332031 -5.320312 2.625 -5.03125 Z M -0.171875 -6.171875 C -0.398438 -6.398438 -0.644531 -6.484375 -0.90625 -6.421875 C -1.164062 -6.359375 -1.445312 -6.175781 -1.75 -5.875 L -2.71875 -4.90625 L -1.375 -3.5625 L -0.40625 -4.53125 C -0.09375 -4.84375 0.0820312 -5.132812 0.125 -5.40625 C 0.164062 -5.675781 0.0664062 -5.929688 -0.171875 -6.171875 Z M 1.984375 -4.484375 C 1.472656 -4.992188 0.863281 -4.894531 0.15625 -4.1875 L -0.921875 -3.109375 L 0.625 -1.5625 L 1.75 -2.6875 C 2.101562 -3.039062 2.296875 -3.363281 2.328125 -3.65625 C 2.359375 -3.945312 2.242188 -4.222656 1.984375 -4.484375 Z M 1.984375 -4.484375 "/>
</g>
<g id="glyph-1-20">
<path d="M -1.453125 -6.265625 C -1.929688 -5.785156 -2.148438 -5.265625 -2.109375 -4.703125 C -2.066406 -4.140625 -1.78125 -3.59375 -1.25 -3.0625 C -0.726562 -2.539062 -0.175781 -2.253906 0.40625 -2.203125 C 1 -2.160156 1.535156 -2.378906 2.015625 -2.859375 C 2.609375 -3.453125 2.765625 -4.191406 2.484375 -5.078125 L 3.171875 -5.328125 C 3.367188 -4.773438 3.40625 -4.242188 3.28125 -3.734375 C 3.15625 -3.222656 2.878906 -2.753906 2.453125 -2.328125 C 2.023438 -1.898438 1.566406 -1.617188 1.078125 -1.484375 C 0.585938 -1.347656 0.0898438 -1.367188 -0.40625 -1.546875 C -0.90625 -1.722656 -1.378906 -2.035156 -1.828125 -2.484375 C -2.515625 -3.171875 -2.867188 -3.890625 -2.890625 -4.640625 C -2.910156 -5.390625 -2.597656 -6.085938 -1.953125 -6.734375 C -1.492188 -7.191406 -1.019531 -7.484375 -0.53125 -7.609375 C -0.0507812 -7.742188 0.4375 -7.707031 0.9375 -7.5 L 0.5625 -6.78125 C 0.21875 -6.914062 -0.125 -6.9375 -0.46875 -6.84375 C -0.820312 -6.757812 -1.148438 -6.566406 -1.453125 -6.265625 Z M -1.453125 -6.265625 "/>
</g>
<g id="glyph-2-0">
<path d="M 1.09375 -7.5625 L 7.140625 -7.5625 L 7.140625 0 L 1.09375 0 Z M 1.515625 -7.15625 L 1.515625 -0.40625 L 6.734375 -0.40625 L 6.734375 -7.15625 Z M 1.515625 -7.15625 "/>
</g>
<g id="glyph-2-1">
<path d="M 6.25 0 L 4.28125 -3.140625 L 1.921875 -3.140625 L 1.921875 0 L 0.90625 0 L 0.90625 -7.5625 L 4.46875 -7.5625 C 5.3125 -7.5625 5.96875 -7.367188 6.4375 -6.984375 C 6.90625 -6.609375 7.140625 -6.082031 7.140625 -5.40625 C 7.140625 -4.84375 6.972656 -4.367188 6.640625 -3.984375 C 6.316406 -3.597656 5.863281 -3.359375 5.28125 -3.265625 L 7.4375 0 Z M 6.109375 -5.390625 C 6.109375 -5.828125 5.957031 -6.160156 5.65625 -6.390625 C 5.351562 -6.628906 4.921875 -6.75 4.359375 -6.75 L 1.921875 -6.75 L 1.921875 -3.953125 L 4.40625 -3.953125 C 4.945312 -3.953125 5.363281 -4.078125 5.65625 -4.328125 C 5.957031 -4.578125 6.109375 -4.929688 6.109375 -5.390625 Z M 6.109375 -5.390625 "/>
</g>
<g id="glyph-2-2">
<path d="M 1.484375 -2.703125 C 1.484375 -2.035156 1.617188 -1.519531 1.890625 -1.15625 C 2.171875 -0.800781 2.578125 -0.625 3.109375 -0.625 C 3.523438 -0.625 3.859375 -0.707031 4.109375 -0.875 C 4.359375 -1.039062 4.53125 -1.253906 4.625 -1.515625 L 5.46875 -1.265625 C 5.125 -0.347656 4.335938 0.109375 3.109375 0.109375 C 2.242188 0.109375 1.585938 -0.144531 1.140625 -0.65625 C 0.691406 -1.164062 0.46875 -1.925781 0.46875 -2.9375 C 0.46875 -3.90625 0.691406 -4.644531 1.140625 -5.15625 C 1.585938 -5.664062 2.226562 -5.921875 3.0625 -5.921875 C 4.769531 -5.921875 5.625 -4.890625 5.625 -2.828125 L 5.625 -2.703125 Z M 4.625 -3.4375 C 4.570312 -4.050781 4.414062 -4.5 4.15625 -4.78125 C 3.90625 -5.0625 3.535156 -5.203125 3.046875 -5.203125 C 2.578125 -5.203125 2.207031 -5.046875 1.9375 -4.734375 C 1.664062 -4.421875 1.519531 -3.988281 1.5 -3.4375 Z M 4.625 -3.4375 "/>
</g>
<g id="glyph-2-3">
<path d="M 2.9375 2.28125 C 2.3125 2.28125 1.804688 2.15625 1.421875 1.90625 C 1.046875 1.65625 0.804688 1.300781 0.703125 0.84375 L 1.671875 0.703125 C 1.734375 0.972656 1.875 1.179688 2.09375 1.328125 C 2.320312 1.472656 2.613281 1.546875 2.96875 1.546875 C 3.9375 1.546875 4.421875 0.980469 4.421875 -0.140625 L 4.421875 -1.078125 L 4.40625 -1.078125 C 4.21875 -0.703125 3.960938 -0.421875 3.640625 -0.234375 C 3.328125 -0.046875 2.957031 0.046875 2.53125 0.046875 C 1.820312 0.046875 1.300781 -0.1875 0.96875 -0.65625 C 0.632812 -1.132812 0.46875 -1.878906 0.46875 -2.890625 C 0.46875 -3.921875 0.644531 -4.679688 1 -5.171875 C 1.363281 -5.660156 1.910156 -5.90625 2.640625 -5.90625 C 3.054688 -5.90625 3.414062 -5.8125 3.71875 -5.625 C 4.019531 -5.4375 4.253906 -5.164062 4.421875 -4.8125 C 4.421875 -4.925781 4.425781 -5.113281 4.4375 -5.375 C 4.457031 -5.644531 4.472656 -5.789062 4.484375 -5.8125 L 5.40625 -5.8125 C 5.382812 -5.613281 5.375 -5.210938 5.375 -4.609375 L 5.375 -0.171875 C 5.375 1.460938 4.5625 2.28125 2.9375 2.28125 Z M 4.421875 -2.90625 C 4.421875 -3.375 4.351562 -3.78125 4.21875 -4.125 C 4.09375 -4.46875 3.910156 -4.726562 3.671875 -4.90625 C 3.441406 -5.09375 3.175781 -5.1875 2.875 -5.1875 C 2.382812 -5.1875 2.023438 -5.003906 1.796875 -4.640625 C 1.578125 -4.285156 1.46875 -3.707031 1.46875 -2.90625 C 1.46875 -2.113281 1.570312 -1.539062 1.78125 -1.1875 C 1.988281 -0.84375 2.347656 -0.671875 2.859375 -0.671875 C 3.160156 -0.671875 3.429688 -0.757812 3.671875 -0.9375 C 3.910156 -1.113281 4.09375 -1.367188 4.21875 -1.703125 C 4.351562 -2.046875 4.421875 -2.445312 4.421875 -2.90625 Z M 4.421875 -2.90625 "/>
</g>
<g id="glyph-2-4">
<path d="M 1.6875 -5.8125 L 1.6875 -2.125 C 1.6875 -1.738281 1.722656 -1.441406 1.796875 -1.234375 C 1.867188 -1.023438 1.988281 -0.875 2.15625 -0.78125 C 2.320312 -0.6875 2.566406 -0.640625 2.890625 -0.640625 C 3.347656 -0.640625 3.710938 -0.796875 3.984375 -1.109375 C 4.253906 -1.429688 4.390625 -1.875 4.390625 -2.4375 L 4.390625 -5.8125 L 5.359375 -5.8125 L 5.359375 -1.234375 C 5.359375 -0.554688 5.367188 -0.144531 5.390625 0 L 4.46875 0 C 4.46875 -0.0195312 4.460938 -0.0664062 4.453125 -0.140625 C 4.453125 -0.222656 4.445312 -0.3125 4.4375 -0.40625 C 4.4375 -0.507812 4.4375 -0.707031 4.4375 -1 L 4.421875 -1 C 4.191406 -0.59375 3.929688 -0.304688 3.640625 -0.140625 C 3.347656 0.0234375 2.988281 0.109375 2.5625 0.109375 C 1.914062 0.109375 1.445312 -0.046875 1.15625 -0.359375 C 0.863281 -0.679688 0.71875 -1.207031 0.71875 -1.9375 L 0.71875 -5.8125 Z M 1.6875 -5.8125 "/>
</g>
<g id="glyph-2-5">
<path d="M 0.734375 0 L 0.734375 -7.96875 L 1.703125 -7.96875 L 1.703125 0 Z M 0.734375 0 "/>
</g>
<g id="glyph-2-6">
<path d="M 2.21875 0.109375 C 1.632812 0.109375 1.195312 -0.0390625 0.90625 -0.34375 C 0.613281 -0.65625 0.46875 -1.082031 0.46875 -1.625 C 0.46875 -2.226562 0.664062 -2.6875 1.0625 -3 C 1.457031 -3.320312 2.09375 -3.5 2.96875 -3.53125 L 4.28125 -3.546875 L 4.28125 -3.859375 C 4.28125 -4.335938 4.175781 -4.675781 3.96875 -4.875 C 3.769531 -5.082031 3.457031 -5.1875 3.03125 -5.1875 C 2.601562 -5.1875 2.289062 -5.113281 2.09375 -4.96875 C 1.894531 -4.820312 1.773438 -4.585938 1.734375 -4.265625 L 0.71875 -4.34375 C 0.882812 -5.394531 1.664062 -5.921875 3.0625 -5.921875 C 3.789062 -5.921875 4.335938 -5.753906 4.703125 -5.421875 C 5.078125 -5.085938 5.265625 -4.601562 5.265625 -3.96875 L 5.265625 -1.46875 C 5.265625 -1.175781 5.300781 -0.957031 5.375 -0.8125 C 5.445312 -0.664062 5.585938 -0.59375 5.796875 -0.59375 C 5.890625 -0.59375 6 -0.609375 6.125 -0.640625 L 6.125 -0.03125 C 5.875 0.0195312 5.625 0.046875 5.375 0.046875 C 5.007812 0.046875 4.742188 -0.046875 4.578125 -0.234375 C 4.421875 -0.421875 4.332031 -0.710938 4.3125 -1.109375 L 4.28125 -1.109375 C 4.03125 -0.671875 3.738281 -0.359375 3.40625 -0.171875 C 3.082031 0.0117188 2.6875 0.109375 2.21875 0.109375 Z M 2.4375 -0.625 C 2.789062 -0.625 3.101562 -0.703125 3.375 -0.859375 C 3.65625 -1.015625 3.875 -1.234375 4.03125 -1.515625 C 4.195312 -1.796875 4.28125 -2.085938 4.28125 -2.390625 L 4.28125 -2.875 L 3.21875 -2.84375 C 2.769531 -2.84375 2.425781 -2.796875 2.1875 -2.703125 C 1.957031 -2.617188 1.78125 -2.488281 1.65625 -2.3125 C 1.53125 -2.132812 1.46875 -1.898438 1.46875 -1.609375 C 1.46875 -1.296875 1.550781 -1.050781 1.71875 -0.875 C 1.882812 -0.707031 2.125 -0.625 2.4375 -0.625 Z M 2.4375 -0.625 "/>
</g>
<g id="glyph-2-7">
<path d="M 2.96875 -0.046875 C 2.65625 0.0429688 2.332031 0.09375 2 0.09375 C 1.226562 0.09375 0.84375 -0.347656 0.84375 -1.234375 L 0.84375 -5.109375 L 0.171875 -5.109375 L 0.171875 -5.8125 L 0.875 -5.8125 L 1.15625 -7.109375 L 1.8125 -7.109375 L 1.8125 -5.8125 L 2.875 -5.8125 L 2.875 -5.109375 L 1.8125 -5.109375 L 1.8125 -1.4375 C 1.8125 -1.15625 1.851562 -0.957031 1.9375 -0.84375 C 2.03125 -0.738281 2.191406 -0.6875 2.421875 -0.6875 C 2.546875 -0.6875 2.726562 -0.707031 2.96875 -0.75 Z M 2.96875 -0.046875 "/>
</g>
<g id="glyph-2-8">
<path d="M 5.65625 -2.90625 C 5.65625 -1.894531 5.429688 -1.140625 4.984375 -0.640625 C 4.535156 -0.140625 3.882812 0.109375 3.03125 0.109375 C 2.1875 0.109375 1.546875 -0.144531 1.109375 -0.65625 C 0.679688 -1.175781 0.46875 -1.925781 0.46875 -2.90625 C 0.46875 -4.914062 1.332031 -5.921875 3.0625 -5.921875 C 3.957031 -5.921875 4.613281 -5.675781 5.03125 -5.1875 C 5.445312 -4.695312 5.65625 -3.9375 5.65625 -2.90625 Z M 4.640625 -2.90625 C 4.640625 -3.707031 4.519531 -4.289062 4.28125 -4.65625 C 4.039062 -5.019531 3.640625 -5.203125 3.078125 -5.203125 C 2.515625 -5.203125 2.109375 -5.015625 1.859375 -4.640625 C 1.609375 -4.273438 1.484375 -3.695312 1.484375 -2.90625 C 1.484375 -2.144531 1.601562 -1.570312 1.84375 -1.1875 C 2.09375 -0.800781 2.488281 -0.609375 3.03125 -0.609375 C 3.601562 -0.609375 4.015625 -0.789062 4.265625 -1.15625 C 4.515625 -1.53125 4.640625 -2.113281 4.640625 -2.90625 Z M 4.640625 -2.90625 "/>
</g>
<g id="glyph-2-9">
<path d="M 0.765625 0 L 0.765625 -4.453125 C 0.765625 -4.867188 0.753906 -5.320312 0.734375 -5.8125 L 1.640625 -5.8125 C 1.671875 -5.15625 1.6875 -4.757812 1.6875 -4.625 L 1.703125 -4.625 C 1.859375 -5.125 2.035156 -5.460938 2.234375 -5.640625 C 2.441406 -5.828125 2.726562 -5.921875 3.09375 -5.921875 C 3.21875 -5.921875 3.347656 -5.898438 3.484375 -5.859375 L 3.484375 -4.984375 C 3.347656 -5.015625 3.175781 -5.03125 2.96875 -5.03125 C 2.5625 -5.03125 2.253906 -4.859375 2.046875 -4.515625 C 1.835938 -4.171875 1.734375 -3.675781 1.734375 -3.03125 L 1.734375 0 Z M 0.765625 0 "/>
</g>
<g id="glyph-2-10">
<path d="M 1.03125 2.28125 C 0.757812 2.28125 0.535156 2.257812 0.359375 2.21875 L 0.359375 1.5 C 0.492188 1.519531 0.644531 1.53125 0.8125 1.53125 C 1.414062 1.53125 1.890625 1.085938 2.234375 0.203125 L 2.328125 -0.03125 L 0.03125 -5.8125 L 1.0625 -5.8125 L 2.28125 -2.59375 C 2.300781 -2.550781 2.320312 -2.492188 2.34375 -2.421875 C 2.375 -2.347656 2.457031 -2.113281 2.59375 -1.71875 C 2.726562 -1.320312 2.800781 -1.097656 2.8125 -1.046875 L 3.1875 -2.109375 L 4.453125 -5.8125 L 5.484375 -5.8125 L 3.25 0 C 3.007812 0.613281 2.785156 1.070312 2.578125 1.375 C 2.367188 1.6875 2.132812 1.914062 1.875 2.0625 C 1.625 2.207031 1.34375 2.28125 1.03125 2.28125 Z M 1.03125 2.28125 "/>
</g>
<g id="glyph-2-11">
</g>
<g id="glyph-2-12">
<path d="M 0.734375 -7.046875 L 0.734375 -7.96875 L 1.703125 -7.96875 L 1.703125 -7.046875 Z M 0.734375 0 L 0.734375 -5.8125 L 1.703125 -5.8125 L 1.703125 0 Z M 0.734375 0 "/>
</g>
<g id="glyph-2-13">
<path d="M 4.4375 0 L 4.4375 -3.6875 C 4.4375 -4.070312 4.394531 -4.367188 4.3125 -4.578125 C 4.238281 -4.785156 4.117188 -4.9375 3.953125 -5.03125 C 3.796875 -5.125 3.554688 -5.171875 3.234375 -5.171875 C 2.765625 -5.171875 2.394531 -5.007812 2.125 -4.6875 C 1.863281 -4.375 1.734375 -3.9375 1.734375 -3.375 L 1.734375 0 L 0.765625 0 L 0.765625 -4.578125 C 0.765625 -5.253906 0.753906 -5.664062 0.734375 -5.8125 L 1.640625 -5.8125 C 1.648438 -5.789062 1.65625 -5.738281 1.65625 -5.65625 C 1.65625 -5.582031 1.65625 -5.492188 1.65625 -5.390625 C 1.664062 -5.296875 1.675781 -5.101562 1.6875 -4.8125 L 1.703125 -4.8125 C 1.921875 -5.21875 2.175781 -5.503906 2.46875 -5.671875 C 2.757812 -5.835938 3.125 -5.921875 3.5625 -5.921875 C 4.195312 -5.921875 4.660156 -5.757812 4.953125 -5.4375 C 5.253906 -5.125 5.40625 -4.601562 5.40625 -3.875 L 5.40625 0 Z M 4.4375 0 "/>
</g>
<g id="glyph-2-14">
<path d="M 5.109375 -1.609375 C 5.109375 -1.054688 4.898438 -0.628906 4.484375 -0.328125 C 4.066406 -0.0351562 3.488281 0.109375 2.75 0.109375 C 2.019531 0.109375 1.457031 -0.0078125 1.0625 -0.25 C 0.675781 -0.488281 0.425781 -0.859375 0.3125 -1.359375 L 1.15625 -1.53125 C 1.238281 -1.21875 1.410156 -0.988281 1.671875 -0.84375 C 1.929688 -0.695312 2.289062 -0.625 2.75 -0.625 C 3.238281 -0.625 3.59375 -0.695312 3.8125 -0.84375 C 4.039062 -1 4.15625 -1.226562 4.15625 -1.53125 C 4.15625 -1.757812 4.078125 -1.941406 3.921875 -2.078125 C 3.765625 -2.222656 3.507812 -2.34375 3.15625 -2.4375 L 2.46875 -2.625 C 1.914062 -2.769531 1.519531 -2.910156 1.28125 -3.046875 C 1.050781 -3.179688 0.867188 -3.347656 0.734375 -3.546875 C 0.597656 -3.742188 0.53125 -3.988281 0.53125 -4.28125 C 0.53125 -4.8125 0.71875 -5.210938 1.09375 -5.484375 C 1.476562 -5.765625 2.03125 -5.90625 2.75 -5.90625 C 3.394531 -5.90625 3.90625 -5.789062 4.28125 -5.5625 C 4.65625 -5.332031 4.894531 -4.972656 5 -4.484375 L 4.125 -4.375 C 4.070312 -4.632812 3.925781 -4.832031 3.6875 -4.96875 C 3.457031 -5.101562 3.144531 -5.171875 2.75 -5.171875 C 2.3125 -5.171875 1.988281 -5.101562 1.78125 -4.96875 C 1.582031 -4.84375 1.484375 -4.644531 1.484375 -4.375 C 1.484375 -4.207031 1.523438 -4.066406 1.609375 -3.953125 C 1.691406 -3.847656 1.816406 -3.757812 1.984375 -3.6875 C 2.148438 -3.613281 2.503906 -3.507812 3.046875 -3.375 C 3.554688 -3.25 3.925781 -3.128906 4.15625 -3.015625 C 4.382812 -2.910156 4.5625 -2.789062 4.6875 -2.65625 C 4.820312 -2.519531 4.925781 -2.363281 5 -2.1875 C 5.070312 -2.019531 5.109375 -1.828125 5.109375 -1.609375 Z M 5.109375 -1.609375 "/>
</g>
<g id="glyph-3-0">
<path d="M -7.5625 -1.09375 L -7.5625 -7.140625 L 0 -7.140625 L 0 -1.09375 Z M -7.15625 -1.515625 L -0.40625 -1.515625 L -0.40625 -6.734375 L -7.15625 -6.734375 Z M -7.15625 -1.515625 "/>
</g>
<g id="glyph-3-1">
<path d="M -1.609375 -5.109375 C -1.054688 -5.109375 -0.628906 -4.898438 -0.328125 -4.484375 C -0.0351562 -4.066406 0.109375 -3.488281 0.109375 -2.75 C 0.109375 -2.019531 -0.0078125 -1.457031 -0.25 -1.0625 C -0.488281 -0.675781 -0.859375 -0.425781 -1.359375 -0.3125 L -1.53125 -1.15625 C -1.21875 -1.238281 -0.988281 -1.410156 -0.84375 -1.671875 C -0.695312 -1.929688 -0.625 -2.289062 -0.625 -2.75 C -0.625 -3.238281 -0.695312 -3.59375 -0.84375 -3.8125 C -1 -4.039062 -1.226562 -4.15625 -1.53125 -4.15625 C -1.757812 -4.15625 -1.941406 -4.078125 -2.078125 -3.921875 C -2.222656 -3.765625 -2.34375 -3.507812 -2.4375 -3.15625 L -2.625 -2.46875 C -2.769531 -1.914062 -2.910156 -1.519531 -3.046875 -1.28125 C -3.179688 -1.050781 -3.347656 -0.867188 -3.546875 -0.734375 C -3.742188 -0.597656 -3.988281 -0.53125 -4.28125 -0.53125 C -4.8125 -0.53125 -5.210938 -0.71875 -5.484375 -1.09375 C -5.765625 -1.476562 -5.90625 -2.03125 -5.90625 -2.75 C -5.90625 -3.394531 -5.789062 -3.90625 -5.5625 -4.28125 C -5.332031 -4.65625 -4.972656 -4.894531 -4.484375 -5 L -4.375 -4.125 C -4.632812 -4.070312 -4.832031 -3.925781 -4.96875 -3.6875 C -5.101562 -3.457031 -5.171875 -3.144531 -5.171875 -2.75 C -5.171875 -2.3125 -5.101562 -1.988281 -4.96875 -1.78125 C -4.84375 -1.582031 -4.644531 -1.484375 -4.375 -1.484375 C -4.207031 -1.484375 -4.066406 -1.523438 -3.953125 -1.609375 C -3.847656 -1.691406 -3.757812 -1.816406 -3.6875 -1.984375 C -3.613281 -2.148438 -3.507812 -2.503906 -3.375 -3.046875 C -3.25 -3.554688 -3.128906 -3.925781 -3.015625 -4.15625 C -2.910156 -4.382812 -2.789062 -4.5625 -2.65625 -4.6875 C -2.519531 -4.820312 -2.363281 -4.925781 -2.1875 -5 C -2.019531 -5.070312 -1.828125 -5.109375 -1.609375 -5.109375 Z M -1.609375 -5.109375 "/>
</g>
<g id="glyph-3-2">
<path d="M -5.8125 -1.6875 L -2.125 -1.6875 C -1.738281 -1.6875 -1.441406 -1.722656 -1.234375 -1.796875 C -1.023438 -1.867188 -0.875 -1.988281 -0.78125 -2.15625 C -0.6875 -2.320312 -0.640625 -2.566406 -0.640625 -2.890625 C -0.640625 -3.347656 -0.796875 -3.710938 -1.109375 -3.984375 C -1.429688 -4.253906 -1.875 -4.390625 -2.4375 -4.390625 L -5.8125 -4.390625 L -5.8125 -5.359375 L -1.234375 -5.359375 C -0.554688 -5.359375 -0.144531 -5.367188 0 -5.390625 L 0 -4.46875 C -0.0195312 -4.46875 -0.0664062 -4.460938 -0.140625 -4.453125 C -0.222656 -4.453125 -0.3125 -4.445312 -0.40625 -4.4375 C -0.507812 -4.4375 -0.707031 -4.4375 -1 -4.4375 L -1 -4.421875 C -0.59375 -4.191406 -0.304688 -3.929688 -0.140625 -3.640625 C 0.0234375 -3.347656 0.109375 -2.988281 0.109375 -2.5625 C 0.109375 -1.914062 -0.046875 -1.445312 -0.359375 -1.15625 C -0.679688 -0.863281 -1.207031 -0.71875 -1.9375 -0.71875 L -5.8125 -0.71875 Z M -5.8125 -1.6875 "/>
</g>
<g id="glyph-3-3">
<path d="M 0 -4.125 L -3.6875 -4.125 C -4.25 -4.125 -4.632812 -4.046875 -4.84375 -3.890625 C -5.0625 -3.734375 -5.171875 -3.457031 -5.171875 -3.0625 C -5.171875 -2.644531 -5.015625 -2.316406 -4.703125 -2.078125 C -4.390625 -1.835938 -3.945312 -1.71875 -3.375 -1.71875 L 0 -1.71875 L 0 -0.765625 L -4.578125 -0.765625 C -5.253906 -0.765625 -5.664062 -0.753906 -5.8125 -0.734375 L -5.8125 -1.640625 C -5.789062 -1.648438 -5.738281 -1.65625 -5.65625 -1.65625 C -5.582031 -1.65625 -5.492188 -1.65625 -5.390625 -1.65625 C -5.296875 -1.664062 -5.101562 -1.675781 -4.8125 -1.6875 L -4.8125 -1.703125 C -5.226562 -1.910156 -5.515625 -2.144531 -5.671875 -2.40625 C -5.835938 -2.675781 -5.921875 -3.007812 -5.921875 -3.40625 C -5.921875 -3.84375 -5.832031 -4.1875 -5.65625 -4.4375 C -5.476562 -4.695312 -5.195312 -4.878906 -4.8125 -4.984375 L -4.8125 -5 C -5.207031 -5.195312 -5.488281 -5.4375 -5.65625 -5.71875 C -5.832031 -6.007812 -5.921875 -6.351562 -5.921875 -6.75 C -5.921875 -7.34375 -5.757812 -7.769531 -5.4375 -8.03125 C -5.125 -8.300781 -4.601562 -8.4375 -3.875 -8.4375 L 0 -8.4375 L 0 -7.484375 L -3.6875 -7.484375 C -4.25 -7.484375 -4.632812 -7.40625 -4.84375 -7.25 C -5.0625 -7.09375 -5.171875 -6.816406 -5.171875 -6.421875 C -5.171875 -5.992188 -5.015625 -5.660156 -4.703125 -5.421875 C -4.390625 -5.191406 -3.945312 -5.078125 -3.375 -5.078125 L 0 -5.078125 Z M 0 -4.125 "/>
</g>
<g id="glyph-3-4">
<path d="M -2.859375 -0.6875 C -3.890625 -0.6875 -4.816406 -0.847656 -5.640625 -1.171875 C -6.460938 -1.492188 -7.238281 -1.992188 -7.96875 -2.671875 L -7.96875 -3.59375 C -7.226562 -2.925781 -6.4375 -2.4375 -5.59375 -2.125 C -4.757812 -1.8125 -3.84375 -1.65625 -2.84375 -1.65625 C -1.851562 -1.65625 -0.941406 -1.804688 -0.109375 -2.109375 C 0.722656 -2.421875 1.519531 -2.914062 2.28125 -3.59375 L 2.28125 -2.671875 C 1.550781 -1.992188 0.773438 -1.492188 -0.046875 -1.171875 C -0.878906 -0.847656 -1.8125 -0.6875 -2.84375 -0.6875 Z M -2.859375 -0.6875 "/>
</g>
<g id="glyph-3-5">
<path d="M -5.296875 -6.75 C -4.578125 -6.75 -4.003906 -6.515625 -3.578125 -6.046875 C -3.160156 -5.585938 -2.953125 -4.957031 -2.953125 -4.15625 L -2.953125 -1.921875 L 0 -1.921875 L 0 -0.90625 L -7.5625 -0.90625 L -7.5625 -4.09375 C -7.5625 -4.9375 -7.363281 -5.585938 -6.96875 -6.046875 C -6.570312 -6.515625 -6.015625 -6.75 -5.296875 -6.75 Z M -5.28125 -5.71875 C -6.257812 -5.71875 -6.75 -5.132812 -6.75 -3.96875 L -6.75 -1.921875 L -3.765625 -1.921875 L -3.765625 -4 C -3.765625 -5.144531 -4.269531 -5.71875 -5.28125 -5.71875 Z M -5.28125 -5.71875 "/>
</g>
<g id="glyph-3-6">
<path d="M 0 -1.015625 L -7.5625 -1.015625 L -7.5625 -2.046875 L 0 -2.046875 Z M 0 -1.015625 "/>
</g>
<g id="glyph-3-7">
<path d="M -2.84375 -2.984375 C -1.800781 -2.984375 -0.867188 -2.820312 -0.046875 -2.5 C 0.773438 -2.175781 1.550781 -1.675781 2.28125 -1 L 2.28125 -0.0625 C 1.53125 -0.738281 0.738281 -1.234375 -0.09375 -1.546875 C -0.925781 -1.859375 -1.84375 -2.015625 -2.84375 -2.015625 C -3.84375 -2.015625 -4.757812 -1.851562 -5.59375 -1.53125 C -6.425781 -1.21875 -7.21875 -0.726562 -7.96875 -0.0625 L -7.96875 -1 C -7.238281 -1.675781 -6.460938 -2.175781 -5.640625 -2.5 C -4.816406 -2.820312 -3.890625 -2.984375 -2.859375 -2.984375 Z M -2.84375 -2.984375 "/>
</g>
<g id="glyph-3-8">
</g>
<g id="glyph-3-9">
<path d="M 0.109375 0 L -7.96875 -2.203125 L -7.96875 -3.0625 L 0.109375 -0.875 Z M 0.109375 0 "/>
</g>
<g id="glyph-3-10">
<path d="M -3.8125 -0.546875 C -5.039062 -0.546875 -5.992188 -0.875 -6.671875 -1.53125 C -7.347656 -2.195312 -7.6875 -3.125 -7.6875 -4.3125 C -7.6875 -5.15625 -7.539062 -5.835938 -7.25 -6.359375 C -6.96875 -6.878906 -6.515625 -7.28125 -5.890625 -7.5625 L -5.609375 -6.59375 C -6.035156 -6.375 -6.347656 -6.078125 -6.546875 -5.703125 C -6.742188 -5.328125 -6.84375 -4.859375 -6.84375 -4.296875 C -6.84375 -3.421875 -6.578125 -2.75 -6.046875 -2.28125 C -5.523438 -1.820312 -4.78125 -1.59375 -3.8125 -1.59375 C -2.863281 -1.59375 -2.109375 -1.835938 -1.546875 -2.328125 C -0.992188 -2.816406 -0.71875 -3.492188 -0.71875 -4.359375 C -0.71875 -4.859375 -0.789062 -5.320312 -0.9375 -5.75 C -1.09375 -6.175781 -1.300781 -6.523438 -1.5625 -6.796875 L -2.921875 -6.796875 L -2.921875 -4.53125 L -3.78125 -4.53125 L -3.78125 -7.734375 L -1.171875 -7.734375 C -0.765625 -7.335938 -0.445312 -6.847656 -0.21875 -6.265625 C 0 -5.679688 0.109375 -5.046875 0.109375 -4.359375 C 0.109375 -3.578125 -0.046875 -2.898438 -0.359375 -2.328125 C -0.679688 -1.753906 -1.132812 -1.3125 -1.71875 -1 C -2.3125 -0.695312 -3.007812 -0.546875 -3.8125 -0.546875 Z M -3.8125 -0.546875 "/>
</g>
<g id="glyph-3-11">
<path d="M -2.703125 -1.484375 C -2.035156 -1.484375 -1.519531 -1.617188 -1.15625 -1.890625 C -0.800781 -2.171875 -0.625 -2.578125 -0.625 -3.109375 C -0.625 -3.523438 -0.707031 -3.859375 -0.875 -4.109375 C -1.039062 -4.359375 -1.253906 -4.53125 -1.515625 -4.625 L -1.265625 -5.46875 C -0.347656 -5.125 0.109375 -4.335938 0.109375 -3.109375 C 0.109375 -2.242188 -0.144531 -1.585938 -0.65625 -1.140625 C -1.164062 -0.691406 -1.925781 -0.46875 -2.9375 -0.46875 C -3.90625 -0.46875 -4.644531 -0.691406 -5.15625 -1.140625 C -5.664062 -1.585938 -5.921875 -2.226562 -5.921875 -3.0625 C -5.921875 -4.769531 -4.890625 -5.625 -2.828125 -5.625 L -2.703125 -5.625 Z M -3.4375 -4.625 C -4.050781 -4.570312 -4.5 -4.414062 -4.78125 -4.15625 C -5.0625 -3.90625 -5.203125 -3.535156 -5.203125 -3.046875 C -5.203125 -2.578125 -5.046875 -2.207031 -4.734375 -1.9375 C -4.421875 -1.664062 -3.988281 -1.519531 -3.4375 -1.5 Z M -3.4375 -4.625 "/>
</g>
<g id="glyph-3-12">
<path d="M 0 -4.4375 L -3.6875 -4.4375 C -4.070312 -4.4375 -4.367188 -4.394531 -4.578125 -4.3125 C -4.785156 -4.238281 -4.9375 -4.117188 -5.03125 -3.953125 C -5.125 -3.796875 -5.171875 -3.554688 -5.171875 -3.234375 C -5.171875 -2.765625 -5.007812 -2.394531 -4.6875 -2.125 C -4.375 -1.863281 -3.9375 -1.734375 -3.375 -1.734375 L 0 -1.734375 L 0 -0.765625 L -4.578125 -0.765625 C -5.253906 -0.765625 -5.664062 -0.753906 -5.8125 -0.734375 L -5.8125 -1.640625 C -5.789062 -1.648438 -5.738281 -1.65625 -5.65625 -1.65625 C -5.582031 -1.65625 -5.492188 -1.65625 -5.390625 -1.65625 C -5.296875 -1.664062 -5.101562 -1.675781 -4.8125 -1.6875 L -4.8125 -1.703125 C -5.21875 -1.921875 -5.503906 -2.175781 -5.671875 -2.46875 C -5.835938 -2.757812 -5.921875 -3.125 -5.921875 -3.5625 C -5.921875 -4.195312 -5.757812 -4.660156 -5.4375 -4.953125 C -5.125 -5.253906 -4.601562 -5.40625 -3.875 -5.40625 L 0 -5.40625 Z M 0 -4.4375 "/>
</g>
<g id="glyph-3-13">
<path d="M -2.90625 -5.65625 C -1.894531 -5.65625 -1.140625 -5.429688 -0.640625 -4.984375 C -0.140625 -4.535156 0.109375 -3.882812 0.109375 -3.03125 C 0.109375 -2.1875 -0.144531 -1.546875 -0.65625 -1.109375 C -1.175781 -0.679688 -1.925781 -0.46875 -2.90625 -0.46875 C -4.914062 -0.46875 -5.921875 -1.332031 -5.921875 -3.0625 C -5.921875 -3.957031 -5.675781 -4.613281 -5.1875 -5.03125 C -4.695312 -5.445312 -3.9375 -5.65625 -2.90625 -5.65625 Z M -2.90625 -4.640625 C -3.707031 -4.640625 -4.289062 -4.519531 -4.65625 -4.28125 C -5.019531 -4.039062 -5.203125 -3.640625 -5.203125 -3.078125 C -5.203125 -2.515625 -5.015625 -2.109375 -4.640625 -1.859375 C -4.273438 -1.609375 -3.695312 -1.484375 -2.90625 -1.484375 C -2.144531 -1.484375 -1.570312 -1.601562 -1.1875 -1.84375 C -0.800781 -2.09375 -0.609375 -2.488281 -0.609375 -3.03125 C -0.609375 -3.601562 -0.789062 -4.015625 -1.15625 -4.265625 C -1.53125 -4.515625 -2.113281 -4.640625 -2.90625 -4.640625 Z M -2.90625 -4.640625 "/>
</g>
<g id="glyph-3-14">
<path d="M -6.84375 -4.25 C -6.84375 -3.414062 -6.570312 -2.765625 -6.03125 -2.296875 C -5.488281 -1.828125 -4.75 -1.59375 -3.8125 -1.59375 C -2.882812 -1.59375 -2.140625 -1.835938 -1.578125 -2.328125 C -1.015625 -2.816406 -0.734375 -3.472656 -0.734375 -4.296875 C -0.734375 -5.359375 -1.257812 -6.15625 -2.3125 -6.6875 L -1.890625 -7.53125 C -1.234375 -7.21875 -0.734375 -6.773438 -0.390625 -6.203125 C -0.0546875 -5.640625 0.109375 -4.988281 0.109375 -4.25 C 0.109375 -3.488281 -0.046875 -2.828125 -0.359375 -2.265625 C -0.679688 -1.710938 -1.132812 -1.289062 -1.71875 -1 C -2.3125 -0.707031 -3.007812 -0.5625 -3.8125 -0.5625 C -5.019531 -0.5625 -5.96875 -0.882812 -6.65625 -1.53125 C -7.34375 -2.1875 -7.6875 -3.09375 -7.6875 -4.25 C -7.6875 -5.050781 -7.523438 -5.722656 -7.203125 -6.265625 C -6.890625 -6.804688 -6.425781 -7.203125 -5.8125 -7.453125 L -5.484375 -6.484375 C -5.921875 -6.304688 -6.253906 -6.019531 -6.484375 -5.625 C -6.722656 -5.238281 -6.84375 -4.78125 -6.84375 -4.25 Z M -6.84375 -4.25 "/>
</g>
<g id="glyph-3-15">
<path d="M 0 -3.296875 L 0 -2.15625 L -5.8125 -0.03125 L -5.8125 -1.0625 L -2.03125 -2.34375 C -1.882812 -2.394531 -1.457031 -2.519531 -0.75 -2.71875 L -1.390625 -2.90625 L -2.015625 -3.109375 L -5.8125 -4.4375 L -5.8125 -5.46875 Z M 0 -3.296875 "/>
</g>
<g id="glyph-3-16">
<path d="M 0 -0.765625 L -4.453125 -0.765625 C -4.867188 -0.765625 -5.320312 -0.753906 -5.8125 -0.734375 L -5.8125 -1.640625 C -5.15625 -1.671875 -4.757812 -1.6875 -4.625 -1.6875 L -4.625 -1.703125 C -5.125 -1.859375 -5.460938 -2.035156 -5.640625 -2.234375 C -5.828125 -2.441406 -5.921875 -2.726562 -5.921875 -3.09375 C -5.921875 -3.21875 -5.898438 -3.347656 -5.859375 -3.484375 L -4.984375 -3.484375 C -5.015625 -3.347656 -5.03125 -3.175781 -5.03125 -2.96875 C -5.03125 -2.5625 -4.859375 -2.253906 -4.515625 -2.046875 C -4.171875 -1.835938 -3.675781 -1.734375 -3.03125 -1.734375 L 0 -1.734375 Z M 0 -0.765625 "/>
</g>
<g id="glyph-3-17">
<path d="M 0.109375 -2.21875 C 0.109375 -1.632812 -0.0390625 -1.195312 -0.34375 -0.90625 C -0.65625 -0.613281 -1.082031 -0.46875 -1.625 -0.46875 C -2.226562 -0.46875 -2.6875 -0.664062 -3 -1.0625 C -3.320312 -1.457031 -3.5 -2.09375 -3.53125 -2.96875 L -3.546875 -4.28125 L -3.859375 -4.28125 C -4.335938 -4.28125 -4.675781 -4.175781 -4.875 -3.96875 C -5.082031 -3.769531 -5.1875 -3.457031 -5.1875 -3.03125 C -5.1875 -2.601562 -5.113281 -2.289062 -4.96875 -2.09375 C -4.820312 -1.894531 -4.585938 -1.773438 -4.265625 -1.734375 L -4.34375 -0.71875 C -5.394531 -0.882812 -5.921875 -1.664062 -5.921875 -3.0625 C -5.921875 -3.789062 -5.753906 -4.335938 -5.421875 -4.703125 C -5.085938 -5.078125 -4.601562 -5.265625 -3.96875 -5.265625 L -1.46875 -5.265625 C -1.175781 -5.265625 -0.957031 -5.300781 -0.8125 -5.375 C -0.664062 -5.445312 -0.59375 -5.585938 -0.59375 -5.796875 C -0.59375 -5.890625 -0.609375 -6 -0.640625 -6.125 L -0.03125 -6.125 C 0.0195312 -5.875 0.046875 -5.625 0.046875 -5.375 C 0.046875 -5.007812 -0.046875 -4.742188 -0.234375 -4.578125 C -0.421875 -4.421875 -0.710938 -4.332031 -1.109375 -4.3125 L -1.109375 -4.28125 C -0.671875 -4.03125 -0.359375 -3.738281 -0.171875 -3.40625 C 0.0117188 -3.082031 0.109375 -2.6875 0.109375 -2.21875 Z M -0.625 -2.4375 C -0.625 -2.789062 -0.703125 -3.101562 -0.859375 -3.375 C -1.015625 -3.65625 -1.234375 -3.875 -1.515625 -4.03125 C -1.796875 -4.195312 -2.085938 -4.28125 -2.390625 -4.28125 L -2.875 -4.28125 L -2.84375 -3.21875 C -2.84375 -2.769531 -2.796875 -2.425781 -2.703125 -2.1875 C -2.617188 -1.957031 -2.488281 -1.78125 -2.3125 -1.65625 C -2.132812 -1.53125 -1.898438 -1.46875 -1.609375 -1.46875 C -1.296875 -1.46875 -1.050781 -1.550781 -0.875 -1.71875 C -0.707031 -1.882812 -0.625 -2.125 -0.625 -2.4375 Z M -0.625 -2.4375 "/>
</g>
<g id="glyph-3-18">
<path d="M 2.28125 -2.9375 C 2.28125 -2.3125 2.15625 -1.804688 1.90625 -1.421875 C 1.65625 -1.046875 1.300781 -0.804688 0.84375 -0.703125 L 0.703125 -1.671875 C 0.972656 -1.734375 1.179688 -1.875 1.328125 -2.09375 C 1.472656 -2.320312 1.546875 -2.613281 1.546875 -2.96875 C 1.546875 -3.9375 0.980469 -4.421875 -0.140625 -4.421875 L -1.078125 -4.421875 L -1.078125 -4.40625 C -0.703125 -4.21875 -0.421875 -3.960938 -0.234375 -3.640625 C -0.046875 -3.328125 0.046875 -2.957031 0.046875 -2.53125 C 0.046875 -1.820312 -0.1875 -1.300781 -0.65625 -0.96875 C -1.132812 -0.632812 -1.878906 -0.46875 -2.890625 -0.46875 C -3.921875 -0.46875 -4.679688 -0.644531 -5.171875 -1 C -5.660156 -1.363281 -5.90625 -1.910156 -5.90625 -2.640625 C -5.90625 -3.054688 -5.8125 -3.414062 -5.625 -3.71875 C -5.4375 -4.019531 -5.164062 -4.253906 -4.8125 -4.421875 C -4.925781 -4.421875 -5.113281 -4.425781 -5.375 -4.4375 C -5.644531 -4.457031 -5.789062 -4.472656 -5.8125 -4.484375 L -5.8125 -5.40625 C -5.613281 -5.382812 -5.210938 -5.375 -4.609375 -5.375 L -0.171875 -5.375 C 1.460938 -5.375 2.28125 -4.5625 2.28125 -2.9375 Z M -2.90625 -4.421875 C -3.375 -4.421875 -3.78125 -4.351562 -4.125 -4.21875 C -4.46875 -4.09375 -4.726562 -3.910156 -4.90625 -3.671875 C -5.09375 -3.441406 -5.1875 -3.175781 -5.1875 -2.875 C -5.1875 -2.382812 -5.003906 -2.023438 -4.640625 -1.796875 C -4.285156 -1.578125 -3.707031 -1.46875 -2.90625 -1.46875 C -2.113281 -1.46875 -1.539062 -1.570312 -1.1875 -1.78125 C -0.84375 -1.988281 -0.671875 -2.347656 -0.671875 -2.859375 C -0.671875 -3.160156 -0.757812 -3.429688 -0.9375 -3.671875 C -1.113281 -3.910156 -1.367188 -4.09375 -1.703125 -4.21875 C -2.046875 -4.351562 -2.445312 -4.421875 -2.90625 -4.421875 Z M -2.90625 -4.421875 "/>
</g>
</g>
<clipPath id="clip-0">
<path clip-rule="nonzero" d="M 34.152344 340 L 498.523438 340 L 498.523438 342 L 34.152344 342 Z M 34.152344 340 "/>
</clipPath>
<clipPath id="clip-1">
<path clip-rule="nonzero" d="M 34.152344 255 L 498.523438 255 L 498.523438 256 L 34.152344 256 Z M 34.152344 255 "/>
</clipPath>
<clipPath id="clip-2">
<path clip-rule="nonzero" d="M 34.152344 169 L 498.523438 169 L 498.523438 170 L 34.152344 170 Z M 34.152344 169 "/>
</clipPath>
<clipPath id="clip-3">
<path clip-rule="nonzero" d="M 34.152344 83 L 498.523438 83 L 498.523438 84 L 34.152344 84 Z M 34.152344 83 "/>
</clipPath>
<clipPath id="clip-4">
<path clip-rule="nonzero" d="M 34.152344 383 L 498.523438 383 L 498.523438 385 L 34.152344 385 Z M 34.152344 383 "/>
</clipPath>
<clipPath id="clip-5">
<path clip-rule="nonzero" d="M 34.152344 297 L 498.523438 297 L 498.523438 299 L 34.152344 299 Z M 34.152344 297 "/>
</clipPath>
<clipPath id="clip-6">
<path clip-rule="nonzero" d="M 34.152344 211 L 498.523438 211 L 498.523438 213 L 34.152344 213 Z M 34.152344 211 "/>
</clipPath>
<clipPath id="clip-7">
<path clip-rule="nonzero" d="M 34.152344 125 L 498.523438 125 L 498.523438 128 L 34.152344 128 Z M 34.152344 125 "/>
</clipPath>
<clipPath id="clip-8">
<path clip-rule="nonzero" d="M 34.152344 40 L 498.523438 40 L 498.523438 42 L 34.152344 42 Z M 34.152344 40 "/>
</clipPath>
<clipPath id="clip-9">
<path clip-rule="nonzero" d="M 87 5.480469 L 89 5.480469 L 89 402.070312 L 87 402.070312 Z M 87 5.480469 "/>
</clipPath>
<clipPath id="clip-10">
<path clip-rule="nonzero" d="M 176 5.480469 L 178 5.480469 L 178 402.070312 L 176 402.070312 Z M 176 5.480469 "/>
</clipPath>
<clipPath id="clip-11">
<path clip-rule="nonzero" d="M 265 5.480469 L 267 5.480469 L 267 402.070312 L 265 402.070312 Z M 265 5.480469 "/>
</clipPath>
<clipPath id="clip-12">
<path clip-rule="nonzero" d="M 355 5.480469 L 357 5.480469 L 357 402.070312 L 355 402.070312 Z M 355 5.480469 "/>
</clipPath>
<clipPath id="clip-13">
<path clip-rule="nonzero" d="M 444 5.480469 L 446 5.480469 L 446 402.070312 L 444 402.070312 Z M 444 5.480469 "/>
</clipPath>
</defs>
<rect x="-50.4" y="-50.4" width="604.8" height="604.8" fill="rgb(100%, 100%, 100%)" fill-opacity="1"/>
<g clip-path="url(#clip-0)">
<path fill="none" stroke-width="0.533489" stroke-linecap="butt" stroke-linejoin="round" stroke="rgb(92.156863%, 92.156863%, 92.156863%)" stroke-opacity="1" stroke-miterlimit="10" d="M 34.152344 341.121094 L 498.519531 341.121094 "/>
</g>
<g clip-path="url(#clip-1)">
<path fill="none" stroke-width="0.533489" stroke-linecap="butt" stroke-linejoin="round" stroke="rgb(92.156863%, 92.156863%, 92.156863%)" stroke-opacity="1" stroke-miterlimit="10" d="M 34.152344 255.277344 L 498.519531 255.277344 "/>
</g>
<g clip-path="url(#clip-2)">
<path fill="none" stroke-width="0.533489" stroke-linecap="butt" stroke-linejoin="round" stroke="rgb(92.156863%, 92.156863%, 92.156863%)" stroke-opacity="1" stroke-miterlimit="10" d="M 34.152344 169.4375 L 498.519531 169.4375 "/>
</g>
<g clip-path="url(#clip-3)">
<path fill="none" stroke-width="0.533489" stroke-linecap="butt" stroke-linejoin="round" stroke="rgb(92.156863%, 92.156863%, 92.156863%)" stroke-opacity="1" stroke-miterlimit="10" d="M 34.152344 83.59375 L 498.519531 83.59375 "/>
</g>
<g clip-path="url(#clip-4)">
<path fill="none" stroke-width="1.066978" stroke-linecap="butt" stroke-linejoin="round" stroke="rgb(92.156863%, 92.156863%, 92.156863%)" stroke-opacity="1" stroke-miterlimit="10" d="M 34.152344 384.039062 L 498.519531 384.039062 "/>
</g>
<g clip-path="url(#clip-5)">
<path fill="none" stroke-width="1.066978" stroke-linecap="butt" stroke-linejoin="round" stroke="rgb(92.156863%, 92.156863%, 92.156863%)" stroke-opacity="1" stroke-miterlimit="10" d="M 34.152344 298.199219 L 498.519531 298.199219 "/>
</g>
<g clip-path="url(#clip-6)">
<path fill="none" stroke-width="1.066978" stroke-linecap="butt" stroke-linejoin="round" stroke="rgb(92.156863%, 92.156863%, 92.156863%)" stroke-opacity="1" stroke-miterlimit="10" d="M 34.152344 212.359375 L 498.519531 212.359375 "/>
</g>
<g clip-path="url(#clip-7)">
<path fill="none" stroke-width="1.066978" stroke-linecap="butt" stroke-linejoin="round" stroke="rgb(92.156863%, 92.156863%, 92.156863%)" stroke-opacity="1" stroke-miterlimit="10" d="M 34.152344 126.515625 L 498.519531 126.515625 "/>
</g>
<g clip-path="url(#clip-8)">
<path fill="none" stroke-width="1.066978" stroke-linecap="butt" stroke-linejoin="round" stroke="rgb(92.156863%, 92.156863%, 92.156863%)" stroke-opacity="1" stroke-miterlimit="10" d="M 34.152344 40.675781 L 498.519531 40.675781 "/>
</g>
<g clip-path="url(#clip-9)">
<path fill="none" stroke-width="1.066978" stroke-linecap="butt" stroke-linejoin="round" stroke="rgb(92.156863%, 92.156863%, 92.156863%)" stroke-opacity="1" stroke-miterlimit="10" d="M 87.730469 402.066406 L 87.730469 5.480469 "/>
</g>
<g clip-path="url(#clip-10)">
<path fill="none" stroke-width="1.066978" stroke-linecap="butt" stroke-linejoin="round" stroke="rgb(92.156863%, 92.156863%, 92.156863%)" stroke-opacity="1" stroke-miterlimit="10" d="M 177.035156 402.066406 L 177.035156 5.480469 "/>
</g>
<g clip-path="url(#clip-11)">
<path fill="none" stroke-width="1.066978" stroke-linecap="butt" stroke-linejoin="round" stroke="rgb(92.156863%, 92.156863%, 92.156863%)" stroke-opacity="1" stroke-miterlimit="10" d="M 266.335938 402.066406 L 266.335938 5.480469 "/>
</g>
<g clip-path="url(#clip-12)">
<path fill="none" stroke-width="1.066978" stroke-linecap="butt" stroke-linejoin="round" stroke="rgb(92.156863%, 92.156863%, 92.156863%)" stroke-opacity="1" stroke-miterlimit="10" d="M 355.636719 402.066406 L 355.636719 5.480469 "/>
</g>
<g clip-path="url(#clip-13)">
<path fill="none" stroke-width="1.066978" stroke-linecap="butt" stroke-linejoin="round" stroke="rgb(92.156863%, 92.156863%, 92.156863%)" stroke-opacity="1" stroke-miterlimit="10" d="M 444.9375 402.066406 L 444.9375 5.480469 "/>
</g>
<path fill-rule="nonzero" fill="rgb(27.45098%, 50.980392%, 70.588235%)" fill-opacity="1" d="M 315.453125 384.039062 L 395.824219 384.039062 L 395.824219 309.882812 L 315.453125 309.882812 Z M 315.453125 384.039062 "/>
<path fill-rule="nonzero" fill="rgb(27.45098%, 50.980392%, 70.588235%)" fill-opacity="1" d="M 404.753906 384.039062 L 485.125 384.039062 L 485.125 322.316406 L 404.753906 322.316406 Z M 404.753906 384.039062 "/>
<path fill-rule="nonzero" fill="rgb(27.45098%, 50.980392%, 70.588235%)" fill-opacity="1" d="M 136.847656 384.039062 L 217.21875 384.039062 L 217.21875 304.28125 L 136.847656 304.28125 Z M 136.847656 384.039062 "/>
<path fill-rule="nonzero" fill="rgb(27.45098%, 50.980392%, 70.588235%)" fill-opacity="1" d="M 226.148438 384.039062 L 306.519531 384.039062 L 306.519531 305.34375 L 226.148438 305.34375 Z M 226.148438 384.039062 "/>
<path fill-rule="nonzero" fill="rgb(27.45098%, 50.980392%, 70.588235%)" fill-opacity="1" d="M 47.546875 384.039062 L 127.917969 384.039062 L 127.917969 303.285156 L 47.546875 303.285156 Z M 47.546875 384.039062 "/>
<path fill="none" stroke-width="1.066978" stroke-linecap="butt" stroke-linejoin="round" stroke="rgb(0%, 0%, 0%)" stroke-opacity="1" stroke-miterlimit="10" d="M 346.707031 266.179688 L 364.566406 266.179688 "/>
<path fill="none" stroke-width="1.066978" stroke-linecap="butt" stroke-linejoin="round" stroke="rgb(0%, 0%, 0%)" stroke-opacity="1" stroke-miterlimit="10" d="M 355.636719 266.179688 L 355.636719 342.863281 "/>
<path fill="none" stroke-width="1.066978" stroke-linecap="butt" stroke-linejoin="round" stroke="rgb(0%, 0%, 0%)" stroke-opacity="1" stroke-miterlimit="10" d="M 346.707031 342.863281 L 364.566406 342.863281 "/>
<path fill="none" stroke-width="1.066978" stroke-linecap="butt" stroke-linejoin="round" stroke="rgb(0%, 0%, 0%)" stroke-opacity="1" stroke-miterlimit="10" d="M 436.007812 283.085938 L 453.871094 283.085938 "/>
<path fill="none" stroke-width="1.066978" stroke-linecap="butt" stroke-linejoin="round" stroke="rgb(0%, 0%, 0%)" stroke-opacity="1" stroke-miterlimit="10" d="M 444.9375 283.085938 L 444.9375 351.40625 "/>
<path fill="none" stroke-width="1.066978" stroke-linecap="butt" stroke-linejoin="round" stroke="rgb(0%, 0%, 0%)" stroke-opacity="1" stroke-miterlimit="10" d="M 436.007812 351.40625 L 453.871094 351.40625 "/>
<path fill="none" stroke-width="1.066978" stroke-linecap="butt" stroke-linejoin="round" stroke="rgb(0%, 0%, 0%)" stroke-opacity="1" stroke-miterlimit="10" d="M 168.105469 248.222656 L 185.964844 248.222656 "/>
<path fill="none" stroke-width="1.066978" stroke-linecap="butt" stroke-linejoin="round" stroke="rgb(0%, 0%, 0%)" stroke-opacity="1" stroke-miterlimit="10" d="M 177.035156 248.222656 L 177.035156 343.230469 "/>
<path fill="none" stroke-width="1.066978" stroke-linecap="butt" stroke-linejoin="round" stroke="rgb(0%, 0%, 0%)" stroke-opacity="1" stroke-miterlimit="10" d="M 168.105469 343.230469 L 185.964844 343.230469 "/>
<path fill="none" stroke-width="1.066978" stroke-linecap="butt" stroke-linejoin="round" stroke="rgb(0%, 0%, 0%)" stroke-opacity="1" stroke-miterlimit="10" d="M 257.40625 275.363281 L 275.265625 275.363281 "/>
<path fill="none" stroke-width="1.066978" stroke-linecap="butt" stroke-linejoin="round" stroke="rgb(0%, 0%, 0%)" stroke-opacity="1" stroke-miterlimit="10" d="M 266.335938 275.363281 L 266.335938 331.769531 "/>
<path fill="none" stroke-width="1.066978" stroke-linecap="butt" stroke-linejoin="round" stroke="rgb(0%, 0%, 0%)" stroke-opacity="1" stroke-miterlimit="10" d="M 257.40625 331.769531 L 275.265625 331.769531 "/>
<path fill="none" stroke-width="1.066978" stroke-linecap="butt" stroke-linejoin="round" stroke="rgb(0%, 0%, 0%)" stroke-opacity="1" stroke-miterlimit="10" d="M 78.800781 271.730469 L 96.660156 271.730469 "/>
<path fill="none" stroke-width="1.066978" stroke-linecap="butt" stroke-linejoin="round" stroke="rgb(0%, 0%, 0%)" stroke-opacity="1" stroke-miterlimit="10" d="M 87.730469 271.730469 L 87.730469 330.726562 "/>
<path fill="none" stroke-width="1.066978" stroke-linecap="butt" stroke-linejoin="round" stroke="rgb(0%, 0%, 0%)" stroke-opacity="1" stroke-miterlimit="10" d="M 78.800781 330.726562 L 96.660156 330.726562 "/>
<g fill="rgb(30.196078%, 30.196078%, 30.196078%)" fill-opacity="1">
<use xlink:href="#glyph-0-1" x="24.21875" y="387.504883"/>
</g>
<g fill="rgb(30.196078%, 30.196078%, 30.196078%)" fill-opacity="1">
<use xlink:href="#glyph-0-2" x="19.21875" y="301.665039"/>
<use xlink:href="#glyph-0-1" x="24.21875" y="301.665039"/>
</g>
<g fill="rgb(30.196078%, 30.196078%, 30.196078%)" fill-opacity="1">
<use xlink:href="#glyph-0-3" x="19.21875" y="215.825195"/>
<use xlink:href="#glyph-0-1" x="24.21875" y="215.825195"/>
</g>
<g fill="rgb(30.196078%, 30.196078%, 30.196078%)" fill-opacity="1">
<use xlink:href="#glyph-0-4" x="19.21875" y="129.981445"/>
<use xlink:href="#glyph-0-1" x="24.21875" y="129.981445"/>
</g>
<g fill="rgb(30.196078%, 30.196078%, 30.196078%)" fill-opacity="1">
<use xlink:href="#glyph-0-5" x="19.21875" y="44.141602"/>
<use xlink:href="#glyph-0-1" x="24.21875" y="44.141602"/>
</g>
<g fill="rgb(30.196078%, 30.196078%, 30.196078%)" fill-opacity="1">
<use xlink:href="#glyph-1-1" x="22.652217" y="481.929561"/>
<use xlink:href="#glyph-1-2" x="25.480644" y="479.101133"/>
<use xlink:href="#glyph-1-3" x="28.309071" y="476.272706"/>
<use xlink:href="#glyph-1-4" x="32.551712" y="472.030066"/>
<use xlink:href="#glyph-1-5" x="36.087246" y="468.494532"/>
<use xlink:href="#glyph-1-6" x="41.036993" y="463.544784"/>
<use xlink:href="#glyph-1-7" x="44.572527" y="460.00925"/>
<use xlink:href="#glyph-1-8" x="48.108061" y="456.473716"/>
<use xlink:href="#glyph-1-9" x="51.643595" y="452.938183"/>
<use xlink:href="#glyph-1-10" x="53.057808" y="451.523969"/>
<use xlink:href="#glyph-1-6" x="55.886236" y="448.695542"/>
<use xlink:href="#glyph-1-11" x="59.421769" y="445.160008"/>
<use xlink:href="#glyph-1-12" x="64.371517" y="440.21026"/>
<use xlink:href="#glyph-1-13" x="67.907051" y="436.674727"/>
<use xlink:href="#glyph-1-14" x="70.028371" y="434.553406"/>
<use xlink:href="#glyph-1-12" x="73.563905" y="431.017872"/>
<use xlink:href="#glyph-1-15" x="77.099439" y="427.482338"/>
<use xlink:href="#glyph-1-16" x="80.634973" y="423.946805"/>
<use xlink:href="#glyph-1-17" x="82.049186" y="422.532591"/>
<use xlink:href="#glyph-1-12" x="85.58472" y="418.997057"/>
<use xlink:href="#glyph-1-15" x="89.120254" y="415.461523"/>
</g>
<g fill="rgb(30.196078%, 30.196078%, 30.196078%)" fill-opacity="1">
<use xlink:href="#glyph-1-18" x="110.542842" y="483.343623"/>
<use xlink:href="#glyph-1-19" x="114.785482" y="479.100982"/>
<use xlink:href="#glyph-1-20" x="119.028123" y="474.858342"/>
<use xlink:href="#glyph-1-6" x="123.270764" y="470.615701"/>
<use xlink:href="#glyph-1-1" x="126.806298" y="467.080167"/>
<use xlink:href="#glyph-1-2" x="129.634725" y="464.25174"/>
<use xlink:href="#glyph-1-3" x="132.463152" y="461.423313"/>
<use xlink:href="#glyph-1-4" x="136.705793" y="457.180672"/>
<use xlink:href="#glyph-1-5" x="140.241327" y="453.645138"/>
<use xlink:href="#glyph-1-6" x="145.191074" y="448.695391"/>
<use xlink:href="#glyph-1-11" x="148.726608" y="445.159857"/>
<use xlink:href="#glyph-1-12" x="153.676355" y="440.210109"/>
<use xlink:href="#glyph-1-13" x="157.211889" y="436.674576"/>
<use xlink:href="#glyph-1-14" x="159.33321" y="434.553255"/>
<use xlink:href="#glyph-1-12" x="162.868744" y="431.017721"/>
<use xlink:href="#glyph-1-15" x="166.404278" y="427.482187"/>
<use xlink:href="#glyph-1-16" x="169.939811" y="423.946653"/>
<use xlink:href="#glyph-1-17" x="171.354025" y="422.53244"/>
<use xlink:href="#glyph-1-12" x="174.889559" y="418.996906"/>
<use xlink:href="#glyph-1-15" x="178.425093" y="415.461372"/>
</g>
<g fill="rgb(30.196078%, 30.196078%, 30.196078%)" fill-opacity="1">
<use xlink:href="#glyph-1-1" x="216.105342" y="467.077998"/>
<use xlink:href="#glyph-1-2" x="218.933769" y="464.249571"/>
<use xlink:href="#glyph-1-3" x="221.762196" y="461.421144"/>
<use xlink:href="#glyph-1-4" x="226.004837" y="457.178503"/>
<use xlink:href="#glyph-1-5" x="229.540371" y="453.642969"/>
<use xlink:href="#glyph-1-6" x="234.490118" y="448.693222"/>
<use xlink:href="#glyph-1-11" x="238.025652" y="445.157688"/>
<use xlink:href="#glyph-1-12" x="242.975399" y="440.20794"/>
<use xlink:href="#glyph-1-13" x="246.510933" y="436.672406"/>
<use xlink:href="#glyph-1-14" x="248.632254" y="434.551086"/>
<use xlink:href="#glyph-1-12" x="252.167788" y="431.015552"/>
<use xlink:href="#glyph-1-15" x="255.703322" y="427.480018"/>
<use xlink:href="#glyph-1-16" x="259.238855" y="423.944484"/>
<use xlink:href="#glyph-1-17" x="260.653069" y="422.530271"/>
<use xlink:href="#glyph-1-12" x="264.188603" y="418.994737"/>
<use xlink:href="#glyph-1-15" x="267.724137" y="415.459203"/>
</g>
<g fill="rgb(30.196078%, 30.196078%, 30.196078%)" fill-opacity="1">
<use xlink:href="#glyph-1-18" x="311.062373" y="461.421748"/>
<use xlink:href="#glyph-1-19" x="315.305014" y="457.179107"/>
<use xlink:href="#glyph-1-20" x="319.547654" y="452.936467"/>
<use xlink:href="#glyph-1-6" x="323.790295" y="448.693826"/>
<use xlink:href="#glyph-1-11" x="327.325829" y="445.158292"/>
<use xlink:href="#glyph-1-12" x="332.275576" y="440.208545"/>
<use xlink:href="#glyph-1-13" x="335.81111" y="436.673011"/>
<use xlink:href="#glyph-1-14" x="337.932431" y="434.55169"/>
<use xlink:href="#glyph-1-12" x="341.467965" y="431.016156"/>
<use xlink:href="#glyph-1-15" x="345.003499" y="427.480623"/>
<use xlink:href="#glyph-1-16" x="348.539032" y="423.945089"/>
<use xlink:href="#glyph-1-17" x="349.953246" y="422.530875"/>
<use xlink:href="#glyph-1-12" x="353.48878" y="418.995341"/>
<use xlink:href="#glyph-1-15" x="357.024314" y="415.459807"/>
</g>
<g fill="rgb(30.196078%, 30.196078%, 30.196078%)" fill-opacity="1">
<use xlink:href="#glyph-1-18" x="385.519404" y="476.273311"/>
<use xlink:href="#glyph-1-19" x="389.762045" y="472.03067"/>
<use xlink:href="#glyph-1-20" x="394.004686" y="467.788029"/>
<use xlink:href="#glyph-1-6" x="398.247326" y="463.545388"/>
<use xlink:href="#glyph-1-7" x="401.78286" y="460.009855"/>
<use xlink:href="#glyph-1-8" x="405.318394" y="456.474321"/>
<use xlink:href="#glyph-1-9" x="408.853928" y="452.938787"/>
<use xlink:href="#glyph-1-10" x="410.268142" y="451.524573"/>
<use xlink:href="#glyph-1-6" x="413.096569" y="448.696146"/>
<use xlink:href="#glyph-1-11" x="416.632103" y="445.160612"/>
<use xlink:href="#glyph-1-12" x="421.58185" y="440.210865"/>
<use xlink:href="#glyph-1-13" x="425.117384" y="436.675331"/>
<use xlink:href="#glyph-1-14" x="427.238704" y="434.55401"/>
<use xlink:href="#glyph-1-12" x="430.774238" y="431.018477"/>
<use xlink:href="#glyph-1-15" x="434.309772" y="427.482943"/>
<use xlink:href="#glyph-1-16" x="437.845306" y="423.947409"/>
<use xlink:href="#glyph-1-17" x="439.25952" y="422.533195"/>
<use xlink:href="#glyph-1-12" x="442.795054" y="418.997661"/>
<use xlink:href="#glyph-1-15" x="446.330587" y="415.462127"/>
</g>
<g fill="rgb(0%, 0%, 0%)" fill-opacity="1">
<use xlink:href="#glyph-2-1" x="220.335938" y="495.477539"/>
<use xlink:href="#glyph-2-2" x="228.335938" y="495.477539"/>
<use xlink:href="#glyph-2-3" x="234.335938" y="495.477539"/>
<use xlink:href="#glyph-2-4" x="240.335938" y="495.477539"/>
<use xlink:href="#glyph-2-5" x="246.335938" y="495.477539"/>
<use xlink:href="#glyph-2-6" x="248.335938" y="495.477539"/>
<use xlink:href="#glyph-2-7" x="254.335938" y="495.477539"/>
<use xlink:href="#glyph-2-8" x="257.335938" y="495.477539"/>
<use xlink:href="#glyph-2-9" x="263.335938" y="495.477539"/>
<use xlink:href="#glyph-2-10" x="267.335938" y="495.477539"/>
<use xlink:href="#glyph-2-11" x="273.335938" y="495.477539"/>
<use xlink:href="#glyph-2-9" x="276.335938" y="495.477539"/>
<use xlink:href="#glyph-2-2" x="280.335938" y="495.477539"/>
<use xlink:href="#glyph-2-3" x="286.335938" y="495.477539"/>
<use xlink:href="#glyph-2-12" x="292.335938" y="495.477539"/>
<use xlink:href="#glyph-2-8" x="294.335938" y="495.477539"/>
<use xlink:href="#glyph-2-13" x="300.335938" y="495.477539"/>
<use xlink:href="#glyph-2-14" x="306.335938" y="495.477539"/>
</g>
<g fill="rgb(0%, 0%, 0%)" fill-opacity="1">
<use xlink:href="#glyph-3-1" x="13.438477" y="277.773438"/>
<use xlink:href="#glyph-3-2" x="13.438477" y="271.773438"/>
<use xlink:href="#glyph-3-3" x="13.438477" y="265.773438"/>
<use xlink:href="#glyph-3-4" x="13.438477" y="256.773438"/>
<use xlink:href="#glyph-3-5" x="13.438477" y="252.773438"/>
<use xlink:href="#glyph-3-6" x="13.438477" y="245.773438"/>
<use xlink:href="#glyph-3-5" x="13.438477" y="242.773438"/>
<use xlink:href="#glyph-3-7" x="13.438477" y="235.773438"/>
<use xlink:href="#glyph-3-8" x="13.438477" y="231.773438"/>
<use xlink:href="#glyph-3-9" x="13.438477" y="228.773438"/>
<use xlink:href="#glyph-3-8" x="13.438477" y="225.773438"/>
<use xlink:href="#glyph-3-10" x="13.438477" y="222.773438"/>
<use xlink:href="#glyph-3-11" x="13.438477" y="213.773438"/>
<use xlink:href="#glyph-3-12" x="13.438477" y="207.773438"/>
<use xlink:href="#glyph-3-13" x="13.438477" y="201.773438"/>
<use xlink:href="#glyph-3-3" x="13.438477" y="195.773438"/>
<use xlink:href="#glyph-3-11" x="13.438477" y="186.773438"/>
<use xlink:href="#glyph-3-8" x="13.438477" y="180.773438"/>
<use xlink:href="#glyph-3-14" x="13.438477" y="177.773438"/>
<use xlink:href="#glyph-3-13" x="13.438477" y="169.773438"/>
<use xlink:href="#glyph-3-15" x="13.438477" y="163.773438"/>
<use xlink:href="#glyph-3-11" x="13.438477" y="157.773438"/>
<use xlink:href="#glyph-3-16" x="13.438477" y="151.773438"/>
<use xlink:href="#glyph-3-17" x="13.438477" y="147.773438"/>
<use xlink:href="#glyph-3-18" x="13.438477" y="141.773438"/>
<use xlink:href="#glyph-3-11" x="13.438477" y="135.773438"/>
</g>
</svg>
