<?xml version="1.0" encoding="UTF-8"?>
<svg xmlns="http://www.w3.org/2000/svg" xmlns:xlink="http://www.w3.org/1999/xlink" width="504" height="504" viewBox="0 0 504 504">
<defs>
<g>
<g id="glyph-0-0">
<path d="M 0.875 -6.046875 L 5.71875 -6.046875 L 5.71875 0 L 0.875 0 Z M 1.203125 -5.71875 L 1.203125 -0.328125 L 5.390625 -0.328125 L 5.390625 -5.71875 Z M 1.203125 -5.71875 "/>
</g>
<g id="glyph-0-1">
<path d="M 4.515625 -2.34375 C 4.515625 -0.726562 3.945312 0.078125 2.8125 0.078125 C 2.457031 0.078125 2.160156 0.0117188 1.921875 -0.109375 C 1.691406 -0.234375 1.503906 -0.4375 1.359375 -0.71875 C 1.359375 -0.632812 1.351562 -0.5 1.34375 -0.3125 C 1.332031 -0.132812 1.320312 -0.03125 1.3125 0 L 0.5625 0 C 0.582031 -0.15625 0.59375 -0.472656 0.59375 -0.953125 L 0.59375 -6.375 L 1.359375 -6.375 L 1.359375 -4.5625 C 1.359375 -4.375 1.351562 -4.15625 1.34375 -3.90625 L 1.359375 -3.90625 C 1.503906 -4.195312 1.695312 -4.40625 1.9375 -4.53125 C 2.175781 -4.664062 2.46875 -4.734375 2.8125 -4.734375 C 3.394531 -4.734375 3.820312 -4.535156 4.09375 -4.140625 C 4.375 -3.742188 4.515625 -3.144531 4.515625 -2.34375 Z M 3.71875 -2.3125 C 3.71875 -2.96875 3.628906 -3.4375 3.453125 -3.71875 C 3.285156 -4 3.003906 -4.140625 2.609375 -4.140625 C 2.179688 -4.140625 1.863281 -3.988281 1.65625 -3.6875 C 1.457031 -3.394531 1.359375 -2.921875 1.359375 -2.265625 C 1.359375 -1.660156 1.457031 -1.210938 1.65625 -0.921875 C 1.851562 -0.628906 2.171875 -0.484375 2.609375 -0.484375 C 2.992188 -0.484375 3.273438 -0.625 3.453125 -0.90625 C 3.628906 -1.195312 3.71875 -1.664062 3.71875 -2.3125 Z M 3.71875 -2.3125 "/>
</g>
<g id="glyph-0-2">
<path d="M 1.34375 -4.640625 L 1.34375 -1.703125 C 1.34375 -1.390625 1.375 -1.148438 1.4375 -0.984375 C 1.5 -0.816406 1.59375 -0.695312 1.71875 -0.625 C 1.851562 -0.550781 2.050781 -0.515625 2.3125 -0.515625 C 2.675781 -0.515625 2.96875 -0.640625 3.1875 -0.890625 C 3.40625 -1.148438 3.515625 -1.503906 3.515625 -1.953125 L 3.515625 -4.640625 L 4.28125 -4.640625 L 4.28125 -1 C 4.28125 -0.457031 4.289062 -0.125 4.3125 0 L 3.578125 0 C 3.578125 -0.0078125 3.570312 -0.046875 3.5625 -0.109375 C 3.5625 -0.171875 3.554688 -0.242188 3.546875 -0.328125 C 3.546875 -0.410156 3.546875 -0.566406 3.546875 -0.796875 L 3.53125 -0.796875 C 3.351562 -0.472656 3.144531 -0.242188 2.90625 -0.109375 C 2.675781 0.0117188 2.390625 0.078125 2.046875 0.078125 C 1.535156 0.078125 1.160156 -0.046875 0.921875 -0.296875 C 0.691406 -0.546875 0.578125 -0.960938 0.578125 -1.546875 L 0.578125 -4.640625 Z M 1.34375 -4.640625 "/>
</g>
<g id="glyph-0-3">
<path d="M 0.59375 0 L 0.59375 -6.375 L 1.359375 -6.375 L 1.359375 0 Z M 0.59375 0 "/>
</g>
<g id="glyph-0-4">
<path d="M 3.5 0 L 1.9375 -2.125 L 1.359375 -1.65625 L 1.359375 0 L 0.59375 0 L 0.59375 -6.375 L 1.359375 -6.375 L 1.359375 -2.390625 L 3.40625 -4.640625 L 4.3125 -4.640625 L 2.421875 -2.65625 L 4.40625 0 Z M 3.5 0 "/>
</g>
<g id="glyph-0-5">
<path d="M 0.390625 -2 L 0.390625 -2.6875 L 2.53125 -2.6875 L 2.53125 -2 Z M 0.390625 -2 "/>
</g>
<g id="glyph-0-6">
<path d="M 4.515625 -2.328125 C 4.515625 -1.515625 4.335938 -0.910156 3.984375 -0.515625 C 3.628906 -0.117188 3.109375 0.078125 2.421875 0.078125 C 1.742188 0.078125 1.234375 -0.125 0.890625 -0.53125 C 0.546875 -0.945312 0.375 -1.546875 0.375 -2.328125 C 0.375 -3.929688 1.066406 -4.734375 2.453125 -4.734375 C 3.160156 -4.734375 3.679688 -4.535156 4.015625 -4.140625 C 4.347656 -3.753906 4.515625 -3.148438 4.515625 -2.328125 Z M 3.71875 -2.328125 C 3.71875 -2.972656 3.617188 -3.4375 3.421875 -3.71875 C 3.234375 -4.007812 2.914062 -4.15625 2.46875 -4.15625 C 2.007812 -4.15625 1.679688 -4.003906 1.484375 -3.703125 C 1.285156 -3.410156 1.1875 -2.953125 1.1875 -2.328125 C 1.1875 -1.710938 1.285156 -1.25 1.484375 -0.9375 C 1.679688 -0.632812 1.992188 -0.484375 2.421875 -0.484375 C 2.878906 -0.484375 3.207031 -0.628906 3.40625 -0.921875 C 3.613281 -1.222656 3.71875 -1.691406 3.71875 -2.328125 Z M 3.71875 -2.328125 "/>
</g>
<g id="glyph-0-7">
<path d="M 3.546875 0 L 3.546875 -2.953125 C 3.546875 -3.253906 3.515625 -3.488281 3.453125 -3.65625 C 3.390625 -3.820312 3.289062 -3.941406 3.15625 -4.015625 C 3.03125 -4.097656 2.835938 -4.140625 2.578125 -4.140625 C 2.210938 -4.140625 1.921875 -4.007812 1.703125 -3.75 C 1.492188 -3.5 1.390625 -3.144531 1.390625 -2.6875 L 1.390625 0 L 0.609375 0 L 0.609375 -3.65625 C 0.609375 -4.195312 0.597656 -4.523438 0.578125 -4.640625 L 1.3125 -4.640625 C 1.3125 -4.628906 1.3125 -4.59375 1.3125 -4.53125 C 1.320312 -4.46875 1.328125 -4.394531 1.328125 -4.3125 C 1.335938 -4.226562 1.34375 -4.078125 1.34375 -3.859375 L 1.359375 -3.859375 C 1.535156 -4.171875 1.738281 -4.394531 1.96875 -4.53125 C 2.207031 -4.664062 2.5 -4.734375 2.84375 -4.734375 C 3.351562 -4.734375 3.726562 -4.601562 3.96875 -4.34375 C 4.207031 -4.09375 4.328125 -3.675781 4.328125 -3.09375 L 4.328125 0 Z M 3.546875 0 "/>
</g>
<g id="glyph-0-8">
<path d="M 0.828125 1.828125 C 0.609375 1.828125 0.425781 1.8125 0.28125 1.78125 L 0.28125 1.203125 C 0.394531 1.210938 0.519531 1.21875 0.65625 1.21875 C 1.132812 1.21875 1.515625 0.863281 1.796875 0.15625 L 1.859375 -0.015625 L 0.015625 -4.640625 L 0.84375 -4.640625 L 1.828125 -2.078125 C 1.835938 -2.035156 1.851562 -1.984375 1.875 -1.921875 C 1.894531 -1.867188 1.957031 -1.679688 2.0625 -1.359375 C 2.175781 -1.046875 2.238281 -0.875 2.25 -0.84375 L 2.546875 -1.6875 L 3.5625 -4.640625 L 4.375 -4.640625 L 2.59375 0 C 2.40625 0.5 2.226562 0.867188 2.0625 1.109375 C 1.894531 1.347656 1.707031 1.523438 1.5 1.640625 C 1.300781 1.765625 1.078125 1.828125 0.828125 1.828125 Z M 0.828125 1.828125 "/>
</g>
<g id="glyph-0-9">
</g>
<g id="glyph-0-10">
<path d="M 5.9375 -3.09375 C 5.9375 -2.46875 5.8125 -1.921875 5.5625 -1.453125 C 5.320312 -0.984375 4.976562 -0.625 4.53125 -0.375 C 4.082031 -0.125 3.566406 0 2.984375 0 L 0.71875 0 L 0.71875 -6.046875 L 2.71875 -6.046875 C 3.75 -6.046875 4.539062 -5.789062 5.09375 -5.28125 C 5.65625 -4.769531 5.9375 -4.039062 5.9375 -3.09375 Z M 5.109375 -3.09375 C 5.109375 -3.84375 4.898438 -4.410156 4.484375 -4.796875 C 4.078125 -5.191406 3.484375 -5.390625 2.703125 -5.390625 L 1.546875 -5.390625 L 1.546875 -0.65625 L 2.890625 -0.65625 C 3.335938 -0.65625 3.726562 -0.75 4.0625 -0.9375 C 4.394531 -1.132812 4.648438 -1.414062 4.828125 -1.78125 C 5.015625 -2.15625 5.109375 -2.59375 5.109375 -3.09375 Z M 5.109375 -3.09375 "/>
</g>
<g id="glyph-0-11">
<path d="M 6.421875 -3.046875 C 6.421875 -2.421875 6.300781 -1.867188 6.0625 -1.390625 C 5.820312 -0.910156 5.472656 -0.546875 5.015625 -0.296875 C 4.566406 -0.046875 4.035156 0.078125 3.421875 0.078125 C 2.796875 0.078125 2.253906 -0.046875 1.796875 -0.296875 C 1.347656 -0.546875 1.003906 -0.90625 0.765625 -1.375 C 0.535156 -1.851562 0.421875 -2.410156 0.421875 -3.046875 C 0.421875 -4.015625 0.679688 -4.769531 1.203125 -5.3125 C 1.734375 -5.863281 2.472656 -6.140625 3.421875 -6.140625 C 4.035156 -6.140625 4.566406 -6.015625 5.015625 -5.765625 C 5.472656 -5.523438 5.820312 -5.171875 6.0625 -4.703125 C 6.300781 -4.234375 6.421875 -3.679688 6.421875 -3.046875 Z M 5.578125 -3.046875 C 5.578125 -3.804688 5.390625 -4.398438 5.015625 -4.828125 C 4.640625 -5.253906 4.109375 -5.46875 3.421875 -5.46875 C 2.734375 -5.46875 2.195312 -5.253906 1.8125 -4.828125 C 1.4375 -4.410156 1.25 -3.816406 1.25 -3.046875 C 1.25 -2.296875 1.4375 -1.695312 1.8125 -1.25 C 2.195312 -0.800781 2.734375 -0.578125 3.421875 -0.578125 C 4.117188 -0.578125 4.648438 -0.789062 5.015625 -1.21875 C 5.390625 -1.65625 5.578125 -2.265625 5.578125 -3.046875 Z M 5.578125 -3.046875 "/>
</g>
<g id="glyph-0-12">
<path d="M 5.40625 -4.234375 C 5.40625 -3.660156 5.21875 -3.203125 4.84375 -2.859375 C 4.46875 -2.523438 3.957031 -2.359375 3.3125 -2.359375 L 1.546875 -2.359375 L 1.546875 0 L 0.71875 0 L 0.71875 -6.046875 L 3.265625 -6.046875 C 3.941406 -6.046875 4.46875 -5.882812 4.84375 -5.5625 C 5.21875 -5.25 5.40625 -4.804688 5.40625 -4.234375 Z M 4.578125 -4.21875 C 4.578125 -5 4.109375 -5.390625 3.171875 -5.390625 L 1.546875 -5.390625 L 1.546875 -3 L 3.203125 -3 C 4.117188 -3 4.578125 -3.40625 4.578125 -4.21875 Z M 4.578125 -4.21875 "/>
</g>
<g id="glyph-0-13">
<path d="M 4.078125 -1.28125 C 4.078125 -0.84375 3.910156 -0.503906 3.578125 -0.265625 C 3.253906 -0.0351562 2.789062 0.078125 2.1875 0.078125 C 1.613281 0.078125 1.171875 -0.015625 0.859375 -0.203125 C 0.546875 -0.390625 0.34375 -0.6875 0.25 -1.09375 L 0.921875 -1.21875 C 0.992188 -0.96875 1.128906 -0.785156 1.328125 -0.671875 C 1.535156 -0.554688 1.820312 -0.5 2.1875 -0.5 C 2.582031 -0.5 2.867188 -0.554688 3.046875 -0.671875 C 3.234375 -0.796875 3.328125 -0.976562 3.328125 -1.21875 C 3.328125 -1.40625 3.265625 -1.554688 3.140625 -1.671875 C 3.015625 -1.785156 2.8125 -1.878906 2.53125 -1.953125 L 1.96875 -2.09375 C 1.53125 -2.207031 1.21875 -2.320312 1.03125 -2.4375 C 0.84375 -2.550781 0.691406 -2.6875 0.578125 -2.84375 C 0.472656 -3 0.421875 -3.191406 0.421875 -3.421875 C 0.421875 -3.847656 0.570312 -4.171875 0.875 -4.390625 C 1.175781 -4.609375 1.617188 -4.71875 2.203125 -4.71875 C 2.710938 -4.71875 3.117188 -4.625 3.421875 -4.4375 C 3.722656 -4.257812 3.914062 -3.972656 4 -3.578125 L 3.296875 -3.5 C 3.253906 -3.707031 3.140625 -3.863281 2.953125 -3.96875 C 2.765625 -4.082031 2.515625 -4.140625 2.203125 -4.140625 C 1.847656 -4.140625 1.585938 -4.082031 1.421875 -3.96875 C 1.265625 -3.863281 1.1875 -3.707031 1.1875 -3.5 C 1.1875 -3.363281 1.21875 -3.253906 1.28125 -3.171875 C 1.351562 -3.085938 1.457031 -3.015625 1.59375 -2.953125 C 1.726562 -2.890625 2.007812 -2.804688 2.4375 -2.703125 C 2.84375 -2.597656 3.132812 -2.5 3.3125 -2.40625 C 3.5 -2.320312 3.644531 -2.226562 3.75 -2.125 C 3.851562 -2.019531 3.929688 -1.894531 3.984375 -1.75 C 4.046875 -1.613281 4.078125 -1.457031 4.078125 -1.28125 Z M 4.078125 -1.28125 "/>
</g>
<g id="glyph-0-14">
<path d="M 1.1875 -2.34375 C 1.1875 -1.726562 1.28125 -1.269531 1.46875 -0.96875 C 1.664062 -0.675781 1.960938 -0.53125 2.359375 -0.53125 C 2.628906 -0.53125 2.851562 -0.601562 3.03125 -0.75 C 3.21875 -0.894531 3.335938 -1.125 3.390625 -1.4375 L 4.171875 -1.390625 C 4.109375 -0.941406 3.914062 -0.582031 3.59375 -0.3125 C 3.269531 -0.0507812 2.863281 0.078125 2.375 0.078125 C 1.726562 0.078125 1.234375 -0.125 0.890625 -0.53125 C 0.546875 -0.9375 0.375 -1.535156 0.375 -2.328125 C 0.375 -3.109375 0.546875 -3.703125 0.890625 -4.109375 C 1.234375 -4.523438 1.722656 -4.734375 2.359375 -4.734375 C 2.835938 -4.734375 3.234375 -4.609375 3.546875 -4.359375 C 3.859375 -4.117188 4.054688 -3.78125 4.140625 -3.34375 L 3.34375 -3.28125 C 3.300781 -3.539062 3.195312 -3.742188 3.03125 -3.890625 C 2.875 -4.046875 2.644531 -4.125 2.34375 -4.125 C 1.9375 -4.125 1.640625 -3.988281 1.453125 -3.71875 C 1.273438 -3.445312 1.1875 -2.988281 1.1875 -2.34375 Z M 1.1875 -2.34375 "/>
</g>
<g id="glyph-0-15">
<path d="M 4.546875 -3.03125 C 4.546875 -2.019531 4.367188 -1.25 4.015625 -0.71875 C 3.660156 -0.1875 3.132812 0.078125 2.4375 0.078125 C 1.738281 0.078125 1.210938 -0.179688 0.859375 -0.703125 C 0.515625 -1.234375 0.34375 -2.007812 0.34375 -3.03125 C 0.34375 -4.070312 0.507812 -4.847656 0.84375 -5.359375 C 1.1875 -5.878906 1.726562 -6.140625 2.46875 -6.140625 C 3.175781 -6.140625 3.695312 -5.875 4.03125 -5.34375 C 4.375 -4.820312 4.546875 -4.050781 4.546875 -3.03125 Z M 3.765625 -3.03125 C 3.765625 -3.90625 3.660156 -4.535156 3.453125 -4.921875 C 3.253906 -5.316406 2.925781 -5.515625 2.46875 -5.515625 C 1.988281 -5.515625 1.644531 -5.320312 1.4375 -4.9375 C 1.226562 -4.550781 1.125 -3.914062 1.125 -3.03125 C 1.125 -2.164062 1.226562 -1.535156 1.4375 -1.140625 C 1.644531 -0.742188 1.976562 -0.546875 2.4375 -0.546875 C 2.894531 -0.546875 3.226562 -0.75 3.4375 -1.15625 C 3.65625 -1.5625 3.765625 -2.1875 3.765625 -3.03125 Z M 3.765625 -3.03125 "/>
</g>
<g id="glyph-0-16">
<path d="M 0.796875 0 L 0.796875 -0.9375 L 1.640625 -0.9375 L 1.640625 0 Z M 0.796875 0 "/>
</g>
<g id="glyph-0-17">
<path d="M 0.4375 0 L 0.4375 -0.546875 C 0.582031 -0.878906 0.757812 -1.171875 0.96875 -1.421875 C 1.1875 -1.679688 1.410156 -1.914062 1.640625 -2.125 C 1.867188 -2.332031 2.097656 -2.523438 2.328125 -2.703125 C 2.554688 -2.878906 2.757812 -3.054688 2.9375 -3.234375 C 3.125 -3.410156 3.273438 -3.597656 3.390625 -3.796875 C 3.503906 -3.992188 3.5625 -4.210938 3.5625 -4.453125 C 3.5625 -4.785156 3.460938 -5.039062 3.265625 -5.21875 C 3.078125 -5.40625 2.804688 -5.5 2.453125 -5.5 C 2.128906 -5.5 1.859375 -5.410156 1.640625 -5.234375 C 1.429688 -5.054688 1.304688 -4.804688 1.265625 -4.484375 L 0.484375 -4.5625 C 0.535156 -5.039062 0.738281 -5.421875 1.09375 -5.703125 C 1.445312 -5.992188 1.898438 -6.140625 2.453125 -6.140625 C 3.066406 -6.140625 3.535156 -5.992188 3.859375 -5.703125 C 4.191406 -5.421875 4.359375 -5.015625 4.359375 -4.484375 C 4.359375 -4.242188 4.300781 -4.007812 4.1875 -3.78125 C 4.082031 -3.550781 3.921875 -3.316406 3.703125 -3.078125 C 3.492188 -2.847656 3.09375 -2.492188 2.5 -2.015625 C 2.164062 -1.742188 1.898438 -1.5 1.703125 -1.28125 C 1.515625 -1.0625 1.378906 -0.851562 1.296875 -0.65625 L 4.453125 -0.65625 L 4.453125 0 Z M 0.4375 0 "/>
</g>
<g id="glyph-0-18">
<path d="M 4.515625 -1.96875 C 4.515625 -1.332031 4.328125 -0.832031 3.953125 -0.46875 C 3.578125 -0.101562 3.050781 0.078125 2.375 0.078125 C 1.8125 0.078125 1.351562 -0.0390625 1 -0.28125 C 0.65625 -0.53125 0.441406 -0.890625 0.359375 -1.359375 L 1.140625 -1.4375 C 1.296875 -0.84375 1.710938 -0.546875 2.390625 -0.546875 C 2.804688 -0.546875 3.128906 -0.671875 3.359375 -0.921875 C 3.597656 -1.171875 3.71875 -1.515625 3.71875 -1.953125 C 3.71875 -2.335938 3.597656 -2.644531 3.359375 -2.875 C 3.128906 -3.113281 2.8125 -3.234375 2.40625 -3.234375 C 2.195312 -3.234375 2.003906 -3.195312 1.828125 -3.125 C 1.648438 -3.0625 1.46875 -2.953125 1.28125 -2.796875 L 0.53125 -2.796875 L 0.734375 -6.046875 L 4.171875 -6.046875 L 4.171875 -5.390625 L 1.4375 -5.390625 L 1.3125 -3.46875 C 1.65625 -3.726562 2.070312 -3.859375 2.5625 -3.859375 C 3.164062 -3.859375 3.640625 -3.679688 3.984375 -3.328125 C 4.335938 -2.984375 4.515625 -2.53125 4.515625 -1.96875 Z M 4.515625 -1.96875 "/>
</g>
<g id="glyph-0-19">
<path d="M 4.453125 -5.421875 C 3.828125 -4.472656 3.382812 -3.734375 3.125 -3.203125 C 2.875 -2.671875 2.6875 -2.144531 2.5625 -1.625 C 2.4375 -1.101562 2.375 -0.5625 2.375 0 L 1.5625 0 C 1.5625 -0.769531 1.722656 -1.582031 2.046875 -2.4375 C 2.378906 -3.289062 2.929688 -4.273438 3.703125 -5.390625 L 0.453125 -5.390625 L 0.453125 -6.046875 L 4.453125 -6.046875 Z M 4.453125 -5.421875 "/>
</g>
<g id="glyph-0-20">
<path d="M 0.671875 0 L 0.671875 -0.65625 L 2.21875 -0.65625 L 2.21875 -5.3125 L 0.84375 -4.34375 L 0.84375 -5.0625 L 2.28125 -6.046875 L 2.984375 -6.046875 L 2.984375 -0.65625 L 4.46875 -0.65625 L 4.46875 0 Z M 0.671875 0 "/>
</g>
<g id="glyph-1-0">
<path d="M 1.09375 -7.5625 L 7.140625 -7.5625 L 7.140625 0 L 1.09375 0 Z M 1.515625 -7.15625 L 1.515625 -0.40625 L 6.734375 -0.40625 L 6.734375 -7.15625 Z M 1.515625 -7.15625 "/>
</g>
<g id="glyph-1-1">
<path d="M 0.734375 0 L 0.734375 -7.96875 L 1.703125 -7.96875 L 1.703125 0 Z M 0.734375 0 "/>
</g>
<g id="glyph-1-2">
<path d="M 5.65625 -2.90625 C 5.65625 -1.894531 5.429688 -1.140625 4.984375 -0.640625 C 4.535156 -0.140625 3.882812 0.109375 3.03125 0.109375 C 2.1875 0.109375 1.546875 -0.144531 1.109375 -0.65625 C 0.679688 -1.175781 0.46875 -1.925781 0.46875 -2.90625 C 0.46875 -4.914062 1.332031 -5.921875 3.0625 -5.921875 C 3.957031 -5.921875 4.613281 -5.675781 5.03125 -5.1875 C 5.445312 -4.695312 5.65625 -3.9375 5.65625 -2.90625 Z M 4.640625 -2.90625 C 4.640625 -3.707031 4.519531 -4.289062 4.28125 -4.65625 C 4.039062 -5.019531 3.640625 -5.203125 3.078125 -5.203125 C 2.515625 -5.203125 2.109375 -5.015625 1.859375 -4.640625 C 1.609375 -4.273438 1.484375 -3.695312 1.484375 -2.90625 C 1.484375 -2.144531 1.601562 -1.570312 1.84375 -1.1875 C 2.09375 -0.800781 2.488281 -0.609375 3.03125 -0.609375 C 3.601562 -0.609375 4.015625 -0.789062 4.265625 -1.15625 C 4.515625 -1.53125 4.640625 -2.113281 4.640625 -2.90625 Z M 4.640625 -2.90625 "/>
</g>
<g id="glyph-1-3">
<path d="M 2.9375 2.28125 C 2.3125 2.28125 1.804688 2.15625 1.421875 1.90625 C 1.046875 1.65625 0.804688 1.300781 0.703125 0.84375 L 1.671875 0.703125 C 1.734375 0.972656 1.875 1.179688 2.09375 1.328125 C 2.320312 1.472656 2.613281 1.546875 2.96875 1.546875 C 3.9375 1.546875 4.421875 0.980469 4.421875 -0.140625 L 4.421875 -1.078125 L 4.40625 -1.078125 C 4.21875 -0.703125 3.960938 -0.421875 3.640625 -0.234375 C 3.328125 -0.046875 2.957031 0.046875 2.53125 0.046875 C 1.820312 0.046875 1.300781 -0.1875 0.96875 -0.65625 C 0.632812 -1.132812 0.46875 -1.878906 0.46875 -2.890625 C 0.46875 -3.921875 0.644531 -4.679688 1 -5.171875 C 1.363281 -5.660156 1.910156 -5.90625 2.640625 -5.90625 C 3.054688 -5.90625 3.414062 -5.8125 3.71875 -5.625 C 4.019531 -5.4375 4.253906 -5.164062 4.421875 -4.8125 C 4.421875 -4.925781 4.425781 -5.113281 4.4375 -5.375 C 4.457031 -5.644531 4.472656 -5.789062 4.484375 -5.8125 L 5.40625 -5.8125 C 5.382812 -5.613281 5.375 -5.210938 5.375 -4.609375 L 5.375 -0.171875 C 5.375 1.460938 4.5625 2.28125 2.9375 2.28125 Z M 4.421875 -2.90625 C 4.421875 -3.375 4.351562 -3.78125 4.21875 -4.125 C 4.09375 -4.46875 3.910156 -4.726562 3.671875 -4.90625 C 3.441406 -5.09375 3.175781 -5.1875 2.875 -5.1875 C 2.382812 -5.1875 2.023438 -5.003906 1.796875 -4.640625 C 1.578125 -4.285156 1.46875 -3.707031 1.46875 -2.90625 C 1.46875 -2.113281 1.570312 -1.539062 1.78125 -1.1875 C 1.988281 -0.84375 2.347656 -0.671875 2.859375 -0.671875 C 3.160156 -0.671875 3.429688 -0.757812 3.671875 -0.9375 C 3.910156 -1.113281 4.09375 -1.367188 4.21875 -1.703125 C 4.351562 -2.046875 4.421875 -2.445312 4.421875 -2.90625 Z M 4.421875 -2.90625 "/>
</g>
<g id="glyph-1-4">
<path d="M 0.84375 0 L 0.84375 -0.828125 L 2.765625 -0.828125 L 2.765625 -6.640625 L 1.0625 -5.421875 L 1.0625 -6.34375 L 2.84375 -7.5625 L 3.734375 -7.5625 L 3.734375 -0.828125 L 5.578125 -0.828125 L 5.578125 0 Z M 0.84375 0 "/>
</g>
<g id="glyph-1-5">
<path d="M 5.6875 -3.78125 C 5.6875 -2.519531 5.460938 -1.554688 5.015625 -0.890625 C 4.566406 -0.222656 3.910156 0.109375 3.046875 0.109375 C 2.171875 0.109375 1.515625 -0.21875 1.078125 -0.875 C 0.648438 -1.539062 0.4375 -2.507812 0.4375 -3.78125 C 0.4375 -5.082031 0.644531 -6.054688 1.0625 -6.703125 C 1.488281 -7.359375 2.160156 -7.6875 3.078125 -7.6875 C 3.972656 -7.6875 4.628906 -7.359375 5.046875 -6.703125 C 5.472656 -6.046875 5.6875 -5.070312 5.6875 -3.78125 Z M 4.703125 -3.78125 C 4.703125 -4.875 4.578125 -5.664062 4.328125 -6.15625 C 4.078125 -6.644531 3.660156 -6.890625 3.078125 -6.890625 C 2.484375 -6.890625 2.054688 -6.648438 1.796875 -6.171875 C 1.535156 -5.691406 1.40625 -4.894531 1.40625 -3.78125 C 1.40625 -2.707031 1.535156 -1.921875 1.796875 -1.421875 C 2.066406 -0.929688 2.488281 -0.6875 3.0625 -0.6875 C 3.625 -0.6875 4.035156 -0.9375 4.296875 -1.4375 C 4.566406 -1.945312 4.703125 -2.726562 4.703125 -3.78125 Z M 4.703125 -3.78125 "/>
</g>
<g id="glyph-1-6">
<path d="M 1.921875 -6.734375 L 1.921875 -3.921875 L 6.15625 -3.921875 L 6.15625 -3.0625 L 1.921875 -3.0625 L 1.921875 0 L 0.90625 0 L 0.90625 -7.5625 L 6.28125 -7.5625 L 6.28125 -6.734375 Z M 1.921875 -6.734375 "/>
</g>
<g id="glyph-1-7">
<path d="M 4.25 -6.84375 C 3.414062 -6.84375 2.765625 -6.570312 2.296875 -6.03125 C 1.828125 -5.488281 1.59375 -4.75 1.59375 -3.8125 C 1.59375 -2.882812 1.835938 -2.140625 2.328125 -1.578125 C 2.816406 -1.015625 3.472656 -0.734375 4.296875 -0.734375 C 5.359375 -0.734375 6.15625 -1.257812 6.6875 -2.3125 L 7.53125 -1.890625 C 7.21875 -1.234375 6.773438 -0.734375 6.203125 -0.390625 C 5.640625 -0.0546875 4.988281 0.109375 4.25 0.109375 C 3.488281 0.109375 2.828125 -0.046875 2.265625 -0.359375 C 1.710938 -0.679688 1.289062 -1.132812 1 -1.71875 C 0.707031 -2.3125 0.5625 -3.007812 0.5625 -3.8125 C 0.5625 -5.019531 0.882812 -5.96875 1.53125 -6.65625 C 2.1875 -7.34375 3.09375 -7.6875 4.25 -7.6875 C 5.050781 -7.6875 5.722656 -7.523438 6.265625 -7.203125 C 6.804688 -6.890625 7.203125 -6.425781 7.453125 -5.8125 L 6.484375 -5.484375 C 6.304688 -5.921875 6.019531 -6.253906 5.625 -6.484375 C 5.238281 -6.722656 4.78125 -6.84375 4.25 -6.84375 Z M 4.25 -6.84375 "/>
</g>
<g id="glyph-1-8">
</g>
<g id="glyph-1-9">
<path d="M 2.0625 -1.109375 L 2.0625 -0.28125 C 2.0625 0.101562 2.023438 0.421875 1.953125 0.671875 C 1.890625 0.929688 1.789062 1.175781 1.65625 1.40625 L 0.984375 1.40625 C 1.328125 0.914062 1.5 0.445312 1.5 0 L 1.015625 0 L 1.015625 -1.109375 Z M 1.015625 -4.703125 L 1.015625 -5.8125 L 2.0625 -5.8125 L 2.0625 -4.703125 Z M 1.015625 -4.703125 "/>
</g>
<g id="glyph-1-10">
<path d="M 5.109375 -1.609375 C 5.109375 -1.054688 4.898438 -0.628906 4.484375 -0.328125 C 4.066406 -0.0351562 3.488281 0.109375 2.75 0.109375 C 2.019531 0.109375 1.457031 -0.0078125 1.0625 -0.25 C 0.675781 -0.488281 0.425781 -0.859375 0.3125 -1.359375 L 1.15625 -1.53125 C 1.238281 -1.21875 1.410156 -0.988281 1.671875 -0.84375 C 1.929688 -0.695312 2.289062 -0.625 2.75 -0.625 C 3.238281 -0.625 3.59375 -0.695312 3.8125 -0.84375 C 4.039062 -1 4.15625 -1.226562 4.15625 -1.53125 C 4.15625 -1.757812 4.078125 -1.941406 3.921875 -2.078125 C 3.765625 -2.222656 3.507812 -2.34375 3.15625 -2.4375 L 2.46875 -2.625 C 1.914062 -2.769531 1.519531 -2.910156 1.28125 -3.046875 C 1.050781 -3.179688 0.867188 -3.347656 0.734375 -3.546875 C 0.597656 -3.742188 0.53125 -3.988281 0.53125 -4.28125 C 0.53125 -4.8125 0.71875 -5.210938 1.09375 -5.484375 C 1.476562 -5.765625 2.03125 -5.90625 2.75 -5.90625 C 3.394531 -5.90625 3.90625 -5.789062 4.28125 -5.5625 C 4.65625 -5.332031 4.894531 -4.972656 5 -4.484375 L 4.125 -4.375 C 4.070312 -4.632812 3.925781 -4.832031 3.6875 -4.96875 C 3.457031 -5.101562 3.144531 -5.171875 2.75 -5.171875 C 2.3125 -5.171875 1.988281 -5.101562 1.78125 -4.96875 C 1.582031 -4.84375 1.484375 -4.644531 1.484375 -4.375 C 1.484375 -4.207031 1.523438 -4.066406 1.609375 -3.953125 C 1.691406 -3.847656 1.816406 -3.757812 1.984375 -3.6875 C 2.148438 -3.613281 2.503906 -3.507812 3.046875 -3.375 C 3.554688 -3.25 3.925781 -3.128906 4.15625 -3.015625 C 4.382812 -2.910156 4.5625 -2.789062 4.6875 -2.65625 C 4.820312 -2.519531 4.925781 -2.363281 5 -2.1875 C 5.070312 -2.019531 5.109375 -1.828125 5.109375 -1.609375 Z M 5.109375 -1.609375 "/>
</g>
<g id="glyph-1-11">
<path d="M 1.484375 -2.9375 C 1.484375 -2.15625 1.601562 -1.578125 1.84375 -1.203125 C 2.082031 -0.835938 2.445312 -0.65625 2.9375 -0.65625 C 3.28125 -0.65625 3.566406 -0.75 3.796875 -0.9375 C 4.035156 -1.125 4.179688 -1.410156 4.234375 -1.796875 L 5.203125 -1.734375 C 5.128906 -1.171875 4.890625 -0.722656 4.484375 -0.390625 C 4.085938 -0.0546875 3.582031 0.109375 2.96875 0.109375 C 2.15625 0.109375 1.535156 -0.144531 1.109375 -0.65625 C 0.679688 -1.175781 0.46875 -1.925781 0.46875 -2.90625 C 0.46875 -3.882812 0.679688 -4.628906 1.109375 -5.140625 C 1.535156 -5.660156 2.148438 -5.921875 2.953125 -5.921875 C 3.546875 -5.921875 4.039062 -5.765625 4.4375 -5.453125 C 4.832031 -5.148438 5.078125 -4.726562 5.171875 -4.1875 L 4.1875 -4.109375 C 4.132812 -4.429688 4.003906 -4.6875 3.796875 -4.875 C 3.597656 -5.0625 3.3125 -5.15625 2.9375 -5.15625 C 2.425781 -5.15625 2.054688 -4.984375 1.828125 -4.640625 C 1.597656 -4.304688 1.484375 -3.738281 1.484375 -2.9375 Z M 1.484375 -2.9375 "/>
</g>
<g id="glyph-1-12">
<path d="M 6.265625 0 L 5.40625 -2.21875 L 1.953125 -2.21875 L 1.078125 0 L 0.015625 0 L 3.109375 -7.5625 L 4.28125 -7.5625 L 7.3125 0 Z M 3.671875 -6.796875 L 3.625 -6.640625 C 3.539062 -6.347656 3.410156 -5.96875 3.234375 -5.5 L 2.265625 -3.015625 L 5.09375 -3.015625 L 4.125 -5.515625 C 4.019531 -5.753906 3.921875 -6.03125 3.828125 -6.34375 Z M 3.671875 -6.796875 "/>
</g>
<g id="glyph-1-13">
<path d="M 3.875 -6.734375 L 3.875 0 L 2.84375 0 L 2.84375 -6.734375 L 0.25 -6.734375 L 0.25 -7.5625 L 6.46875 -7.5625 L 6.46875 -6.734375 Z M 3.875 -6.734375 "/>
</g>
<g id="glyph-1-14">
<path d="M 1.484375 -2.703125 C 1.484375 -2.035156 1.617188 -1.519531 1.890625 -1.15625 C 2.171875 -0.800781 2.578125 -0.625 3.109375 -0.625 C 3.523438 -0.625 3.859375 -0.707031 4.109375 -0.875 C 4.359375 -1.039062 4.53125 -1.253906 4.625 -1.515625 L 5.46875 -1.265625 C 5.125 -0.347656 4.335938 0.109375 3.109375 0.109375 C 2.242188 0.109375 1.585938 -0.144531 1.140625 -0.65625 C 0.691406 -1.164062 0.46875 -1.925781 0.46875 -2.9375 C 0.46875 -3.90625 0.691406 -4.644531 1.140625 -5.15625 C 1.585938 -5.664062 2.226562 -5.921875 3.0625 -5.921875 C 4.769531 -5.921875 5.625 -4.890625 5.625 -2.828125 L 5.625 -2.703125 Z M 4.625 -3.4375 C 4.570312 -4.050781 4.414062 -4.5 4.15625 -4.78125 C 3.90625 -5.0625 3.535156 -5.203125 3.046875 -5.203125 C 2.578125 -5.203125 2.207031 -5.046875 1.9375 -4.734375 C 1.664062 -4.421875 1.519531 -3.988281 1.5 -3.4375 Z M 4.625 -3.4375 "/>
</g>
<g id="glyph-1-15">
<path d="M 2.59375 0.109375 C 1.863281 0.109375 1.328125 -0.140625 0.984375 -0.640625 C 0.640625 -1.140625 0.46875 -1.882812 0.46875 -2.875 C 0.46875 -4.90625 1.175781 -5.921875 2.59375 -5.921875 C 3.039062 -5.921875 3.40625 -5.84375 3.6875 -5.6875 C 3.976562 -5.53125 4.21875 -5.269531 4.40625 -4.90625 L 4.421875 -4.90625 C 4.421875 -5.019531 4.425781 -5.207031 4.4375 -5.46875 C 4.457031 -5.726562 4.472656 -5.867188 4.484375 -5.890625 L 5.421875 -5.890625 C 5.390625 -5.671875 5.375 -5.140625 5.375 -4.296875 L 5.375 2.28125 L 4.40625 2.28125 L 4.40625 -0.078125 L 4.4375 -0.953125 L 4.421875 -0.953125 C 4.222656 -0.566406 3.984375 -0.289062 3.703125 -0.125 C 3.421875 0.0273438 3.050781 0.109375 2.59375 0.109375 Z M 4.40625 -2.96875 C 4.40625 -3.726562 4.28125 -4.289062 4.03125 -4.65625 C 3.789062 -5.019531 3.398438 -5.203125 2.859375 -5.203125 C 2.367188 -5.203125 2.015625 -5.019531 1.796875 -4.65625 C 1.585938 -4.289062 1.484375 -3.707031 1.484375 -2.90625 C 1.484375 -2.09375 1.585938 -1.507812 1.796875 -1.15625 C 2.015625 -0.8125 2.363281 -0.640625 2.84375 -0.640625 C 3.394531 -0.640625 3.789062 -0.832031 4.03125 -1.21875 C 4.28125 -1.613281 4.40625 -2.195312 4.40625 -2.96875 Z M 4.40625 -2.96875 "/>
</g>
<g id="glyph-1-16">
<path d="M 5.65625 -2.9375 C 5.65625 -0.90625 4.941406 0.109375 3.515625 0.109375 C 2.617188 0.109375 2.019531 -0.226562 1.71875 -0.90625 L 1.6875 -0.90625 C 1.695312 -0.875 1.703125 -0.566406 1.703125 0.015625 L 1.703125 2.28125 L 0.734375 2.28125 L 0.734375 -4.625 C 0.734375 -5.21875 0.722656 -5.613281 0.703125 -5.8125 L 1.640625 -5.8125 C 1.648438 -5.800781 1.65625 -5.75 1.65625 -5.65625 C 1.664062 -5.570312 1.675781 -5.4375 1.6875 -5.25 C 1.695312 -5.070312 1.703125 -4.945312 1.703125 -4.875 L 1.71875 -4.875 C 1.894531 -5.238281 2.125 -5.5 2.40625 -5.65625 C 2.6875 -5.820312 3.054688 -5.90625 3.515625 -5.90625 C 4.234375 -5.90625 4.769531 -5.664062 5.125 -5.1875 C 5.476562 -4.707031 5.65625 -3.957031 5.65625 -2.9375 Z M 4.640625 -2.90625 C 4.640625 -3.71875 4.53125 -4.296875 4.3125 -4.640625 C 4.09375 -4.992188 3.742188 -5.171875 3.265625 -5.171875 C 2.890625 -5.171875 2.59375 -5.085938 2.375 -4.921875 C 2.15625 -4.765625 1.988281 -4.515625 1.875 -4.171875 C 1.757812 -3.828125 1.703125 -3.382812 1.703125 -2.84375 C 1.703125 -2.070312 1.820312 -1.503906 2.0625 -1.140625 C 2.3125 -0.785156 2.710938 -0.609375 3.265625 -0.609375 C 3.742188 -0.609375 4.09375 -0.785156 4.3125 -1.140625 C 4.53125 -1.492188 4.640625 -2.082031 4.640625 -2.90625 Z M 4.640625 -2.90625 "/>
</g>
<g id="glyph-1-17">
<path d="M 2.21875 0.109375 C 1.632812 0.109375 1.195312 -0.0390625 0.90625 -0.34375 C 0.613281 -0.65625 0.46875 -1.082031 0.46875 -1.625 C 0.46875 -2.226562 0.664062 -2.6875 1.0625 -3 C 1.457031 -3.320312 2.09375 -3.5 2.96875 -3.53125 L 4.28125 -3.546875 L 4.28125 -3.859375 C 4.28125 -4.335938 4.175781 -4.675781 3.96875 -4.875 C 3.769531 -5.082031 3.457031 -5.1875 3.03125 -5.1875 C 2.601562 -5.1875 2.289062 -5.113281 2.09375 -4.96875 C 1.894531 -4.820312 1.773438 -4.585938 1.734375 -4.265625 L 0.71875 -4.34375 C 0.882812 -5.394531 1.664062 -5.921875 3.0625 -5.921875 C 3.789062 -5.921875 4.335938 -5.753906 4.703125 -5.421875 C 5.078125 -5.085938 5.265625 -4.601562 5.265625 -3.96875 L 5.265625 -1.46875 C 5.265625 -1.175781 5.300781 -0.957031 5.375 -0.8125 C 5.445312 -0.664062 5.585938 -0.59375 5.796875 -0.59375 C 5.890625 -0.59375 6 -0.609375 6.125 -0.640625 L 6.125 -0.03125 C 5.875 0.0195312 5.625 0.046875 5.375 0.046875 C 5.007812 0.046875 4.742188 -0.046875 4.578125 -0.234375 C 4.421875 -0.421875 4.332031 -0.710938 4.3125 -1.109375 L 4.28125 -1.109375 C 4.03125 -0.671875 3.738281 -0.359375 3.40625 -0.171875 C 3.082031 0.0117188 2.6875 0.109375 2.21875 0.109375 Z M 2.4375 -0.625 C 2.789062 -0.625 3.101562 -0.703125 3.375 -0.859375 C 3.65625 -1.015625 3.875 -1.234375 4.03125 -1.515625 C 4.195312 -1.796875 4.28125 -2.085938 4.28125 -2.390625 L 4.28125 -2.875 L 3.21875 -2.84375 C 2.769531 -2.84375 2.425781 -2.796875 2.1875 -2.703125 C 1.957031 -2.617188 1.78125 -2.488281 1.65625 -2.3125 C 1.53125 -2.132812 1.46875 -1.898438 1.46875 -1.609375 C 1.46875 -1.296875 1.550781 -1.050781 1.71875 -0.875 C 1.882812 -0.707031 2.125 -0.625 2.4375 -0.625 Z M 2.4375 -0.625 "/>
</g>
<g id="glyph-1-18">
<path d="M 0.734375 -7.046875 L 0.734375 -7.96875 L 1.703125 -7.96875 L 1.703125 -7.046875 Z M 0.734375 0 L 0.734375 -5.8125 L 1.703125 -5.8125 L 1.703125 0 Z M 0.734375 0 "/>
</g>
<g id="glyph-1-19">
<path d="M 0.765625 0 L 0.765625 -4.453125 C 0.765625 -4.867188 0.753906 -5.320312 0.734375 -5.8125 L 1.640625 -5.8125 C 1.671875 -5.15625 1.6875 -4.757812 1.6875 -4.625 L 1.703125 -4.625 C 1.859375 -5.125 2.035156 -5.460938 2.234375 -5.640625 C 2.441406 -5.828125 2.726562 -5.921875 3.09375 -5.921875 C 3.21875 -5.921875 3.347656 -5.898438 3.484375 -5.859375 L 3.484375 -4.984375 C 3.347656 -5.015625 3.175781 -5.03125 2.96875 -5.03125 C 2.5625 -5.03125 2.253906 -4.859375 2.046875 -4.515625 C 1.835938 -4.171875 1.734375 -3.675781 1.734375 -3.03125 L 1.734375 0 Z M 0.765625 0 "/>
</g>
<g id="glyph-1-20">
<path d="M -0.171875 2.1875 L -0.171875 1.484375 L 6.234375 1.484375 L 6.234375 2.1875 Z M -0.171875 2.1875 "/>
</g>
<g id="glyph-1-21">
<path d="M 4.40625 -0.9375 C 4.226562 -0.5625 3.988281 -0.289062 3.6875 -0.125 C 3.394531 0.0273438 3.03125 0.109375 2.59375 0.109375 C 1.863281 0.109375 1.328125 -0.132812 0.984375 -0.625 C 0.640625 -1.125 0.46875 -1.875 0.46875 -2.875 C 0.46875 -4.90625 1.175781 -5.921875 2.59375 -5.921875 C 3.039062 -5.921875 3.410156 -5.835938 3.703125 -5.671875 C 3.992188 -5.515625 4.226562 -5.257812 4.40625 -4.90625 L 4.421875 -4.90625 L 4.40625 -5.5625 L 4.40625 -7.96875 L 5.375 -7.96875 L 5.375 -1.203125 C 5.375 -0.597656 5.382812 -0.195312 5.40625 0 L 4.484375 0 C 4.472656 -0.0625 4.460938 -0.191406 4.453125 -0.390625 C 4.441406 -0.597656 4.4375 -0.78125 4.4375 -0.9375 Z M 1.484375 -2.90625 C 1.484375 -2.09375 1.585938 -1.507812 1.796875 -1.15625 C 2.015625 -0.8125 2.363281 -0.640625 2.84375 -0.640625 C 3.394531 -0.640625 3.789062 -0.828125 4.03125 -1.203125 C 4.28125 -1.585938 4.40625 -2.175781 4.40625 -2.96875 C 4.40625 -3.738281 4.28125 -4.300781 4.03125 -4.65625 C 3.789062 -5.019531 3.398438 -5.203125 2.859375 -5.203125 C 2.367188 -5.203125 2.015625 -5.019531 1.796875 -4.65625 C 1.585938 -4.300781 1.484375 -3.71875 1.484375 -2.90625 Z M 1.484375 -2.90625 "/>
</g>
<g id="glyph-1-22">
<path d="M 2.96875 -0.046875 C 2.65625 0.0429688 2.332031 0.09375 2 0.09375 C 1.226562 0.09375 0.84375 -0.347656 0.84375 -1.234375 L 0.84375 -5.109375 L 0.171875 -5.109375 L 0.171875 -5.8125 L 0.875 -5.8125 L 1.15625 -7.109375 L 1.8125 -7.109375 L 1.8125 -5.8125 L 2.875 -5.8125 L 2.875 -5.109375 L 1.8125 -5.109375 L 1.8125 -1.4375 C 1.8125 -1.15625 1.851562 -0.957031 1.9375 -0.84375 C 2.03125 -0.738281 2.191406 -0.6875 2.421875 -0.6875 C 2.546875 -0.6875 2.726562 -0.707031 2.96875 -0.75 Z M 2.96875 -0.046875 "/>
</g>
<g id="glyph-1-23">
<path d="M 1.6875 -5.8125 L 1.6875 -2.125 C 1.6875 -1.738281 1.722656 -1.441406 1.796875 -1.234375 C 1.867188 -1.023438 1.988281 -0.875 2.15625 -0.78125 C 2.320312 -0.6875 2.566406 -0.640625 2.890625 -0.640625 C 3.347656 -0.640625 3.710938 -0.796875 3.984375 -1.109375 C 4.253906 -1.429688 4.390625 -1.875 4.390625 -2.4375 L 4.390625 -5.8125 L 5.359375 -5.8125 L 5.359375 -1.234375 C 5.359375 -0.554688 5.367188 -0.144531 5.390625 0 L 4.46875 0 C 4.46875 -0.0195312 4.460938 -0.0664062 4.453125 -0.140625 C 4.453125 -0.222656 4.445312 -0.3125 4.4375 -0.40625 C 4.4375 -0.507812 4.4375 -0.707031 4.4375 -1 L 4.421875 -1 C 4.191406 -0.59375 3.929688 -0.304688 3.640625 -0.140625 C 3.347656 0.0234375 2.988281 0.109375 2.5625 0.109375 C 1.914062 0.109375 1.445312 -0.046875 1.15625 -0.359375 C 0.863281 -0.679688 0.71875 -1.207031 0.71875 -1.9375 L 0.71875 -5.8125 Z M 1.6875 -5.8125 "/>
</g>
<g id="glyph-2-0">
<path d="M -7.5625 -1.09375 L -7.5625 -7.140625 L 0 -7.140625 L 0 -1.09375 Z M -7.15625 -1.515625 L -0.40625 -1.515625 L -0.40625 -6.734375 L -7.15625 -6.734375 Z M -7.15625 -1.515625 "/>
</g>
<g id="glyph-2-1">
<path d="M -3.859375 -7.421875 C -3.078125 -7.421875 -2.394531 -7.265625 -1.8125 -6.953125 C -1.226562 -6.648438 -0.78125 -6.21875 -0.46875 -5.65625 C -0.15625 -5.101562 0 -4.460938 0 -3.734375 L 0 -0.90625 L -7.5625 -0.90625 L -7.5625 -3.40625 C -7.5625 -4.6875 -7.238281 -5.675781 -6.59375 -6.375 C -5.957031 -7.070312 -5.046875 -7.421875 -3.859375 -7.421875 Z M -3.859375 -6.390625 C -4.796875 -6.390625 -5.507812 -6.128906 -6 -5.609375 C -6.5 -5.097656 -6.75 -4.359375 -6.75 -3.390625 L -6.75 -1.921875 L -0.828125 -1.921875 L -0.828125 -3.609375 C -0.828125 -4.171875 -0.945312 -4.660156 -1.1875 -5.078125 C -1.425781 -5.492188 -1.773438 -5.816406 -2.234375 -6.046875 C -2.691406 -6.273438 -3.234375 -6.390625 -3.859375 -6.390625 Z M -3.859375 -6.390625 "/>
</g>
<g id="glyph-2-2">
<path d="M -3.8125 -8.03125 C -3.019531 -8.03125 -2.328125 -7.878906 -1.734375 -7.578125 C -1.140625 -7.273438 -0.679688 -6.835938 -0.359375 -6.265625 C -0.046875 -5.703125 0.109375 -5.035156 0.109375 -4.265625 C 0.109375 -3.492188 -0.046875 -2.820312 -0.359375 -2.25 C -0.679688 -1.6875 -1.140625 -1.253906 -1.734375 -0.953125 C -2.328125 -0.660156 -3.019531 -0.515625 -3.8125 -0.515625 C -5.03125 -0.515625 -5.976562 -0.847656 -6.65625 -1.515625 C -7.34375 -2.179688 -7.6875 -3.101562 -7.6875 -4.28125 C -7.6875 -5.050781 -7.53125 -5.71875 -7.21875 -6.28125 C -6.914062 -6.851562 -6.472656 -7.285156 -5.890625 -7.578125 C -5.304688 -7.878906 -4.613281 -8.03125 -3.8125 -8.03125 Z M -3.8125 -6.984375 C -4.757812 -6.984375 -5.5 -6.742188 -6.03125 -6.265625 C -6.570312 -5.796875 -6.84375 -5.132812 -6.84375 -4.28125 C -6.84375 -3.414062 -6.578125 -2.742188 -6.046875 -2.265625 C -5.515625 -1.796875 -4.769531 -1.5625 -3.8125 -1.5625 C -2.863281 -1.5625 -2.109375 -1.800781 -1.546875 -2.28125 C -0.992188 -2.757812 -0.71875 -3.421875 -0.71875 -4.265625 C -0.71875 -5.140625 -0.988281 -5.8125 -1.53125 -6.28125 C -2.070312 -6.75 -2.832031 -6.984375 -3.8125 -6.984375 Z M -3.8125 -6.984375 "/>
</g>
<g id="glyph-2-3">
<path d="M -5.296875 -6.75 C -4.578125 -6.75 -4.003906 -6.515625 -3.578125 -6.046875 C -3.160156 -5.585938 -2.953125 -4.957031 -2.953125 -4.15625 L -2.953125 -1.921875 L 0 -1.921875 L 0 -0.90625 L -7.5625 -0.90625 L -7.5625 -4.09375 C -7.5625 -4.9375 -7.363281 -5.585938 -6.96875 -6.046875 C -6.570312 -6.515625 -6.015625 -6.75 -5.296875 -6.75 Z M -5.28125 -5.71875 C -6.257812 -5.71875 -6.75 -5.132812 -6.75 -3.96875 L -6.75 -1.921875 L -3.765625 -1.921875 L -3.765625 -4 C -3.765625 -5.144531 -4.269531 -5.71875 -5.28125 -5.71875 Z M -5.28125 -5.71875 "/>
</g>
<g id="glyph-2-4">
</g>
<g id="glyph-2-5">
<path d="M 0.109375 -2.21875 C 0.109375 -1.632812 -0.0390625 -1.195312 -0.34375 -0.90625 C -0.65625 -0.613281 -1.082031 -0.46875 -1.625 -0.46875 C -2.226562 -0.46875 -2.6875 -0.664062 -3 -1.0625 C -3.320312 -1.457031 -3.5 -2.09375 -3.53125 -2.96875 L -3.546875 -4.28125 L -3.859375 -4.28125 C -4.335938 -4.28125 -4.675781 -4.175781 -4.875 -3.96875 C -5.082031 -3.769531 -5.1875 -3.457031 -5.1875 -3.03125 C -5.1875 -2.601562 -5.113281 -2.289062 -4.96875 -2.09375 C -4.820312 -1.894531 -4.585938 -1.773438 -4.265625 -1.734375 L -4.34375 -0.71875 C -5.394531 -0.882812 -5.921875 -1.664062 -5.921875 -3.0625 C -5.921875 -3.789062 -5.753906 -4.335938 -5.421875 -4.703125 C -5.085938 -5.078125 -4.601562 -5.265625 -3.96875 -5.265625 L -1.46875 -5.265625 C -1.175781 -5.265625 -0.957031 -5.300781 -0.8125 -5.375 C -0.664062 -5.445312 -0.59375 -5.585938 -0.59375 -5.796875 C -0.59375 -5.890625 -0.609375 -6 -0.640625 -6.125 L -0.03125 -6.125 C 0.0195312 -5.875 0.046875 -5.625 0.046875 -5.375 C 0.046875 -5.007812 -0.046875 -4.742188 -0.234375 -4.578125 C -0.421875 -4.421875 -0.710938 -4.332031 -1.109375 -4.3125 L -1.109375 -4.28125 C -0.671875 -4.03125 -0.359375 -3.738281 -0.171875 -3.40625 C 0.0117188 -3.082031 0.109375 -2.6875 0.109375 -2.21875 Z M -0.625 -2.4375 C -0.625 -2.789062 -0.703125 -3.101562 -0.859375 -3.375 C -1.015625 -3.65625 -1.234375 -3.875 -1.515625 -4.03125 C -1.796875 -4.195312 -2.085938 -4.28125 -2.390625 -4.28125 L -2.875 -4.28125 L -2.84375 -3.21875 C -2.84375 -2.769531 -2.796875 -2.425781 -2.703125 -2.1875 C -2.617188 -1.957031 -2.488281 -1.78125 -2.3125 -1.65625 C -2.132812 -1.53125 -1.898438 -1.46875 -1.609375 -1.46875 C -1.296875 -1.46875 -1.050781 -1.550781 -0.875 -1.71875 C -0.707031 -1.882812 -0.625 -2.125 -0.625 -2.4375 Z M -0.625 -2.4375 "/>
</g>
<g id="glyph-2-6">
<path d="M 0 -4.4375 L -3.6875 -4.4375 C -4.070312 -4.4375 -4.367188 -4.394531 -4.578125 -4.3125 C -4.785156 -4.238281 -4.9375 -4.117188 -5.03125 -3.953125 C -5.125 -3.796875 -5.171875 -3.554688 -5.171875 -3.234375 C -5.171875 -2.765625 -5.007812 -2.394531 -4.6875 -2.125 C -4.375 -1.863281 -3.9375 -1.734375 -3.375 -1.734375 L 0 -1.734375 L 0 -0.765625 L -4.578125 -0.765625 C -5.253906 -0.765625 -5.664062 -0.753906 -5.8125 -0.734375 L -5.8125 -1.640625 C -5.789062 -1.648438 -5.738281 -1.65625 -5.65625 -1.65625 C -5.582031 -1.65625 -5.492188 -1.65625 -5.390625 -1.65625 C -5.296875 -1.664062 -5.101562 -1.675781 -4.8125 -1.6875 L -4.8125 -1.703125 C -5.21875 -1.921875 -5.503906 -2.175781 -5.671875 -2.46875 C -5.835938 -2.757812 -5.921875 -3.125 -5.921875 -3.5625 C -5.921875 -4.195312 -5.757812 -4.660156 -5.4375 -4.953125 C -5.125 -5.253906 -4.601562 -5.40625 -3.875 -5.40625 L 0 -5.40625 Z M 0 -4.4375 "/>
</g>
<g id="glyph-2-7">
<path d="M -2.90625 -5.65625 C -1.894531 -5.65625 -1.140625 -5.429688 -0.640625 -4.984375 C -0.140625 -4.535156 0.109375 -3.882812 0.109375 -3.03125 C 0.109375 -2.1875 -0.144531 -1.546875 -0.65625 -1.109375 C -1.175781 -0.679688 -1.925781 -0.46875 -2.90625 -0.46875 C -4.914062 -0.46875 -5.921875 -1.332031 -5.921875 -3.0625 C -5.921875 -3.957031 -5.675781 -4.613281 -5.1875 -5.03125 C -4.695312 -5.445312 -3.9375 -5.65625 -2.90625 -5.65625 Z M -2.90625 -4.640625 C -3.707031 -4.640625 -4.289062 -4.519531 -4.65625 -4.28125 C -5.019531 -4.039062 -5.203125 -3.640625 -5.203125 -3.078125 C -5.203125 -2.515625 -5.015625 -2.109375 -4.640625 -1.859375 C -4.273438 -1.609375 -3.695312 -1.484375 -2.90625 -1.484375 C -2.144531 -1.484375 -1.570312 -1.601562 -1.1875 -1.84375 C -0.800781 -2.09375 -0.609375 -2.488281 -0.609375 -3.03125 C -0.609375 -3.601562 -0.789062 -4.015625 -1.15625 -4.265625 C -1.53125 -4.515625 -2.113281 -4.640625 -2.90625 -4.640625 Z M -2.90625 -4.640625 "/>
</g>
<g id="glyph-2-8">
<path d="M -0.046875 -2.96875 C 0.0429688 -2.65625 0.09375 -2.332031 0.09375 -2 C 0.09375 -1.226562 -0.347656 -0.84375 -1.234375 -0.84375 L -5.109375 -0.84375 L -5.109375 -0.171875 L -5.8125 -0.171875 L -5.8125 -0.875 L -7.109375 -1.15625 L -7.109375 -1.8125 L -5.8125 -1.8125 L -5.8125 -2.875 L -5.109375 -2.875 L -5.109375 -1.8125 L -1.4375 -1.8125 C -1.15625 -1.8125 -0.957031 -1.851562 -0.84375 -1.9375 C -0.738281 -2.03125 -0.6875 -2.191406 -0.6875 -2.421875 C -0.6875 -2.546875 -0.707031 -2.726562 -0.75 -2.96875 Z M -0.046875 -2.96875 "/>
</g>
<g id="glyph-2-9">
<path d="M -7.046875 -0.734375 L -7.96875 -0.734375 L -7.96875 -1.703125 L -7.046875 -1.703125 Z M 0 -0.734375 L -5.8125 -0.734375 L -5.8125 -1.703125 L 0 -1.703125 Z M 0 -0.734375 "/>
</g>
</g>
<clipPath id="clip-0">
<path clip-rule="nonzero" d="M 147 5.480469 L 149 5.480469 L 149 470.851562 L 147 470.851562 Z M 147 5.480469 "/>
</clipPath>
<clipPath id="clip-1">
<path clip-rule="nonzero" d="M 213 5.480469 L 215 5.480469 L 215 470.851562 L 213 470.851562 Z M 213 5.480469 "/>
</clipPath>
<clipPath id="clip-2">
<path clip-rule="nonzero" d="M 279 5.480469 L 281 5.480469 L 281 470.851562 L 279 470.851562 Z M 279 5.480469 "/>
</clipPath>
<clipPath id="clip-3">
<path clip-rule="nonzero" d="M 345 5.480469 L 346 5.480469 L 346 470.851562 L 345 470.851562 Z M 345 5.480469 "/>
</clipPath>
<clipPath id="clip-4">
<path clip-rule="nonzero" d="M 84.152344 388 L 393.84375 388 L 393.84375 390 L 84.152344 390 Z M 84.152344 388 "/>
</clipPath>
<clipPath id="clip-5">
<path clip-rule="nonzero" d="M 84.152344 251 L 393.84375 251 L 393.84375 253 L 84.152344 253 Z M 84.152344 251 "/>
</clipPath>
<clipPath id="clip-6">
<path clip-rule="nonzero" d="M 114 5.480469 L 116 5.480469 L 116 470.851562 L 114 470.851562 Z M 114 5.480469 "/>
</clipPath>
<clipPath id="clip-7">
<path clip-rule="nonzero" d="M 180 5.480469 L 182 5.480469 L 182 470.851562 L 180 470.851562 Z M 180 5.480469 "/>
</clipPath>
<clipPath id="clip-8">
<path clip-rule="nonzero" d="M 246 5.480469 L 248 5.480469 L 248 470.851562 L 246 470.851562 Z M 246 5.480469 "/>
</clipPath>
<clipPath id="clip-9">
<path clip-rule="nonzero" d="M 312 5.480469 L 314 5.480469 L 314 470.851562 L 312 470.851562 Z M 312 5.480469 "/>
</clipPath>
<clipPath id="clip-10">
<path clip-rule="nonzero" d="M 378 5.480469 L 380 5.480469 L 380 470.851562 L 378 470.851562 Z M 378 5.480469 "/>
</clipPath>
<clipPath id="clip-11">
<path clip-rule="nonzero" d="M 98 5.480469 L 380 5.480469 L 380 252 L 98 252 Z M 98 5.480469 "/>
</clipPath>
<clipPath id="clip-12">
<path clip-rule="nonzero" d="M 97 5.480469 L 381 5.480469 L 381 253 L 97 253 Z M 97 5.480469 "/>
</clipPath>
</defs>
<rect x="-50.4" y="-50.4" width="604.8" height="604.8" fill="rgb(100%, 100%, 100%)" fill-opacity="1"/>
<g clip-path="url(#clip-0)">
<path fill="none" stroke-width="0.533489" stroke-linecap="butt" stroke-linejoin="round" stroke="rgb(92.156863%, 92.156863%, 92.156863%)" stroke-opacity="1" stroke-miterlimit="10" d="M 148.019531 470.847656 L 148.019531 5.480469 "/>
</g>
<g clip-path="url(#clip-1)">
<path fill="none" stroke-width="0.533489" stroke-linecap="butt" stroke-linejoin="round" stroke="rgb(92.156863%, 92.156863%, 92.156863%)" stroke-opacity="1" stroke-miterlimit="10" d="M 213.921875 470.847656 L 213.921875 5.480469 "/>
</g>
<g clip-path="url(#clip-2)">
<path fill="none" stroke-width="0.533489" stroke-linecap="butt" stroke-linejoin="round" stroke="rgb(92.156863%, 92.156863%, 92.156863%)" stroke-opacity="1" stroke-miterlimit="10" d="M 279.824219 470.847656 L 279.824219 5.480469 "/>
</g>
<g clip-path="url(#clip-3)">
<path fill="none" stroke-width="0.533489" stroke-linecap="butt" stroke-linejoin="round" stroke="rgb(92.156863%, 92.156863%, 92.156863%)" stroke-opacity="1" stroke-miterlimit="10" d="M 345.722656 470.847656 L 345.722656 5.480469 "/>
</g>
<g clip-path="url(#clip-4)">
<path fill="none" stroke-width="1.066978" stroke-linecap="butt" stroke-linejoin="round" stroke="rgb(92.156863%, 92.156863%, 92.156863%)" stroke-opacity="1" stroke-miterlimit="10" d="M 84.152344 388.726562 L 393.84375 388.726562 "/>
</g>
<g clip-path="url(#clip-5)">
<path fill="none" stroke-width="1.066978" stroke-linecap="butt" stroke-linejoin="round" stroke="rgb(92.156863%, 92.156863%, 92.156863%)" stroke-opacity="1" stroke-miterlimit="10" d="M 84.152344 251.851562 L 393.84375 251.851562 "/>
</g>
<g clip-path="url(#clip-6)">
<path fill="none" stroke-width="1.066978" stroke-linecap="butt" stroke-linejoin="round" stroke="rgb(92.156863%, 92.156863%, 92.156863%)" stroke-opacity="1" stroke-miterlimit="10" d="M 115.066406 470.847656 L 115.066406 5.480469 "/>
</g>
<g clip-path="url(#clip-7)">
<path fill="none" stroke-width="1.066978" stroke-linecap="butt" stroke-linejoin="round" stroke="rgb(92.156863%, 92.156863%, 92.156863%)" stroke-opacity="1" stroke-miterlimit="10" d="M 180.96875 470.847656 L 180.96875 5.480469 "/>
</g>
<g clip-path="url(#clip-8)">
<path fill="none" stroke-width="1.066978" stroke-linecap="butt" stroke-linejoin="round" stroke="rgb(92.156863%, 92.156863%, 92.156863%)" stroke-opacity="1" stroke-miterlimit="10" d="M 246.871094 470.847656 L 246.871094 5.480469 "/>
</g>
<g clip-path="url(#clip-9)">
<path fill="none" stroke-width="1.066978" stroke-linecap="butt" stroke-linejoin="round" stroke="rgb(92.156863%, 92.156863%, 92.156863%)" stroke-opacity="1" stroke-miterlimit="10" d="M 312.773438 470.847656 L 312.773438 5.480469 "/>
</g>
<g clip-path="url(#clip-10)">
<path fill="none" stroke-width="1.066978" stroke-linecap="butt" stroke-linejoin="round" stroke="rgb(92.156863%, 92.156863%, 92.156863%)" stroke-opacity="1" stroke-miterlimit="10" d="M 378.675781 470.847656 L 378.675781 5.480469 "/>
</g>
<g clip-path="url(#clip-11)">
<path fill-rule="nonzero" fill="rgb(0%, 74.901961%, 76.862745%)" fill-opacity="1" d="M 98.226562 251.851562 L 169.300781 251.851562 L 169.851562 251.847656 L 170.402344 251.847656 L 172.054688 251.835938 L 172.605469 251.828125 L 173.15625 251.816406 L 173.707031 251.800781 L 174.257812 251.777344 L 174.8125 251.75 L 175.363281 251.703125 L 175.914062 251.644531 L 176.464844 251.558594 L 177.015625 251.445312 L 177.566406 251.292969 L 178.117188 251.09375 L 178.667969 250.832031 L 179.21875 250.492188 L 179.769531 250.035156 L 180.320312 249.457031 L 180.871094 248.726562 L 181.421875 247.8125 L 181.972656 246.6875 L 182.523438 245.308594 L 183.074219 243.640625 L 183.625 241.566406 L 184.175781 239.089844 L 184.726562 236.164062 L 185.277344 232.75 L 185.828125 228.800781 L 186.378906 224.273438 L 186.929688 219.136719 L 187.484375 213.265625 L 188.035156 206.6875 L 188.585938 199.441406 L 189.136719 191.53125 L 189.6875 182.976562 L 190.238281 173.820312 L 190.789062 164.101562 L 191.339844 153.859375 L 191.890625 143.1875 L 192.441406 132.238281 L 192.992188 121.121094 L 193.542969 109.945312 L 194.09375 98.832031 L 194.644531 87.898438 L 195.195312 77.277344 L 195.746094 67.171875 L 196.296875 57.625 L 196.847656 48.738281 L 197.398438 40.574219 L 197.949219 33.203125 L 198.5 26.664062 L 199.050781 20.992188 L 199.605469 16.355469 L 200.15625 12.589844 L 200.707031 9.664062 L 201.257812 7.539062 L 201.808594 6.171875 L 202.359375 5.503906 L 202.910156 5.480469 L 203.460938 6.105469 L 204.011719 7.253906 L 204.5625 8.835938 L 205.113281 10.800781 L 205.664062 13.09375 L 206.214844 15.667969 L 206.765625 18.492188 L 207.316406 21.546875 L 207.867188 24.800781 L 208.417969 28.214844 L 208.96875 31.777344 L 209.519531 35.472656 L 210.070312 39.300781 L 210.621094 43.25 L 211.171875 47.320312 L 211.726562 51.519531 L 212.277344 55.820312 L 212.828125 60.214844 L 213.378906 64.699219 L 213.929688 69.253906 L 214.480469 73.867188 L 215.03125 78.527344 L 215.582031 83.214844 L 216.132812 87.898438 L 216.683594 92.566406 L 217.234375 97.195312 L 217.785156 101.765625 L 218.335938 106.257812 L 218.886719 110.65625 L 219.4375 114.925781 L 219.988281 119.058594 L 220.539062 123.050781 L 221.089844 126.894531 L 221.640625 130.585938 L 222.191406 134.121094 L 222.742188 137.496094 L 223.292969 140.703125 L 223.84375 143.742188 L 224.398438 146.640625 L 224.949219 149.398438 L 225.5 152.027344 L 226.050781 154.535156 L 226.601562 156.929688 L 227.152344 159.21875 L 227.703125 161.398438 L 228.253906 163.5 L 228.804688 165.527344 L 229.355469 167.488281 L 229.90625 169.390625 L 230.457031 171.238281 L 231.007812 173.042969 L 231.558594 174.804688 L 232.109375 176.53125 L 232.660156 178.230469 L 233.210938 179.90625 L 233.761719 181.558594 L 234.3125 183.191406 L 234.863281 184.804688 L 235.414062 186.402344 L 235.964844 187.976562 L 236.519531 189.53125 L 237.070312 191.0625 L 237.621094 192.570312 L 238.171875 194.046875 L 238.722656 195.496094 L 239.273438 196.902344 L 239.824219 198.261719 L 240.375 199.578125 L 240.925781 200.847656 L 241.476562 202.070312 L 242.027344 203.246094 L 242.578125 204.371094 L 243.128906 205.453125 L 243.679688 206.484375 L 244.230469 207.480469 L 244.78125 208.449219 L 245.332031 209.394531 L 245.882812 210.328125 L 246.984375 212.171875 L 247.535156 213.101562 L 248.085938 214.046875 L 248.640625 215.007812 L 249.191406 215.984375 L 249.742188 216.984375 L 250.292969 218.003906 L 250.84375 219.039062 L 251.394531 220.085938 L 251.945312 221.140625 L 252.496094 222.191406 L 253.046875 223.230469 L 253.597656 224.253906 L 254.148438 225.253906 L 254.699219 226.21875 L 255.25 227.140625 L 255.800781 228.011719 L 256.351562 228.832031 L 256.902344 229.605469 L 257.453125 230.324219 L 258.003906 230.992188 L 258.554688 231.609375 L 259.105469 232.183594 L 259.65625 232.710938 L 260.207031 233.210938 L 260.757812 233.683594 L 261.3125 234.136719 L 261.863281 234.574219 L 262.964844 235.433594 L 263.515625 235.859375 L 264.066406 236.292969 L 264.617188 236.730469 L 265.167969 237.171875 L 267.371094 238.96875 L 267.921875 239.410156 L 268.472656 239.84375 L 269.023438 240.265625 L 269.574219 240.675781 L 270.125 241.066406 L 270.675781 241.445312 L 271.226562 241.800781 L 271.777344 242.136719 L 272.328125 242.457031 L 272.878906 242.757812 L 273.433594 243.039062 L 273.984375 243.308594 L 274.535156 243.558594 L 275.085938 243.796875 L 275.636719 244.019531 L 276.1875 244.226562 L 276.738281 244.421875 L 277.289062 244.601562 L 277.839844 244.769531 L 278.390625 244.925781 L 278.941406 245.066406 L 279.492188 245.191406 L 280.042969 245.296875 L 280.59375 245.390625 L 281.144531 245.472656 L 281.695312 245.535156 L 282.246094 245.585938 L 282.796875 245.625 L 283.347656 245.648438 L 283.898438 245.660156 L 284.449219 245.667969 L 285 245.667969 L 285.554688 245.664062 L 286.105469 245.65625 L 286.65625 245.652344 L 287.207031 245.652344 L 287.757812 245.660156 L 288.308594 245.675781 L 288.859375 245.703125 L 289.410156 245.738281 L 289.960938 245.789062 L 290.511719 245.851562 L 291.0625 245.929688 L 291.613281 246.023438 L 292.164062 246.128906 L 292.714844 246.246094 L 293.265625 246.371094 L 293.816406 246.507812 L 294.367188 246.648438 L 295.46875 246.945312 L 296.019531 247.097656 L 296.570312 247.246094 L 297.121094 247.390625 L 297.675781 247.53125 L 298.226562 247.664062 L 298.777344 247.792969 L 299.328125 247.914062 L 299.878906 248.027344 L 300.429688 248.136719 L 300.980469 248.238281 L 301.53125 248.335938 L 302.082031 248.425781 L 302.632812 248.519531 L 304.285156 248.777344 L 304.835938 248.867188 L 305.386719 248.953125 L 305.9375 249.046875 L 306.488281 249.136719 L 308.140625 249.429688 L 309.242188 249.632812 L 309.792969 249.738281 L 310.347656 249.839844 L 310.898438 249.945312 L 311.449219 250.046875 L 312 250.152344 L 313.101562 250.347656 L 314.203125 250.535156 L 314.753906 250.621094 L 315.304688 250.703125 L 315.855469 250.78125 L 316.40625 250.851562 L 316.957031 250.914062 L 317.507812 250.972656 L 318.058594 251.023438 L 318.609375 251.0625 L 319.160156 251.097656 L 319.710938 251.125 L 320.261719 251.140625 L 320.8125 251.152344 L 321.363281 251.160156 L 321.914062 251.15625 L 322.46875 251.152344 L 323.019531 251.144531 L 323.570312 251.132812 L 324.121094 251.117188 L 325.222656 251.09375 L 326.324219 251.078125 L 326.875 251.074219 L 327.425781 251.078125 L 327.976562 251.085938 L 328.527344 251.101562 L 329.078125 251.121094 L 330.179688 251.175781 L 330.730469 251.210938 L 331.832031 251.289062 L 332.382812 251.332031 L 332.933594 251.378906 L 334.035156 251.464844 L 334.589844 251.507812 L 335.140625 251.550781 L 336.792969 251.65625 L 337.894531 251.710938 L 338.996094 251.757812 L 340.097656 251.789062 L 341.199219 251.8125 L 341.75 251.820312 L 342.300781 251.824219 L 342.851562 251.832031 L 343.953125 251.839844 L 346.15625 251.839844 L 346.707031 251.835938 L 347.261719 251.832031 L 348.363281 251.824219 L 349.464844 251.808594 L 350.015625 251.796875 L 351.117188 251.765625 L 352.21875 251.726562 L 352.769531 251.703125 L 353.320312 251.671875 L 353.871094 251.644531 L 354.972656 251.574219 L 355.523438 251.53125 L 356.074219 251.492188 L 358.828125 251.277344 L 359.382812 251.238281 L 359.933594 251.203125 L 360.484375 251.171875 L 361.035156 251.148438 L 361.585938 251.128906 L 362.136719 251.117188 L 362.6875 251.109375 L 363.238281 251.113281 L 363.789062 251.121094 L 364.339844 251.136719 L 364.890625 251.15625 L 365.441406 251.183594 L 365.992188 251.214844 L 366.542969 251.25 L 367.09375 251.292969 L 367.644531 251.332031 L 368.195312 251.378906 L 369.847656 251.507812 L 370.949219 251.585938 L 371.503906 251.621094 L 372.605469 251.683594 L 373.15625 251.710938 L 373.707031 251.734375 L 374.808594 251.773438 L 375.359375 251.789062 L 376.460938 251.8125 L 377.5625 251.828125 L 379.765625 251.84375 L 379.765625 251.851562 Z M 98.226562 251.851562 "/>
</g>
<g clip-path="url(#clip-12)">
<path fill="none" stroke-width="1.066978" stroke-linecap="round" stroke-linejoin="round" stroke="rgb(0%, 0%, 0%)" stroke-opacity="1" stroke-miterlimit="10" d="M 98.226562 251.851562 L 169.300781 251.851562 L 169.851562 251.847656 L 170.402344 251.847656 L 172.054688 251.835938 L 172.605469 251.828125 L 173.15625 251.816406 L 173.707031 251.800781 L 174.257812 251.777344 L 174.8125 251.75 L 175.363281 251.703125 L 175.914062 251.644531 L 176.464844 251.558594 L 177.015625 251.445312 L 177.566406 251.292969 L 178.117188 251.09375 L 178.667969 250.832031 L 179.21875 250.492188 L 179.769531 250.035156 L 180.320312 249.457031 L 180.871094 248.726562 L 181.421875 247.8125 L 181.972656 246.6875 L 182.523438 245.308594 L 183.074219 243.640625 L 183.625 241.566406 L 184.175781 239.089844 L 184.726562 236.164062 L 185.277344 232.75 L 185.828125 228.800781 L 186.378906 224.273438 L 186.929688 219.136719 L 187.484375 213.265625 L 188.035156 206.6875 L 188.585938 199.441406 L 189.136719 191.53125 L 189.6875 182.976562 L 190.238281 173.820312 L 190.789062 164.101562 L 191.339844 153.859375 L 191.890625 143.1875 L 192.441406 132.238281 L 192.992188 121.121094 L 193.542969 109.945312 L 194.09375 98.832031 L 194.644531 87.898438 L 195.195312 77.277344 L 195.746094 67.171875 L 196.296875 57.625 L 196.847656 48.738281 L 197.398438 40.574219 L 197.949219 33.203125 L 198.5 26.664062 L 199.050781 20.992188 L 199.605469 16.355469 L 200.15625 12.589844 L 200.707031 9.664062 L 201.257812 7.539062 L 201.808594 6.171875 L 202.359375 5.503906 L 202.910156 5.480469 L 203.460938 6.105469 L 204.011719 7.253906 L 204.5625 8.835938 L 205.113281 10.800781 L 205.664062 13.09375 L 206.214844 15.667969 L 206.765625 18.492188 L 207.316406 21.546875 L 207.867188 24.800781 L 208.417969 28.214844 L 208.96875 31.777344 L 209.519531 35.472656 L 210.070312 39.300781 L 210.621094 43.25 L 211.171875 47.320312 L 211.726562 51.519531 L 212.277344 55.820312 L 212.828125 60.214844 L 213.378906 64.699219 L 213.929688 69.253906 L 214.480469 73.867188 L 215.03125 78.527344 L 215.582031 83.214844 L 216.132812 87.898438 L 216.683594 92.566406 L 217.234375 97.195312 L 217.785156 101.765625 L 218.335938 106.257812 L 218.886719 110.65625 L 219.4375 114.925781 L 219.988281 119.058594 L 220.539062 123.050781 L 221.089844 126.894531 L 221.640625 130.585938 L 222.191406 134.121094 L 222.742188 137.496094 L 223.292969 140.703125 L 223.84375 143.742188 L 224.398438 146.640625 L 224.949219 149.398438 L 225.5 152.027344 L 226.050781 154.535156 L 226.601562 156.929688 L 227.152344 159.21875 L 227.703125 161.398438 L 228.253906 163.5 L 228.804688 165.527344 L 229.355469 167.488281 L 229.90625 169.390625 L 230.457031 171.238281 L 231.007812 173.042969 L 231.558594 174.804688 L 232.109375 176.53125 L 232.660156 178.230469 L 233.210938 179.90625 L 233.761719 181.558594 L 234.3125 183.191406 L 234.863281 184.804688 L 235.414062 186.402344 L 235.964844 187.976562 L 236.519531 189.53125 L 237.070312 191.0625 L 237.621094 192.570312 L 238.171875 194.046875 L 238.722656 195.496094 L 239.273438 196.902344 L 239.824219 198.261719 L 240.375 199.578125 L 240.925781 200.847656 L 241.476562 202.070312 L 242.027344 203.246094 L 242.578125 204.371094 L 243.128906 205.453125 L 243.679688 206.484375 L 244.230469 207.480469 L 244.78125 208.449219 L 245.332031 209.394531 L 245.882812 210.328125 L 246.984375 212.171875 L 247.535156 213.101562 L 248.085938 214.046875 L 248.640625 215.007812 L 249.191406 215.984375 L 249.742188 216.984375 L 250.292969 218.003906 L 250.84375 219.039062 L 251.394531 220.085938 L 251.945312 221.140625 L 252.496094 222.191406 L 253.046875 223.230469 L 253.597656 224.253906 L 254.148438 225.253906 L 254.699219 226.21875 L 255.25 227.140625 L 255.800781 228.011719 L 256.351562 228.832031 L 256.902344 229.605469 L 257.453125 230.324219 L 258.003906 230.992188 L 258.554688 231.609375 L 259.105469 232.183594 L 259.65625 232.710938 L 260.207031 233.210938 L 260.757812 233.683594 L 261.3125 234.136719 L 261.863281 234.574219 L 262.964844 235.433594 L 263.515625 235.859375 L 264.066406 236.292969 L 264.617188 236.730469 L 265.167969 237.171875 L 267.371094 238.96875 L 267.921875 239.410156 L 268.472656 239.84375 L 269.023438 240.265625 L 269.574219 240.675781 L 270.125 241.066406 L 270.675781 241.445312 L 271.226562 241.800781 L 271.777344 242.136719 L 272.328125 242.457031 L 272.878906 242.757812 L 273.433594 243.039062 L 273.984375 243.308594 L 274.535156 243.558594 L 275.085938 243.796875 L 275.636719 244.019531 L 276.1875 244.226562 L 276.738281 244.421875 L 277.289062 244.601562 L 277.839844 244.769531 L 278.390625 244.925781 L 278.941406 245.066406 L 279.492188 245.191406 L 280.042969 245.296875 L 280.59375 245.390625 L 281.144531 245.472656 L 281.695312 245.535156 L 282.246094 245.585938 L 282.796875 245.625 L 283.347656 245.648438 L 283.898438 245.660156 L 284.449219 245.667969 L 285 245.667969 L 285.554688 245.664062 L 286.105469 245.65625 L 286.65625 245.652344 L 287.207031 245.652344 L 287.757812 245.660156 L 288.308594 245.675781 L 288.859375 245.703125 L 289.410156 245.738281 L 289.960938 245.789062 L 290.511719 245.851562 L 291.0625 245.929688 L 291.613281 246.023438 L 292.164062 246.128906 L 292.714844 246.246094 L 293.265625 246.371094 L 293.816406 246.507812 L 294.367188 246.648438 L 295.46875 246.945312 L 296.019531 247.097656 L 296.570312 247.246094 L 297.121094 247.390625 L 297.675781 247.53125 L 298.226562 247.664062 L 298.777344 247.792969 L 299.328125 247.914062 L 299.878906 248.027344 L 300.429688 248.136719 L 300.980469 248.238281 L 301.53125 248.335938 L 302.082031 248.425781 L 302.632812 248.519531 L 304.285156 248.777344 L 304.835938 248.867188 L 305.386719 248.953125 L 305.9375 249.046875 L 306.488281 249.136719 L 308.140625 249.429688 L 309.242188 249.632812 L 309.792969 249.738281 L 310.347656 249.839844 L 310.898438 249.945312 L 311.449219 250.046875 L 312 250.152344 L 313.101562 250.347656 L 314.203125 250.535156 L 314.753906 250.621094 L 315.304688 250.703125 L 315.855469 250.78125 L 316.40625 250.851562 L 316.957031 250.914062 L 317.507812 250.972656 L 318.058594 251.023438 L 318.609375 251.0625 L 319.160156 251.097656 L 319.710938 251.125 L 320.261719 251.140625 L 320.8125 251.152344 L 321.363281 251.160156 L 321.914062 251.15625 L 322.46875 251.152344 L 323.019531 251.144531 L 323.570312 251.132812 L 324.121094 251.117188 L 325.222656 251.09375 L 326.324219 251.078125 L 326.875 251.074219 L 327.425781 251.078125 L 327.976562 251.085938 L 328.527344 251.101562 L 329.078125 251.121094 L 330.179688 251.175781 L 330.730469 251.210938 L 331.832031 251.289062 L 332.382812 251.332031 L 332.933594 251.378906 L 334.035156 251.464844 L 334.589844 251.507812 L 335.140625 251.550781 L 336.792969 251.65625 L 337.894531 251.710938 L 338.996094 251.757812 L 340.097656 251.789062 L 341.199219 251.8125 L 341.75 251.820312 L 342.300781 251.824219 L 342.851562 251.832031 L 343.953125 251.839844 L 346.15625 251.839844 L 346.707031 251.835938 L 347.261719 251.832031 L 348.363281 251.824219 L 349.464844 251.808594 L 350.015625 251.796875 L 351.117188 251.765625 L 352.21875 251.726562 L 352.769531 251.703125 L 353.320312 251.671875 L 353.871094 251.644531 L 354.972656 251.574219 L 355.523438 251.53125 L 356.074219 251.492188 L 358.828125 251.277344 L 359.382812 251.238281 L 359.933594 251.203125 L 360.484375 251.171875 L 361.035156 251.148438 L 361.585938 251.128906 L 362.136719 251.117188 L 362.6875 251.109375 L 363.238281 251.113281 L 363.789062 251.121094 L 364.339844 251.136719 L 364.890625 251.15625 L 365.441406 251.183594 L 365.992188 251.214844 L 366.542969 251.25 L 367.09375 251.292969 L 367.644531 251.332031 L 368.195312 251.378906 L 369.847656 251.507812 L 370.949219 251.585938 L 371.503906 251.621094 L 372.605469 251.683594 L 373.15625 251.710938 L 373.707031 251.734375 L 374.808594 251.773438 L 375.359375 251.789062 L 376.460938 251.8125 L 377.5625 251.828125 L 379.765625 251.84375 "/>
</g>
<path fill-rule="nonzero" fill="rgb(97.254902%, 46.27451%, 42.745098%)" fill-opacity="1" d="M 98.226562 388.304688 L 98.777344 388.15625 L 99.328125 387.964844 L 99.878906 387.703125 L 100.429688 387.363281 L 100.980469 386.9375 L 101.535156 386.398438 L 102.085938 385.726562 L 102.636719 384.898438 L 103.1875 383.890625 L 103.738281 382.628906 L 104.289062 381.105469 L 104.839844 379.300781 L 105.390625 377.175781 L 105.941406 374.699219 L 106.492188 371.847656 L 107.042969 368.59375 L 107.59375 364.863281 L 108.144531 360.65625 L 108.695312 356.007812 L 109.246094 350.917969 L 109.796875 345.40625 L 110.347656 339.503906 L 110.898438 333.25 L 111.449219 326.675781 L 112 319.867188 L 112.550781 312.941406 L 113.101562 305.984375 L 113.65625 299.101562 L 114.207031 292.394531 L 114.757812 285.96875 L 115.308594 279.949219 L 115.859375 274.539062 L 116.410156 269.769531 L 116.960938 265.726562 L 117.511719 262.476562 L 118.0625 260.078125 L 118.613281 258.570312 L 119.164062 257.980469 L 119.714844 258.457031 L 120.265625 259.832031 L 120.816406 262.039062 L 121.367188 265.003906 L 121.917969 268.636719 L 122.46875 272.84375 L 123.019531 277.507812 L 123.570312 282.519531 L 124.121094 287.683594 L 124.671875 292.835938 L 125.222656 297.835938 L 125.777344 302.546875 L 126.328125 306.839844 L 126.878906 310.589844 L 127.429688 313.632812 L 127.980469 315.8125 L 128.53125 317.140625 L 129.082031 317.578125 L 129.632812 317.097656 L 130.183594 315.699219 L 130.734375 313.402344 L 131.285156 310.21875 L 131.835938 306.136719 L 132.386719 301.386719 L 132.9375 296.074219 L 133.488281 290.324219 L 134.039062 284.253906 L 134.589844 278 L 135.140625 271.6875 L 135.691406 265.480469 L 136.242188 259.503906 L 136.792969 253.847656 L 137.34375 248.585938 L 137.894531 243.773438 L 138.449219 239.445312 L 139 235.613281 L 139.550781 232.324219 L 140.101562 229.515625 L 140.652344 227.097656 L 141.203125 225.015625 L 141.753906 223.199219 L 142.304688 221.582031 L 142.855469 220.101562 L 143.40625 218.699219 L 143.957031 217.3125 L 144.507812 215.90625 L 145.058594 214.472656 L 145.609375 213.019531 L 146.160156 211.5625 L 146.710938 210.140625 L 147.261719 208.804688 L 147.8125 207.65625 L 148.363281 206.753906 L 148.914062 206.171875 L 149.464844 205.980469 L 150.015625 206.25 L 150.570312 207.042969 L 151.121094 208.414062 L 151.671875 210.519531 L 152.222656 213.285156 L 152.773438 216.703125 L 153.324219 220.769531 L 153.875 225.453125 L 154.425781 230.714844 L 154.976562 236.507812 L 155.527344 242.816406 L 156.078125 249.511719 L 156.628906 256.480469 L 157.179688 263.632812 L 157.730469 270.882812 L 158.28125 278.144531 L 158.832031 285.328125 L 159.382812 292.332031 L 159.933594 299.050781 L 160.484375 305.4375 L 161.035156 311.441406 L 161.585938 317.019531 L 162.136719 322.144531 L 162.691406 326.789062 L 163.242188 330.921875 L 163.792969 334.492188 L 164.34375 337.585938 L 164.894531 340.226562 L 165.445312 342.441406 L 165.996094 344.261719 L 166.546875 345.722656 L 167.097656 346.863281 L 167.648438 347.679688 L 168.199219 348.257812 L 168.75 348.636719 L 169.300781 348.847656 L 169.851562 348.914062 L 170.402344 348.859375 L 170.953125 348.691406 L 171.503906 348.414062 L 172.054688 348.039062 L 172.605469 347.5625 L 173.15625 346.988281 L 173.707031 346.304688 L 174.257812 345.496094 L 174.8125 344.558594 L 175.363281 343.464844 L 175.914062 342.199219 L 176.464844 340.777344 L 177.015625 339.203125 L 177.566406 337.476562 L 178.117188 335.617188 L 178.667969 333.648438 L 179.21875 331.589844 L 179.769531 329.488281 L 180.320312 327.398438 L 180.871094 325.375 L 181.421875 323.460938 L 181.972656 321.714844 L 182.523438 320.183594 L 183.074219 318.910156 L 183.625 318.003906 L 184.175781 317.449219 L 184.726562 317.257812 L 185.277344 317.433594 L 185.828125 317.972656 L 186.378906 318.863281 L 186.929688 320.074219 L 187.484375 321.605469 L 188.035156 323.371094 L 188.585938 325.308594 L 189.136719 327.363281 L 189.6875 329.480469 L 190.238281 331.609375 L 190.789062 333.707031 L 191.339844 335.714844 L 191.890625 337.59375 L 192.441406 339.332031 L 192.992188 340.917969 L 193.542969 342.34375 L 194.09375 343.617188 L 194.644531 344.746094 L 195.195312 345.742188 L 195.746094 346.621094 L 196.296875 347.429688 L 196.847656 348.195312 L 197.398438 348.941406 L 197.949219 349.699219 L 198.5 350.488281 L 199.050781 351.332031 L 199.605469 352.265625 L 200.15625 353.292969 L 200.707031 354.421875 L 201.257812 355.660156 L 201.808594 357 L 202.359375 358.445312 L 202.910156 359.984375 L 203.460938 361.613281 L 204.011719 363.316406 L 204.5625 365.0625 L 205.113281 366.835938 L 205.664062 368.621094 L 206.214844 370.394531 L 206.765625 372.140625 L 207.316406 373.832031 L 207.867188 375.453125 L 208.417969 376.988281 L 208.96875 378.433594 L 209.519531 379.773438 L 210.070312 381.011719 L 210.621094 382.136719 L 211.171875 383.144531 L 211.726562 384.027344 L 212.277344 384.808594 L 212.828125 385.488281 L 213.378906 386.074219 L 213.929688 386.578125 L 214.480469 387.003906 L 215.03125 387.359375 L 215.582031 387.644531 L 216.132812 387.875 L 216.683594 388.066406 L 217.234375 388.21875 L 217.785156 388.339844 L 218.335938 388.4375 L 218.886719 388.511719 L 219.4375 388.566406 L 219.988281 388.609375 L 220.539062 388.640625 L 221.089844 388.664062 L 222.191406 388.695312 L 223.292969 388.710938 L 223.84375 388.714844 L 224.398438 388.71875 L 224.949219 388.71875 L 225.5 388.722656 L 227.152344 388.722656 L 227.703125 388.726562 L 379.765625 388.726562 L 98.226562 388.726562 Z M 98.226562 388.304688 "/>
<path fill="none" stroke-width="1.066978" stroke-linecap="round" stroke-linejoin="round" stroke="rgb(0%, 0%, 0%)" stroke-opacity="1" stroke-miterlimit="10" d="M 98.226562 388.304688 L 98.777344 388.15625 L 99.328125 387.964844 L 99.878906 387.703125 L 100.429688 387.363281 L 100.980469 386.9375 L 101.535156 386.398438 L 102.085938 385.726562 L 102.636719 384.898438 L 103.1875 383.890625 L 103.738281 382.628906 L 104.289062 381.105469 L 104.839844 379.300781 L 105.390625 377.175781 L 105.941406 374.699219 L 106.492188 371.847656 L 107.042969 368.59375 L 107.59375 364.863281 L 108.144531 360.65625 L 108.695312 356.007812 L 109.246094 350.917969 L 109.796875 345.40625 L 110.347656 339.503906 L 110.898438 333.25 L 111.449219 326.675781 L 112 319.867188 L 112.550781 312.941406 L 113.101562 305.984375 L 113.65625 299.101562 L 114.207031 292.394531 L 114.757812 285.96875 L 115.308594 279.949219 L 115.859375 274.539062 L 116.410156 269.769531 L 116.960938 265.726562 L 117.511719 262.476562 L 118.0625 260.078125 L 118.613281 258.570312 L 119.164062 257.980469 L 119.714844 258.457031 L 120.265625 259.832031 L 120.816406 262.039062 L 121.367188 265.003906 L 121.917969 268.636719 L 122.46875 272.84375 L 123.019531 277.507812 L 123.570312 282.519531 L 124.121094 287.683594 L 124.671875 292.835938 L 125.222656 297.835938 L 125.777344 302.546875 L 126.328125 306.839844 L 126.878906 310.589844 L 127.429688 313.632812 L 127.980469 315.8125 L 128.53125 317.140625 L 129.082031 317.578125 L 129.632812 317.097656 L 130.183594 315.699219 L 130.734375 313.402344 L 131.285156 310.21875 L 131.835938 306.136719 L 132.386719 301.386719 L 132.9375 296.074219 L 133.488281 290.324219 L 134.039062 284.253906 L 134.589844 278 L 135.140625 271.6875 L 135.691406 265.480469 L 136.242188 259.503906 L 136.792969 253.847656 L 137.34375 248.585938 L 137.894531 243.773438 L 138.449219 239.445312 L 139 235.613281 L 139.550781 232.324219 L 140.101562 229.515625 L 140.652344 227.097656 L 141.203125 225.015625 L 141.753906 223.199219 L 142.304688 221.582031 L 142.855469 220.101562 L 143.40625 218.699219 L 143.957031 217.3125 L 144.507812 215.90625 L 145.058594 214.472656 L 145.609375 213.019531 L 146.160156 211.5625 L 146.710938 210.140625 L 147.261719 208.804688 L 147.8125 207.65625 L 148.363281 206.753906 L 148.914062 206.171875 L 149.464844 205.980469 L 150.015625 206.25 L 150.570312 207.042969 L 151.121094 208.414062 L 151.671875 210.519531 L 152.222656 213.285156 L 152.773438 216.703125 L 153.324219 220.769531 L 153.875 225.453125 L 154.425781 230.714844 L 154.976562 236.507812 L 155.527344 242.816406 L 156.078125 249.511719 L 156.628906 256.480469 L 157.179688 263.632812 L 157.730469 270.882812 L 158.28125 278.144531 L 158.832031 285.328125 L 159.382812 292.332031 L 159.933594 299.050781 L 160.484375 305.4375 L 161.035156 311.441406 L 161.585938 317.019531 L 162.136719 322.144531 L 162.691406 326.789062 L 163.242188 330.921875 L 163.792969 334.492188 L 164.34375 337.585938 L 164.894531 340.226562 L 165.445312 342.441406 L 165.996094 344.261719 L 166.546875 345.722656 L 167.097656 346.863281 L 167.648438 347.679688 L 168.199219 348.257812 L 168.75 348.636719 L 169.300781 348.847656 L 169.851562 348.914062 L 170.402344 348.859375 L 170.953125 348.691406 L 171.503906 348.414062 L 172.054688 348.039062 L 172.605469 347.5625 L 173.15625 346.988281 L 173.707031 346.304688 L 174.257812 345.496094 L 174.8125 344.558594 L 175.363281 343.464844 L 175.914062 342.199219 L 176.464844 340.777344 L 177.015625 339.203125 L 177.566406 337.476562 L 178.117188 335.617188 L 178.667969 333.648438 L 179.21875 331.589844 L 179.769531 329.488281 L 180.320312 327.398438 L 180.871094 325.375 L 181.421875 323.460938 L 181.972656 321.714844 L 182.523438 320.183594 L 183.074219 318.910156 L 183.625 318.003906 L 184.175781 317.449219 L 184.726562 317.257812 L 185.277344 317.433594 L 185.828125 317.972656 L 186.378906 318.863281 L 186.929688 320.074219 L 187.484375 321.605469 L 188.035156 323.371094 L 188.585938 325.308594 L 189.136719 327.363281 L 189.6875 329.480469 L 190.238281 331.609375 L 190.789062 333.707031 L 191.339844 335.714844 L 191.890625 337.59375 L 192.441406 339.332031 L 192.992188 340.917969 L 193.542969 342.34375 L 194.09375 343.617188 L 194.644531 344.746094 L 195.195312 345.742188 L 195.746094 346.621094 L 196.296875 347.429688 L 196.847656 348.195312 L 197.398438 348.941406 L 197.949219 349.699219 L 198.5 350.488281 L 199.050781 351.332031 L 199.605469 352.265625 L 200.15625 353.292969 L 200.707031 354.421875 L 201.257812 355.660156 L 201.808594 357 L 202.359375 358.445312 L 202.910156 359.984375 L 203.460938 361.613281 L 204.011719 363.316406 L 204.5625 365.0625 L 205.113281 366.835938 L 205.664062 368.621094 L 206.214844 370.394531 L 206.765625 372.140625 L 207.316406 373.832031 L 207.867188 375.453125 L 208.417969 376.988281 L 208.96875 378.433594 L 209.519531 379.773438 L 210.070312 381.011719 L 210.621094 382.136719 L 211.171875 383.144531 L 211.726562 384.027344 L 212.277344 384.808594 L 212.828125 385.488281 L 213.378906 386.074219 L 213.929688 386.578125 L 214.480469 387.003906 L 215.03125 387.359375 L 215.582031 387.644531 L 216.132812 387.875 L 216.683594 388.066406 L 217.234375 388.21875 L 217.785156 388.339844 L 218.335938 388.4375 L 218.886719 388.511719 L 219.4375 388.566406 L 219.988281 388.609375 L 220.539062 388.640625 L 221.089844 388.664062 L 222.191406 388.695312 L 223.292969 388.710938 L 223.84375 388.714844 L 224.398438 388.71875 L 224.949219 388.71875 L 225.5 388.722656 L 227.152344 388.722656 L 227.703125 388.726562 L 379.765625 388.726562 "/>
<g fill="rgb(30.196078%, 30.196078%, 30.196078%)" fill-opacity="1">
<use xlink:href="#glyph-0-1" x="19.21875" y="392.192383"/>
<use xlink:href="#glyph-0-2" x="24.21875" y="392.192383"/>
<use xlink:href="#glyph-0-3" x="29.21875" y="392.192383"/>
<use xlink:href="#glyph-0-4" x="31.21875" y="392.192383"/>
<use xlink:href="#glyph-0-5" x="35.21875" y="392.192383"/>
<use xlink:href="#glyph-0-6" x="38.21875" y="392.192383"/>
<use xlink:href="#glyph-0-7" x="43.21875" y="392.192383"/>
<use xlink:href="#glyph-0-3" x="48.21875" y="392.192383"/>
<use xlink:href="#glyph-0-8" x="50.21875" y="392.192383"/>
<use xlink:href="#glyph-0-9" x="54.21875" y="392.192383"/>
<use xlink:href="#glyph-0-10" x="56.21875" y="392.192383"/>
<use xlink:href="#glyph-0-11" x="62.21875" y="392.192383"/>
<use xlink:href="#glyph-0-12" x="69.21875" y="392.192383"/>
<use xlink:href="#glyph-0-13" x="75.21875" y="392.192383"/>
</g>
<g fill="rgb(30.196078%, 30.196078%, 30.196078%)" fill-opacity="1">
<use xlink:href="#glyph-0-13" x="27.21875" y="255.317383"/>
<use xlink:href="#glyph-0-14" x="31.21875" y="255.317383"/>
<use xlink:href="#glyph-0-5" x="35.21875" y="255.317383"/>
<use xlink:href="#glyph-0-6" x="38.21875" y="255.317383"/>
<use xlink:href="#glyph-0-7" x="43.21875" y="255.317383"/>
<use xlink:href="#glyph-0-3" x="48.21875" y="255.317383"/>
<use xlink:href="#glyph-0-8" x="50.21875" y="255.317383"/>
<use xlink:href="#glyph-0-9" x="54.21875" y="255.317383"/>
<use xlink:href="#glyph-0-10" x="56.21875" y="255.317383"/>
<use xlink:href="#glyph-0-11" x="62.21875" y="255.317383"/>
<use xlink:href="#glyph-0-12" x="69.21875" y="255.317383"/>
<use xlink:href="#glyph-0-13" x="75.21875" y="255.317383"/>
</g>
<g fill="rgb(30.196078%, 30.196078%, 30.196078%)" fill-opacity="1">
<use xlink:href="#glyph-0-15" x="106.566406" y="482.74707"/>
<use xlink:href="#glyph-0-16" x="111.566406" y="482.74707"/>
<use xlink:href="#glyph-0-15" x="113.566406" y="482.74707"/>
<use xlink:href="#glyph-0-15" x="118.566406" y="482.74707"/>
</g>
<g fill="rgb(30.196078%, 30.196078%, 30.196078%)" fill-opacity="1">
<use xlink:href="#glyph-0-15" x="172.46875" y="482.74707"/>
<use xlink:href="#glyph-0-16" x="177.46875" y="482.74707"/>
<use xlink:href="#glyph-0-17" x="179.46875" y="482.74707"/>
<use xlink:href="#glyph-0-18" x="184.46875" y="482.74707"/>
</g>
<g fill="rgb(30.196078%, 30.196078%, 30.196078%)" fill-opacity="1">
<use xlink:href="#glyph-0-15" x="238.371094" y="482.74707"/>
<use xlink:href="#glyph-0-16" x="243.371094" y="482.74707"/>
<use xlink:href="#glyph-0-18" x="245.371094" y="482.74707"/>
<use xlink:href="#glyph-0-15" x="250.371094" y="482.74707"/>
</g>
<g fill="rgb(30.196078%, 30.196078%, 30.196078%)" fill-opacity="1">
<use xlink:href="#glyph-0-15" x="304.273438" y="482.74707"/>
<use xlink:href="#glyph-0-16" x="309.273438" y="482.74707"/>
<use xlink:href="#glyph-0-19" x="311.273438" y="482.74707"/>
<use xlink:href="#glyph-0-18" x="316.273438" y="482.74707"/>
</g>
<g fill="rgb(30.196078%, 30.196078%, 30.196078%)" fill-opacity="1">
<use xlink:href="#glyph-0-20" x="370.175781" y="482.74707"/>
<use xlink:href="#glyph-0-16" x="375.175781" y="482.74707"/>
<use xlink:href="#glyph-0-15" x="377.175781" y="482.74707"/>
<use xlink:href="#glyph-0-15" x="382.175781" y="482.74707"/>
</g>
<g fill="rgb(0%, 0%, 0%)" fill-opacity="1">
<use xlink:href="#glyph-1-1" x="183.496094" y="495.477539"/>
<use xlink:href="#glyph-1-2" x="185.496094" y="495.477539"/>
<use xlink:href="#glyph-1-3" x="191.496094" y="495.477539"/>
<use xlink:href="#glyph-1-4" x="197.496094" y="495.477539"/>
<use xlink:href="#glyph-1-5" x="203.496094" y="495.477539"/>
<use xlink:href="#glyph-1-6" x="209.496094" y="495.477539"/>
<use xlink:href="#glyph-1-7" x="216.496094" y="495.477539"/>
<use xlink:href="#glyph-1-8" x="224.496094" y="495.477539"/>
<use xlink:href="#glyph-1-9" x="227.496094" y="495.477539"/>
<use xlink:href="#glyph-1-8" x="230.496094" y="495.477539"/>
<use xlink:href="#glyph-1-10" x="233.496094" y="495.477539"/>
<use xlink:href="#glyph-1-11" x="239.496094" y="495.477539"/>
<use xlink:href="#glyph-1-12" x="245.496094" y="495.477539"/>
<use xlink:href="#glyph-1-13" x="252.496094" y="495.477539"/>
<use xlink:href="#glyph-1-12" x="258.496094" y="495.477539"/>
<use xlink:href="#glyph-1-7" x="265.496094" y="495.477539"/>
<use xlink:href="#glyph-1-10" x="273.496094" y="495.477539"/>
<use xlink:href="#glyph-1-14" x="279.496094" y="495.477539"/>
<use xlink:href="#glyph-1-15" x="285.496094" y="495.477539"/>
<use xlink:href="#glyph-1-8" x="291.496094" y="495.477539"/>
</g>
<g fill="rgb(0%, 0%, 0%)" fill-opacity="1">
<use xlink:href="#glyph-2-1" x="13.438477" y="276.664062"/>
<use xlink:href="#glyph-2-2" x="13.438477" y="268.664062"/>
<use xlink:href="#glyph-2-3" x="13.438477" y="259.664062"/>
<use xlink:href="#glyph-2-4" x="13.438477" y="252.664062"/>
<use xlink:href="#glyph-2-5" x="13.438477" y="249.664062"/>
<use xlink:href="#glyph-2-6" x="13.438477" y="243.664062"/>
<use xlink:href="#glyph-2-6" x="13.438477" y="237.664062"/>
<use xlink:href="#glyph-2-7" x="13.438477" y="231.664062"/>
<use xlink:href="#glyph-2-8" x="13.438477" y="225.664062"/>
<use xlink:href="#glyph-2-5" x="13.438477" y="222.664062"/>
<use xlink:href="#glyph-2-8" x="13.438477" y="216.664062"/>
<use xlink:href="#glyph-2-9" x="13.438477" y="213.664062"/>
<use xlink:href="#glyph-2-7" x="13.438477" y="211.664062"/>
<use xlink:href="#glyph-2-6" x="13.438477" y="205.664062"/>
</g>
<g fill="rgb(0%, 0%, 0%)" fill-opacity="1">
<use xlink:href="#glyph-1-16" x="410.28125" y="222.102539"/>
<use xlink:href="#glyph-1-17" x="416.28125" y="222.102539"/>
<use xlink:href="#glyph-1-18" x="422.28125" y="222.102539"/>
<use xlink:href="#glyph-1-19" x="424.28125" y="222.102539"/>
<use xlink:href="#glyph-1-20" x="428.28125" y="222.102539"/>
<use xlink:href="#glyph-1-21" x="434.28125" y="222.102539"/>
<use xlink:href="#glyph-1-2" x="440.28125" y="222.102539"/>
<use xlink:href="#glyph-1-16" x="446.28125" y="222.102539"/>
<use xlink:href="#glyph-1-20" x="452.28125" y="222.102539"/>
<use xlink:href="#glyph-1-10" x="458.28125" y="222.102539"/>
<use xlink:href="#glyph-1-22" x="464.28125" y="222.102539"/>
<use xlink:href="#glyph-1-17" x="467.28125" y="222.102539"/>
<use xlink:href="#glyph-1-22" x="473.28125" y="222.102539"/>
<use xlink:href="#glyph-1-23" x="476.28125" y="222.102539"/>
<use xlink:href="#glyph-1-10" x="482.28125" y="222.102539"/>
</g>
<path fill-rule="nonzero" fill="rgb(97.254902%, 46.27451%, 42.745098%)" fill-opacity="1" stroke-width="1.066978" stroke-linecap="round" stroke-linejoin="miter" stroke="rgb(0%, 0%, 0%)" stroke-opacity="1" stroke-miterlimit="10" d="M 410.992188 245.695312 L 426.855469 245.695312 L 426.855469 229.832031 L 410.992188 229.832031 Z M 410.992188 245.695312 "/>
<path fill-rule="nonzero" fill="rgb(0%, 74.901961%, 76.862745%)" fill-opacity="1" stroke-width="1.066978" stroke-linecap="round" stroke-linejoin="miter" stroke="rgb(0%, 0%, 0%)" stroke-opacity="1" stroke-miterlimit="10" d="M 410.992188 262.976562 L 426.855469 262.976562 L 426.855469 247.113281 L 410.992188 247.113281 Z M 410.992188 262.976562 "/>
<g fill="rgb(0%, 0%, 0%)" fill-opacity="1">
<use xlink:href="#glyph-0-1" x="433.042969" y="241.231445"/>
<use xlink:href="#glyph-0-2" x="438.042969" y="241.231445"/>
<use xlink:href="#glyph-0-3" x="443.042969" y="241.231445"/>
<use xlink:href="#glyph-0-4" x="445.042969" y="241.231445"/>
<use xlink:href="#glyph-0-5" x="449.042969" y="241.231445"/>
<use xlink:href="#glyph-0-6" x="452.042969" y="241.231445"/>
<use xlink:href="#glyph-0-7" x="457.042969" y="241.231445"/>
<use xlink:href="#glyph-0-3" x="462.042969" y="241.231445"/>
<use xlink:href="#glyph-0-8" x="464.042969" y="241.231445"/>
<use xlink:href="#glyph-0-9" x="468.042969" y="241.231445"/>
<use xlink:href="#glyph-0-10" x="470.042969" y="241.231445"/>
<use xlink:href="#glyph-0-11" x="476.042969" y="241.231445"/>
<use xlink:href="#glyph-0-12" x="483.042969" y="241.231445"/>
<use xlink:href="#glyph-0-13" x="489.042969" y="241.231445"/>
</g>
<g fill="rgb(0%, 0%, 0%)" fill-opacity="1">
<use xlink:href="#glyph-0-13" x="433.042969" y="258.508789"/>
<use xlink:href="#glyph-0-14" x="437.042969" y="258.508789"/>
<use xlink:href="#glyph-0-5" x="441.042969" y="258.508789"/>
<use xlink:href="#glyph-0-6" x="444.042969" y="258.508789"/>
<use xlink:href="#glyph-0-7" x="449.042969" y="258.508789"/>
<use xlink:href="#glyph-0-3" x="454.042969" y="258.508789"/>
<use xlink:href="#glyph-0-8" x="456.042969" y="258.508789"/>
<use xlink:href="#glyph-0-9" x="460.042969" y="258.508789"/>
<use xlink:href="#glyph-0-10" x="462.042969" y="258.508789"/>
<use xlink:href="#glyph-0-11" x="468.042969" y="258.508789"/>
<use xlink:href="#glyph-0-12" x="475.042969" y="258.508789"/>
<use xlink:href="#glyph-0-13" x="481.042969" y="258.508789"/>
</g>
</svg>
