<?xml version="1.0" encoding="UTF-8"?>
<svg xmlns="http://www.w3.org/2000/svg" xmlns:xlink="http://www.w3.org/1999/xlink" width="504" height="504" viewBox="0 0 504 504">
<defs>
<g>
<g id="glyph-0-0">
<path d="M 1.203125 -8.25 L 7.796875 -8.25 L 7.796875 0 L 1.203125 0 Z M 1.640625 -7.8125 L 1.640625 -0.453125 L 7.34375 -0.453125 L 7.34375 -7.8125 Z M 1.640625 -7.8125 "/>
</g>
<g id="glyph-0-1">
<path d="M 6.171875 -3.203125 C 6.171875 -0.984375 5.394531 0.125 3.84375 0.125 C 3.363281 0.125 2.960938 0.0351562 2.640625 -0.140625 C 2.316406 -0.316406 2.054688 -0.597656 1.859375 -0.984375 C 1.859375 -0.859375 1.847656 -0.671875 1.828125 -0.421875 C 1.816406 -0.179688 1.804688 -0.0390625 1.796875 0 L 0.78125 0 C 0.800781 -0.207031 0.8125 -0.644531 0.8125 -1.3125 L 0.8125 -8.703125 L 1.859375 -8.703125 L 1.859375 -6.21875 C 1.859375 -5.96875 1.851562 -5.671875 1.84375 -5.328125 L 1.859375 -5.328125 C 2.054688 -5.734375 2.316406 -6.019531 2.640625 -6.1875 C 2.960938 -6.363281 3.363281 -6.453125 3.84375 -6.453125 C 4.644531 -6.453125 5.234375 -6.179688 5.609375 -5.640625 C 5.984375 -5.109375 6.171875 -4.296875 6.171875 -3.203125 Z M 5.0625 -3.171875 C 5.0625 -4.054688 4.941406 -4.6875 4.703125 -5.0625 C 4.472656 -5.445312 4.09375 -5.640625 3.5625 -5.640625 C 2.96875 -5.640625 2.535156 -5.4375 2.265625 -5.03125 C 1.992188 -4.625 1.859375 -3.976562 1.859375 -3.09375 C 1.859375 -2.269531 1.988281 -1.65625 2.25 -1.25 C 2.519531 -0.851562 2.957031 -0.65625 3.5625 -0.65625 C 4.09375 -0.65625 4.472656 -0.851562 4.703125 -1.25 C 4.941406 -1.644531 5.0625 -2.285156 5.0625 -3.171875 Z M 5.0625 -3.171875 "/>
</g>
<g id="glyph-0-2">
<path d="M 1.84375 -6.34375 L 1.84375 -2.328125 C 1.84375 -1.898438 1.882812 -1.570312 1.96875 -1.34375 C 2.050781 -1.113281 2.179688 -0.945312 2.359375 -0.84375 C 2.535156 -0.75 2.796875 -0.703125 3.140625 -0.703125 C 3.648438 -0.703125 4.050781 -0.875 4.34375 -1.21875 C 4.632812 -1.5625 4.78125 -2.046875 4.78125 -2.671875 L 4.78125 -6.34375 L 5.84375 -6.34375 L 5.84375 -1.359375 C 5.84375 -0.617188 5.851562 -0.164062 5.875 0 L 4.875 0 C 4.875 -0.0195312 4.867188 -0.0703125 4.859375 -0.15625 C 4.859375 -0.238281 4.851562 -0.335938 4.84375 -0.453125 C 4.84375 -0.566406 4.835938 -0.773438 4.828125 -1.078125 L 4.8125 -1.078125 C 4.570312 -0.640625 4.289062 -0.328125 3.96875 -0.140625 C 3.65625 0.0351562 3.265625 0.125 2.796875 0.125 C 2.097656 0.125 1.585938 -0.046875 1.265625 -0.390625 C 0.941406 -0.742188 0.78125 -1.316406 0.78125 -2.109375 L 0.78125 -6.34375 Z M 1.84375 -6.34375 "/>
</g>
<g id="glyph-0-3">
<path d="M 0.8125 0 L 0.8125 -8.703125 L 1.859375 -8.703125 L 1.859375 0 Z M 0.8125 0 "/>
</g>
<g id="glyph-0-4">
<path d="M 4.78125 0 L 2.640625 -2.890625 L 1.859375 -2.25 L 1.859375 0 L 0.8125 0 L 0.8125 -8.703125 L 1.859375 -8.703125 L 1.859375 -3.265625 L 4.640625 -6.34375 L 5.890625 -6.34375 L 3.3125 -3.609375 L 6.015625 0 Z M 4.78125 0 "/>
</g>
<g id="glyph-0-5">
</g>
<g id="glyph-0-6">
<path d="M 7.375 -5.765625 C 7.375 -4.984375 7.117188 -4.363281 6.609375 -3.90625 C 6.097656 -3.445312 5.40625 -3.21875 4.53125 -3.21875 L 2.109375 -3.21875 L 2.109375 0 L 0.984375 0 L 0.984375 -8.25 L 4.453125 -8.25 C 5.378906 -8.25 6.097656 -8.03125 6.609375 -7.59375 C 7.117188 -7.164062 7.375 -6.554688 7.375 -5.765625 Z M 6.25 -5.765625 C 6.25 -6.828125 5.609375 -7.359375 4.328125 -7.359375 L 2.109375 -7.359375 L 2.109375 -4.109375 L 4.375 -4.109375 C 5.625 -4.109375 6.25 -4.660156 6.25 -5.765625 Z M 6.25 -5.765625 "/>
</g>
<g id="glyph-0-7">
<path d="M 1.625 -2.953125 C 1.625 -2.222656 1.769531 -1.660156 2.0625 -1.265625 C 2.363281 -0.867188 2.804688 -0.671875 3.390625 -0.671875 C 3.847656 -0.671875 4.210938 -0.757812 4.484375 -0.9375 C 4.765625 -1.125 4.953125 -1.359375 5.046875 -1.640625 L 5.96875 -1.390625 C 5.59375 -0.378906 4.734375 0.125 3.390625 0.125 C 2.453125 0.125 1.738281 -0.15625 1.25 -0.71875 C 0.757812 -1.28125 0.515625 -2.113281 0.515625 -3.21875 C 0.515625 -4.257812 0.757812 -5.054688 1.25 -5.609375 C 1.738281 -6.171875 2.4375 -6.453125 3.34375 -6.453125 C 5.207031 -6.453125 6.140625 -5.332031 6.140625 -3.09375 L 6.140625 -2.953125 Z M 5.046875 -3.75 C 4.992188 -4.425781 4.828125 -4.914062 4.546875 -5.21875 C 4.265625 -5.519531 3.859375 -5.671875 3.328125 -5.671875 C 2.816406 -5.671875 2.410156 -5.5 2.109375 -5.15625 C 1.816406 -4.820312 1.65625 -4.351562 1.625 -3.75 Z M 5.046875 -3.75 "/>
</g>
<g id="glyph-0-8">
<path d="M 2.421875 0.125 C 1.785156 0.125 1.304688 -0.0390625 0.984375 -0.375 C 0.671875 -0.71875 0.515625 -1.179688 0.515625 -1.765625 C 0.515625 -2.421875 0.726562 -2.925781 1.15625 -3.28125 C 1.59375 -3.632812 2.289062 -3.820312 3.25 -3.84375 L 4.671875 -3.875 L 4.671875 -4.21875 C 4.671875 -4.726562 4.5625 -5.09375 4.34375 -5.3125 C 4.125 -5.539062 3.78125 -5.65625 3.3125 -5.65625 C 2.84375 -5.65625 2.5 -5.570312 2.28125 -5.40625 C 2.0625 -5.25 1.929688 -4.992188 1.890625 -4.640625 L 0.796875 -4.75 C 0.972656 -5.882812 1.816406 -6.453125 3.328125 -6.453125 C 4.128906 -6.453125 4.726562 -6.269531 5.125 -5.90625 C 5.53125 -5.539062 5.734375 -5.015625 5.734375 -4.328125 L 5.734375 -1.59375 C 5.734375 -1.28125 5.773438 -1.046875 5.859375 -0.890625 C 5.941406 -0.734375 6.097656 -0.65625 6.328125 -0.65625 C 6.429688 -0.65625 6.546875 -0.664062 6.671875 -0.6875 L 6.671875 -0.03125 C 6.410156 0.0273438 6.140625 0.0625 5.859375 0.0625 C 5.472656 0.0625 5.1875 -0.0390625 5 -0.25 C 4.820312 -0.457031 4.722656 -0.78125 4.703125 -1.21875 L 4.671875 -1.21875 C 4.398438 -0.726562 4.082031 -0.378906 3.71875 -0.171875 C 3.363281 0.0234375 2.929688 0.125 2.421875 0.125 Z M 2.671875 -0.671875 C 3.054688 -0.671875 3.398438 -0.757812 3.703125 -0.9375 C 4.003906 -1.113281 4.238281 -1.351562 4.40625 -1.65625 C 4.582031 -1.96875 4.671875 -2.285156 4.671875 -2.609375 L 4.671875 -3.125 L 3.515625 -3.109375 C 3.015625 -3.097656 2.632812 -3.046875 2.375 -2.953125 C 2.125 -2.859375 1.929688 -2.710938 1.796875 -2.515625 C 1.660156 -2.328125 1.59375 -2.070312 1.59375 -1.75 C 1.59375 -1.40625 1.6875 -1.140625 1.875 -0.953125 C 2.0625 -0.765625 2.328125 -0.671875 2.671875 -0.671875 Z M 2.671875 -0.671875 "/>
</g>
<g id="glyph-0-9">
<path d="M 4.828125 0 L 4.828125 -4.015625 C 4.828125 -4.429688 4.785156 -4.753906 4.703125 -4.984375 C 4.628906 -5.222656 4.5 -5.390625 4.3125 -5.484375 C 4.132812 -5.585938 3.875 -5.640625 3.53125 -5.640625 C 3.019531 -5.640625 2.617188 -5.460938 2.328125 -5.109375 C 2.035156 -4.765625 1.890625 -4.285156 1.890625 -3.671875 L 1.890625 0 L 0.828125 0 L 0.828125 -4.984375 C 0.828125 -5.722656 0.816406 -6.175781 0.796875 -6.34375 L 1.796875 -6.34375 C 1.796875 -6.320312 1.796875 -6.265625 1.796875 -6.171875 C 1.804688 -6.085938 1.8125 -5.988281 1.8125 -5.875 C 1.820312 -5.769531 1.832031 -5.5625 1.84375 -5.25 L 1.859375 -5.25 C 2.097656 -5.6875 2.375 -5.992188 2.6875 -6.171875 C 3.007812 -6.359375 3.410156 -6.453125 3.890625 -6.453125 C 4.578125 -6.453125 5.082031 -6.28125 5.40625 -5.9375 C 5.726562 -5.59375 5.890625 -5.019531 5.890625 -4.21875 L 5.890625 0 Z M 4.828125 0 "/>
</g>
<g id="glyph-0-10">
<path d="M 3.21875 2.484375 C 2.519531 2.484375 1.960938 2.347656 1.546875 2.078125 C 1.140625 1.804688 0.878906 1.421875 0.765625 0.921875 L 1.828125 0.78125 C 1.898438 1.070312 2.054688 1.296875 2.296875 1.453125 C 2.535156 1.609375 2.847656 1.6875 3.234375 1.6875 C 4.285156 1.6875 4.8125 1.070312 4.8125 -0.15625 L 4.8125 -1.171875 C 4.601562 -0.765625 4.328125 -0.457031 3.984375 -0.25 C 3.640625 -0.0507812 3.234375 0.046875 2.765625 0.046875 C 1.984375 0.046875 1.410156 -0.207031 1.046875 -0.71875 C 0.679688 -1.238281 0.5 -2.050781 0.5 -3.15625 C 0.5 -4.28125 0.695312 -5.109375 1.09375 -5.640625 C 1.488281 -6.171875 2.085938 -6.4375 2.890625 -6.4375 C 3.335938 -6.4375 3.722656 -6.332031 4.046875 -6.125 C 4.378906 -5.925781 4.632812 -5.632812 4.8125 -5.25 L 4.828125 -5.25 C 4.828125 -5.375 4.832031 -5.578125 4.84375 -5.859375 C 4.863281 -6.148438 4.882812 -6.3125 4.90625 -6.34375 L 5.90625 -6.34375 C 5.875 -6.132812 5.859375 -5.695312 5.859375 -5.03125 L 5.859375 -0.1875 C 5.859375 1.59375 4.976562 2.484375 3.21875 2.484375 Z M 4.8125 -3.171875 C 4.8125 -3.679688 4.738281 -4.125 4.59375 -4.5 C 4.457031 -4.875 4.257812 -5.160156 4 -5.359375 C 3.75 -5.554688 3.460938 -5.65625 3.140625 -5.65625 C 2.597656 -5.65625 2.203125 -5.457031 1.953125 -5.0625 C 1.710938 -4.675781 1.59375 -4.046875 1.59375 -3.171875 C 1.59375 -2.304688 1.707031 -1.679688 1.9375 -1.296875 C 2.164062 -0.921875 2.5625 -0.734375 3.125 -0.734375 C 3.457031 -0.734375 3.75 -0.828125 4 -1.015625 C 4.257812 -1.210938 4.457031 -1.492188 4.59375 -1.859375 C 4.738281 -2.234375 4.8125 -2.671875 4.8125 -3.171875 Z M 4.8125 -3.171875 "/>
</g>
<g id="glyph-0-11">
<path d="M 3.25 -0.046875 C 2.894531 0.0429688 2.539062 0.09375 2.1875 0.09375 C 1.34375 0.09375 0.921875 -0.382812 0.921875 -1.34375 L 0.921875 -5.578125 L 0.1875 -5.578125 L 0.1875 -6.34375 L 0.953125 -6.34375 L 1.265625 -7.765625 L 1.96875 -7.765625 L 1.96875 -6.34375 L 3.140625 -6.34375 L 3.140625 -5.578125 L 1.96875 -5.578125 L 1.96875 -1.578125 C 1.96875 -1.265625 2.015625 -1.046875 2.109375 -0.921875 C 2.210938 -0.804688 2.390625 -0.75 2.640625 -0.75 C 2.773438 -0.75 2.976562 -0.773438 3.25 -0.828125 Z M 3.25 -0.046875 "/>
</g>
<g id="glyph-0-12">
<path d="M 1.859375 -5.25 C 2.085938 -5.664062 2.359375 -5.96875 2.671875 -6.15625 C 2.992188 -6.351562 3.398438 -6.453125 3.890625 -6.453125 C 4.578125 -6.453125 5.082031 -6.28125 5.40625 -5.9375 C 5.726562 -5.601562 5.890625 -5.03125 5.890625 -4.21875 L 5.890625 0 L 4.828125 0 L 4.828125 -4.015625 C 4.828125 -4.460938 4.785156 -4.796875 4.703125 -5.015625 C 4.628906 -5.234375 4.5 -5.390625 4.3125 -5.484375 C 4.125 -5.585938 3.863281 -5.640625 3.53125 -5.640625 C 3.03125 -5.640625 2.628906 -5.46875 2.328125 -5.125 C 2.035156 -4.78125 1.890625 -4.316406 1.890625 -3.734375 L 1.890625 0 L 0.828125 0 L 0.828125 -8.703125 L 1.890625 -8.703125 L 1.890625 -6.4375 C 1.890625 -6.195312 1.878906 -5.945312 1.859375 -5.6875 C 1.847656 -5.4375 1.84375 -5.289062 1.84375 -5.25 Z M 1.859375 -5.25 "/>
</g>
<g id="glyph-0-13">
<path d="M 0.75 -3.125 C 0.75 -4.25 0.925781 -5.257812 1.28125 -6.15625 C 1.632812 -7.050781 2.175781 -7.898438 2.90625 -8.703125 L 3.921875 -8.703125 C 3.191406 -7.890625 2.65625 -7.023438 2.3125 -6.109375 C 1.976562 -5.191406 1.8125 -4.191406 1.8125 -3.109375 C 1.8125 -2.023438 1.976562 -1.023438 2.3125 -0.109375 C 2.644531 0.796875 3.179688 1.660156 3.921875 2.484375 L 2.90625 2.484375 C 2.164062 1.691406 1.617188 0.847656 1.265625 -0.046875 C 0.921875 -0.953125 0.75 -1.96875 0.75 -3.09375 Z M 0.75 -3.125 "/>
</g>
<g id="glyph-0-14">
<path d="M 6.171875 -3.203125 C 6.171875 -0.984375 5.394531 0.125 3.84375 0.125 C 2.863281 0.125 2.207031 -0.242188 1.875 -0.984375 L 1.84375 -0.984375 C 1.851562 -0.953125 1.859375 -0.617188 1.859375 0.015625 L 1.859375 2.484375 L 0.8125 2.484375 L 0.8125 -5.046875 C 0.8125 -5.703125 0.800781 -6.132812 0.78125 -6.34375 L 1.796875 -6.34375 C 1.796875 -6.320312 1.800781 -6.265625 1.8125 -6.171875 C 1.820312 -6.078125 1.832031 -5.929688 1.84375 -5.734375 C 1.851562 -5.535156 1.859375 -5.398438 1.859375 -5.328125 L 1.875 -5.328125 C 2.0625 -5.710938 2.304688 -5.992188 2.609375 -6.171875 C 2.921875 -6.359375 3.332031 -6.453125 3.84375 -6.453125 C 4.625 -6.453125 5.207031 -6.1875 5.59375 -5.65625 C 5.976562 -5.132812 6.171875 -4.316406 6.171875 -3.203125 Z M 5.0625 -3.171875 C 5.0625 -4.054688 4.941406 -4.6875 4.703125 -5.0625 C 4.460938 -5.445312 4.082031 -5.640625 3.5625 -5.640625 C 3.144531 -5.640625 2.816406 -5.550781 2.578125 -5.375 C 2.347656 -5.195312 2.171875 -4.921875 2.046875 -4.546875 C 1.921875 -4.171875 1.859375 -3.6875 1.859375 -3.09375 C 1.859375 -2.257812 1.988281 -1.644531 2.25 -1.25 C 2.519531 -0.851562 2.957031 -0.65625 3.5625 -0.65625 C 4.082031 -0.65625 4.460938 -0.847656 4.703125 -1.234375 C 4.941406 -1.617188 5.0625 -2.265625 5.0625 -3.171875 Z M 5.0625 -3.171875 "/>
</g>
<g id="glyph-0-15">
<path d="M 3.25 -3.09375 C 3.25 -1.96875 3.070312 -0.953125 2.71875 -0.046875 C 2.363281 0.847656 1.820312 1.691406 1.09375 2.484375 L 0.078125 2.484375 C 0.804688 1.660156 1.335938 0.796875 1.671875 -0.109375 C 2.015625 -1.015625 2.1875 -2.015625 2.1875 -3.109375 C 2.1875 -4.191406 2.015625 -5.1875 1.671875 -6.09375 C 1.335938 -7.007812 0.804688 -7.878906 0.078125 -8.703125 L 1.09375 -8.703125 C 1.832031 -7.898438 2.375 -7.046875 2.71875 -6.140625 C 3.070312 -5.242188 3.25 -4.238281 3.25 -3.125 Z M 3.25 -3.09375 "/>
</g>
<g id="glyph-0-16">
<path d="M 6.203125 -4.125 C 6.203125 -2.75 5.957031 -1.695312 5.46875 -0.96875 C 4.988281 -0.238281 4.273438 0.125 3.328125 0.125 C 2.378906 0.125 1.664062 -0.234375 1.1875 -0.953125 C 0.707031 -1.679688 0.46875 -2.738281 0.46875 -4.125 C 0.46875 -5.550781 0.695312 -6.613281 1.15625 -7.3125 C 1.625 -8.019531 2.359375 -8.375 3.359375 -8.375 C 4.328125 -8.375 5.039062 -8.015625 5.5 -7.296875 C 5.96875 -6.585938 6.203125 -5.53125 6.203125 -4.125 Z M 5.140625 -4.125 C 5.140625 -5.320312 5 -6.1875 4.71875 -6.71875 C 4.445312 -7.257812 3.992188 -7.53125 3.359375 -7.53125 C 2.710938 -7.53125 2.242188 -7.265625 1.953125 -6.734375 C 1.671875 -6.203125 1.53125 -5.332031 1.53125 -4.125 C 1.53125 -2.957031 1.671875 -2.101562 1.953125 -1.5625 C 2.242188 -1.019531 2.703125 -0.75 3.328125 -0.75 C 3.953125 -0.75 4.410156 -1.023438 4.703125 -1.578125 C 4.992188 -2.128906 5.140625 -2.976562 5.140625 -4.125 Z M 5.140625 -4.125 "/>
</g>
<g id="glyph-0-17">
<path d="M 0.921875 0 L 0.921875 -0.890625 L 3.015625 -0.890625 L 3.015625 -7.25 L 1.15625 -5.921875 L 1.15625 -6.921875 L 3.109375 -8.25 L 4.078125 -8.25 L 4.078125 -0.890625 L 6.09375 -0.890625 L 6.09375 0 Z M 0.921875 0 "/>
</g>
<g id="glyph-0-18">
<path d="M 0.609375 0 L 0.609375 -0.75 C 0.804688 -1.207031 1.046875 -1.609375 1.328125 -1.953125 C 1.617188 -2.304688 1.921875 -2.625 2.234375 -2.90625 C 2.554688 -3.1875 2.867188 -3.445312 3.171875 -3.6875 C 3.484375 -3.9375 3.765625 -4.179688 4.015625 -4.421875 C 4.265625 -4.660156 4.46875 -4.910156 4.625 -5.171875 C 4.78125 -5.441406 4.859375 -5.742188 4.859375 -6.078125 C 4.859375 -6.535156 4.722656 -6.890625 4.453125 -7.140625 C 4.191406 -7.390625 3.828125 -7.515625 3.359375 -7.515625 C 2.898438 -7.515625 2.523438 -7.390625 2.234375 -7.140625 C 1.953125 -6.898438 1.785156 -6.5625 1.734375 -6.125 L 0.65625 -6.21875 C 0.726562 -6.875 1.003906 -7.394531 1.484375 -7.78125 C 1.972656 -8.175781 2.597656 -8.375 3.359375 -8.375 C 4.179688 -8.375 4.816406 -8.175781 5.265625 -7.78125 C 5.710938 -7.394531 5.9375 -6.84375 5.9375 -6.125 C 5.9375 -5.800781 5.863281 -5.476562 5.71875 -5.15625 C 5.570312 -4.84375 5.351562 -4.523438 5.0625 -4.203125 C 4.78125 -3.890625 4.226562 -3.40625 3.40625 -2.75 C 2.957031 -2.375 2.597656 -2.039062 2.328125 -1.75 C 2.066406 -1.457031 1.878906 -1.171875 1.765625 -0.890625 L 6.078125 -0.890625 L 6.078125 0 Z M 0.609375 0 "/>
</g>
<g id="glyph-0-19">
<path d="M 6.140625 -2.28125 C 6.140625 -1.519531 5.894531 -0.925781 5.40625 -0.5 C 4.925781 -0.0820312 4.238281 0.125 3.34375 0.125 C 2.507812 0.125 1.84375 -0.0625 1.34375 -0.4375 C 0.84375 -0.820312 0.546875 -1.382812 0.453125 -2.125 L 1.546875 -2.21875 C 1.691406 -1.238281 2.289062 -0.75 3.34375 -0.75 C 3.875 -0.75 4.289062 -0.878906 4.59375 -1.140625 C 4.894531 -1.410156 5.046875 -1.800781 5.046875 -2.3125 C 5.046875 -2.757812 4.875 -3.109375 4.53125 -3.359375 C 4.1875 -3.617188 3.6875 -3.75 3.03125 -3.75 L 2.4375 -3.75 L 2.4375 -4.65625 L 3.015625 -4.65625 C 3.585938 -4.65625 4.03125 -4.78125 4.34375 -5.03125 C 4.664062 -5.289062 4.828125 -5.640625 4.828125 -6.078125 C 4.828125 -6.523438 4.695312 -6.875 4.4375 -7.125 C 4.1875 -7.382812 3.800781 -7.515625 3.28125 -7.515625 C 2.820312 -7.515625 2.445312 -7.394531 2.15625 -7.15625 C 1.875 -6.914062 1.707031 -6.578125 1.65625 -6.140625 L 0.59375 -6.234375 C 0.675781 -6.910156 0.957031 -7.4375 1.4375 -7.8125 C 1.914062 -8.1875 2.535156 -8.375 3.296875 -8.375 C 4.128906 -8.375 4.773438 -8.179688 5.234375 -7.796875 C 5.691406 -7.410156 5.921875 -6.875 5.921875 -6.1875 C 5.921875 -5.664062 5.769531 -5.238281 5.46875 -4.90625 C 5.175781 -4.570312 4.75 -4.347656 4.1875 -4.234375 L 4.1875 -4.21875 C 4.800781 -4.144531 5.28125 -3.9375 5.625 -3.59375 C 5.96875 -3.25 6.140625 -2.8125 6.140625 -2.28125 Z M 6.140625 -2.28125 "/>
</g>
<g id="glyph-0-20">
<path d="M 5.15625 -1.875 L 5.15625 0 L 4.171875 0 L 4.171875 -1.875 L 0.28125 -1.875 L 0.28125 -2.6875 L 4.0625 -8.25 L 5.15625 -8.25 L 5.15625 -2.703125 L 6.328125 -2.703125 L 6.328125 -1.875 Z M 4.171875 -7.0625 C 4.160156 -7.039062 4.101562 -6.9375 4 -6.75 C 3.894531 -6.570312 3.820312 -6.445312 3.78125 -6.375 L 1.65625 -3.25 L 1.34375 -2.8125 L 1.25 -2.703125 L 4.171875 -2.703125 Z M 4.171875 -7.0625 "/>
</g>
<g id="glyph-1-0">
<path d="M -8.25 -1.203125 L -8.25 -7.796875 L 0 -7.796875 L 0 -1.203125 Z M -7.8125 -1.640625 L -0.453125 -1.640625 L -0.453125 -7.34375 L -7.8125 -7.34375 Z M -7.8125 -1.640625 "/>
</g>
<g id="glyph-1-1">
<path d="M 0 -6.34375 L -7.03125 -1.921875 L -6.46875 -1.953125 L -5.484375 -1.984375 L 0 -1.984375 L 0 -0.984375 L -8.25 -0.984375 L -8.25 -2.28125 L -1.171875 -6.75 C -1.941406 -6.707031 -2.5 -6.6875 -2.84375 -6.6875 L -8.25 -6.6875 L -8.25 -7.6875 L 0 -7.6875 Z M 0 -6.34375 "/>
</g>
<g id="glyph-1-2">
<path d="M -6.34375 -1.84375 L -2.328125 -1.84375 C -1.898438 -1.84375 -1.570312 -1.882812 -1.34375 -1.96875 C -1.113281 -2.050781 -0.945312 -2.179688 -0.84375 -2.359375 C -0.75 -2.535156 -0.703125 -2.796875 -0.703125 -3.140625 C -0.703125 -3.648438 -0.875 -4.050781 -1.21875 -4.34375 C -1.5625 -4.632812 -2.046875 -4.78125 -2.671875 -4.78125 L -6.34375 -4.78125 L -6.34375 -5.84375 L -1.359375 -5.84375 C -0.617188 -5.84375 -0.164062 -5.851562 0 -5.875 L 0 -4.875 C -0.0195312 -4.875 -0.0703125 -4.867188 -0.15625 -4.859375 C -0.238281 -4.859375 -0.335938 -4.851562 -0.453125 -4.84375 C -0.566406 -4.84375 -0.773438 -4.835938 -1.078125 -4.828125 L -1.078125 -4.8125 C -0.640625 -4.570312 -0.328125 -4.289062 -0.140625 -3.96875 C 0.0351562 -3.65625 0.125 -3.265625 0.125 -2.796875 C 0.125 -2.097656 -0.046875 -1.585938 -0.390625 -1.265625 C -0.742188 -0.941406 -1.316406 -0.78125 -2.109375 -0.78125 L -6.34375 -0.78125 Z M -6.34375 -1.84375 "/>
</g>
<g id="glyph-1-3">
<path d="M 0 -4.5 L -4.015625 -4.5 C -4.628906 -4.5 -5.050781 -4.414062 -5.28125 -4.25 C -5.519531 -4.082031 -5.640625 -3.78125 -5.640625 -3.34375 C -5.640625 -2.894531 -5.46875 -2.535156 -5.125 -2.265625 C -4.78125 -2.003906 -4.296875 -1.875 -3.671875 -1.875 L 0 -1.875 L 0 -0.828125 L -4.984375 -0.828125 C -5.722656 -0.828125 -6.175781 -0.816406 -6.34375 -0.796875 L -6.34375 -1.796875 C -6.320312 -1.796875 -6.265625 -1.796875 -6.171875 -1.796875 C -6.085938 -1.804688 -5.988281 -1.8125 -5.875 -1.8125 C -5.769531 -1.820312 -5.5625 -1.832031 -5.25 -1.84375 L -5.25 -1.859375 C -5.707031 -2.085938 -6.019531 -2.347656 -6.1875 -2.640625 C -6.363281 -2.929688 -6.453125 -3.285156 -6.453125 -3.703125 C -6.453125 -4.191406 -6.359375 -4.570312 -6.171875 -4.84375 C -5.984375 -5.125 -5.675781 -5.320312 -5.25 -5.4375 L -5.25 -5.453125 C -5.675781 -5.671875 -5.984375 -5.929688 -6.171875 -6.234375 C -6.359375 -6.546875 -6.453125 -6.925781 -6.453125 -7.375 C -6.453125 -8.007812 -6.28125 -8.472656 -5.9375 -8.765625 C -5.59375 -9.054688 -5.019531 -9.203125 -4.21875 -9.203125 L 0 -9.203125 L 0 -8.15625 L -4.015625 -8.15625 C -4.628906 -8.15625 -5.050781 -8.070312 -5.28125 -7.90625 C -5.519531 -7.738281 -5.640625 -7.4375 -5.640625 -7 C -5.640625 -6.539062 -5.46875 -6.179688 -5.125 -5.921875 C -4.789062 -5.671875 -4.304688 -5.546875 -3.671875 -5.546875 L 0 -5.546875 Z M 0 -4.5 "/>
</g>
<g id="glyph-1-4">
<path d="M -3.203125 -6.171875 C -0.984375 -6.171875 0.125 -5.394531 0.125 -3.84375 C 0.125 -3.363281 0.0351562 -2.960938 -0.140625 -2.640625 C -0.316406 -2.316406 -0.597656 -2.054688 -0.984375 -1.859375 C -0.859375 -1.859375 -0.671875 -1.847656 -0.421875 -1.828125 C -0.179688 -1.816406 -0.0390625 -1.804688 0 -1.796875 L 0 -0.78125 C -0.207031 -0.800781 -0.644531 -0.8125 -1.3125 -0.8125 L -8.703125 -0.8125 L -8.703125 -1.859375 L -6.21875 -1.859375 C -5.96875 -1.859375 -5.671875 -1.851562 -5.328125 -1.84375 L -5.328125 -1.859375 C -5.734375 -2.054688 -6.019531 -2.316406 -6.1875 -2.640625 C -6.363281 -2.960938 -6.453125 -3.363281 -6.453125 -3.84375 C -6.453125 -4.644531 -6.179688 -5.234375 -5.640625 -5.609375 C -5.109375 -5.984375 -4.296875 -6.171875 -3.203125 -6.171875 Z M -3.171875 -5.0625 C -4.054688 -5.0625 -4.6875 -4.941406 -5.0625 -4.703125 C -5.445312 -4.472656 -5.640625 -4.09375 -5.640625 -3.5625 C -5.640625 -2.96875 -5.4375 -2.535156 -5.03125 -2.265625 C -4.625 -1.992188 -3.976562 -1.859375 -3.09375 -1.859375 C -2.269531 -1.859375 -1.65625 -1.988281 -1.25 -2.25 C -0.851562 -2.519531 -0.65625 -2.957031 -0.65625 -3.5625 C -0.65625 -4.09375 -0.851562 -4.472656 -1.25 -4.703125 C -1.644531 -4.941406 -2.285156 -5.0625 -3.171875 -5.0625 Z M -3.171875 -5.0625 "/>
</g>
<g id="glyph-1-5">
<path d="M -2.953125 -1.625 C -2.222656 -1.625 -1.660156 -1.769531 -1.265625 -2.0625 C -0.867188 -2.363281 -0.671875 -2.804688 -0.671875 -3.390625 C -0.671875 -3.847656 -0.757812 -4.210938 -0.9375 -4.484375 C -1.125 -4.765625 -1.359375 -4.953125 -1.640625 -5.046875 L -1.390625 -5.96875 C -0.378906 -5.59375 0.125 -4.734375 0.125 -3.390625 C 0.125 -2.453125 -0.15625 -1.738281 -0.71875 -1.25 C -1.28125 -0.757812 -2.113281 -0.515625 -3.21875 -0.515625 C -4.257812 -0.515625 -5.054688 -0.757812 -5.609375 -1.25 C -6.171875 -1.738281 -6.453125 -2.4375 -6.453125 -3.34375 C -6.453125 -5.207031 -5.332031 -6.140625 -3.09375 -6.140625 L -2.953125 -6.140625 Z M -3.75 -5.046875 C -4.425781 -4.992188 -4.914062 -4.828125 -5.21875 -4.546875 C -5.519531 -4.265625 -5.671875 -3.859375 -5.671875 -3.328125 C -5.671875 -2.816406 -5.5 -2.410156 -5.15625 -2.109375 C -4.820312 -1.816406 -4.351562 -1.65625 -3.75 -1.625 Z M -3.75 -5.046875 "/>
</g>
<g id="glyph-1-6">
<path d="M 0 -0.828125 L -4.859375 -0.828125 C -5.304688 -0.828125 -5.800781 -0.816406 -6.34375 -0.796875 L -6.34375 -1.796875 C -5.625 -1.828125 -5.191406 -1.84375 -5.046875 -1.84375 L -5.046875 -1.859375 C -5.585938 -2.023438 -5.957031 -2.21875 -6.15625 -2.4375 C -6.351562 -2.65625 -6.453125 -2.96875 -6.453125 -3.375 C -6.453125 -3.507812 -6.4375 -3.648438 -6.40625 -3.796875 L -5.4375 -3.796875 C -5.46875 -3.660156 -5.484375 -3.472656 -5.484375 -3.234375 C -5.484375 -2.796875 -5.296875 -2.460938 -4.921875 -2.234375 C -4.546875 -2.003906 -4.007812 -1.890625 -3.3125 -1.890625 L 0 -1.890625 Z M 0 -0.828125 "/>
</g>
<g id="glyph-1-7">
</g>
<g id="glyph-1-8">
<path d="M -3.171875 -6.171875 C -2.066406 -6.171875 -1.238281 -5.925781 -0.6875 -5.4375 C -0.144531 -4.945312 0.125 -4.238281 0.125 -3.3125 C 0.125 -2.382812 -0.15625 -1.679688 -0.71875 -1.203125 C -1.289062 -0.734375 -2.109375 -0.5 -3.171875 -0.5 C -5.359375 -0.5 -6.453125 -1.445312 -6.453125 -3.34375 C -6.453125 -4.3125 -6.1875 -5.023438 -5.65625 -5.484375 C -5.125 -5.941406 -4.296875 -6.171875 -3.171875 -6.171875 Z M -3.171875 -5.0625 C -4.046875 -5.0625 -4.679688 -4.929688 -5.078125 -4.671875 C -5.472656 -4.410156 -5.671875 -3.972656 -5.671875 -3.359375 C -5.671875 -2.742188 -5.46875 -2.296875 -5.0625 -2.015625 C -4.664062 -1.742188 -4.035156 -1.609375 -3.171875 -1.609375 C -2.335938 -1.609375 -1.707031 -1.742188 -1.28125 -2.015625 C -0.863281 -2.285156 -0.65625 -2.710938 -0.65625 -3.296875 C -0.65625 -3.929688 -0.859375 -4.382812 -1.265625 -4.65625 C -1.671875 -4.925781 -2.304688 -5.0625 -3.171875 -5.0625 Z M -3.171875 -5.0625 "/>
</g>
<g id="glyph-1-9">
<path d="M -5.578125 -2.109375 L 0 -2.109375 L 0 -1.0625 L -5.578125 -1.0625 L -5.578125 -0.171875 L -6.34375 -0.171875 L -6.34375 -1.0625 L -7.0625 -1.0625 C -7.632812 -1.0625 -8.046875 -1.1875 -8.296875 -1.4375 C -8.554688 -1.695312 -8.6875 -2.085938 -8.6875 -2.609375 C -8.6875 -2.898438 -8.660156 -3.148438 -8.609375 -3.359375 L -7.8125 -3.359375 C -7.84375 -3.179688 -7.859375 -3.023438 -7.859375 -2.890625 C -7.859375 -2.617188 -7.789062 -2.421875 -7.65625 -2.296875 C -7.519531 -2.171875 -7.269531 -2.109375 -6.90625 -2.109375 L -6.34375 -2.109375 L -6.34375 -3.359375 L -5.578125 -3.359375 Z M -5.578125 -2.109375 "/>
</g>
<g id="glyph-1-10">
<path d="M -3.203125 -6.171875 C -0.984375 -6.171875 0.125 -5.394531 0.125 -3.84375 C 0.125 -2.863281 -0.242188 -2.207031 -0.984375 -1.875 L -0.984375 -1.84375 C -0.953125 -1.851562 -0.617188 -1.859375 0.015625 -1.859375 L 2.484375 -1.859375 L 2.484375 -0.8125 L -5.046875 -0.8125 C -5.703125 -0.8125 -6.132812 -0.800781 -6.34375 -0.78125 L -6.34375 -1.796875 C -6.320312 -1.796875 -6.265625 -1.800781 -6.171875 -1.8125 C -6.078125 -1.820312 -5.929688 -1.832031 -5.734375 -1.84375 C -5.535156 -1.851562 -5.398438 -1.859375 -5.328125 -1.859375 L -5.328125 -1.875 C -5.710938 -2.0625 -5.992188 -2.304688 -6.171875 -2.609375 C -6.359375 -2.921875 -6.453125 -3.332031 -6.453125 -3.84375 C -6.453125 -4.625 -6.1875 -5.207031 -5.65625 -5.59375 C -5.132812 -5.976562 -4.316406 -6.171875 -3.203125 -6.171875 Z M -3.171875 -5.0625 C -4.054688 -5.0625 -4.6875 -4.941406 -5.0625 -4.703125 C -5.445312 -4.460938 -5.640625 -4.082031 -5.640625 -3.5625 C -5.640625 -3.144531 -5.550781 -2.816406 -5.375 -2.578125 C -5.195312 -2.347656 -4.921875 -2.171875 -4.546875 -2.046875 C -4.171875 -1.921875 -3.6875 -1.859375 -3.09375 -1.859375 C -2.257812 -1.859375 -1.644531 -1.988281 -1.25 -2.25 C -0.851562 -2.519531 -0.65625 -2.957031 -0.65625 -3.5625 C -0.65625 -4.082031 -0.847656 -4.460938 -1.234375 -4.703125 C -1.617188 -4.941406 -2.265625 -5.0625 -3.171875 -5.0625 Z M -3.171875 -5.0625 "/>
</g>
<g id="glyph-1-11">
<path d="M 0.125 -2.421875 C 0.125 -1.785156 -0.0390625 -1.304688 -0.375 -0.984375 C -0.71875 -0.671875 -1.179688 -0.515625 -1.765625 -0.515625 C -2.421875 -0.515625 -2.925781 -0.726562 -3.28125 -1.15625 C -3.632812 -1.59375 -3.820312 -2.289062 -3.84375 -3.25 L -3.875 -4.671875 L -4.21875 -4.671875 C -4.726562 -4.671875 -5.09375 -4.5625 -5.3125 -4.34375 C -5.539062 -4.125 -5.65625 -3.78125 -5.65625 -3.3125 C -5.65625 -2.84375 -5.570312 -2.5 -5.40625 -2.28125 C -5.25 -2.0625 -4.992188 -1.929688 -4.640625 -1.890625 L -4.75 -0.796875 C -5.882812 -0.972656 -6.453125 -1.816406 -6.453125 -3.328125 C -6.453125 -4.128906 -6.269531 -4.726562 -5.90625 -5.125 C -5.539062 -5.53125 -5.015625 -5.734375 -4.328125 -5.734375 L -1.59375 -5.734375 C -1.28125 -5.734375 -1.046875 -5.773438 -0.890625 -5.859375 C -0.734375 -5.941406 -0.65625 -6.097656 -0.65625 -6.328125 C -0.65625 -6.429688 -0.664062 -6.546875 -0.6875 -6.671875 L -0.03125 -6.671875 C 0.0273438 -6.410156 0.0625 -6.140625 0.0625 -5.859375 C 0.0625 -5.472656 -0.0390625 -5.1875 -0.25 -5 C -0.457031 -4.820312 -0.78125 -4.722656 -1.21875 -4.703125 L -1.21875 -4.671875 C -0.726562 -4.398438 -0.378906 -4.082031 -0.171875 -3.71875 C 0.0234375 -3.363281 0.125 -2.929688 0.125 -2.421875 Z M -0.671875 -2.671875 C -0.671875 -3.054688 -0.757812 -3.398438 -0.9375 -3.703125 C -1.113281 -4.003906 -1.351562 -4.238281 -1.65625 -4.40625 C -1.96875 -4.582031 -2.285156 -4.671875 -2.609375 -4.671875 L -3.125 -4.671875 L -3.109375 -3.515625 C -3.097656 -3.015625 -3.046875 -2.632812 -2.953125 -2.375 C -2.859375 -2.125 -2.710938 -1.929688 -2.515625 -1.796875 C -2.328125 -1.660156 -2.070312 -1.59375 -1.75 -1.59375 C -1.40625 -1.59375 -1.140625 -1.6875 -0.953125 -1.875 C -0.765625 -2.0625 -0.671875 -2.328125 -0.671875 -2.671875 Z M -0.671875 -2.671875 "/>
</g>
<g id="glyph-1-12">
<path d="M 0 -4.78125 L -2.890625 -2.640625 L -2.25 -1.859375 L 0 -1.859375 L 0 -0.8125 L -8.703125 -0.8125 L -8.703125 -1.859375 L -3.265625 -1.859375 L -6.34375 -4.640625 L -6.34375 -5.890625 L -3.609375 -3.3125 L 0 -6.015625 Z M 0 -4.78125 "/>
</g>
<g id="glyph-1-13">
<path d="M -1.75 -5.5625 C -1.15625 -5.5625 -0.691406 -5.335938 -0.359375 -4.890625 C -0.0351562 -4.441406 0.125 -3.8125 0.125 -3 C 0.125 -2.207031 -0.00390625 -1.597656 -0.265625 -1.171875 C -0.523438 -0.742188 -0.929688 -0.460938 -1.484375 -0.328125 L -1.671875 -1.265625 C -1.328125 -1.359375 -1.078125 -1.546875 -0.921875 -1.828125 C -0.765625 -2.109375 -0.6875 -2.5 -0.6875 -3 C -0.6875 -3.53125 -0.765625 -3.921875 -0.921875 -4.171875 C -1.085938 -4.421875 -1.335938 -4.546875 -1.671875 -4.546875 C -1.921875 -4.546875 -2.125 -4.457031 -2.28125 -4.28125 C -2.4375 -4.113281 -2.566406 -3.835938 -2.671875 -3.453125 L -2.859375 -2.703125 C -3.015625 -2.085938 -3.164062 -1.648438 -3.3125 -1.390625 C -3.46875 -1.140625 -3.65625 -0.941406 -3.875 -0.796875 C -4.09375 -0.660156 -4.359375 -0.59375 -4.671875 -0.59375 C -5.242188 -0.59375 -5.679688 -0.796875 -5.984375 -1.203125 C -6.285156 -1.617188 -6.4375 -2.21875 -6.4375 -3 C -6.4375 -3.707031 -6.3125 -4.265625 -6.0625 -4.671875 C -5.820312 -5.085938 -5.429688 -5.347656 -4.890625 -5.453125 L -4.765625 -4.5 C -5.046875 -4.445312 -5.257812 -4.289062 -5.40625 -4.03125 C -5.5625 -3.78125 -5.640625 -3.4375 -5.640625 -3 C -5.640625 -2.53125 -5.566406 -2.179688 -5.421875 -1.953125 C -5.273438 -1.722656 -5.054688 -1.609375 -4.765625 -1.609375 C -4.585938 -1.609375 -4.441406 -1.65625 -4.328125 -1.75 C -4.210938 -1.84375 -4.113281 -1.976562 -4.03125 -2.15625 C -3.945312 -2.34375 -3.832031 -2.734375 -3.6875 -3.328125 C -3.539062 -3.890625 -3.410156 -4.289062 -3.296875 -4.53125 C -3.179688 -4.78125 -3.050781 -4.972656 -2.90625 -5.109375 C -2.757812 -5.253906 -2.585938 -5.363281 -2.390625 -5.4375 C -2.203125 -5.519531 -1.988281 -5.5625 -1.75 -5.5625 Z M -1.75 -5.5625 "/>
</g>
<g id="glyph-1-14">
<path d="M -4.125 -6.203125 C -2.75 -6.203125 -1.695312 -5.957031 -0.96875 -5.46875 C -0.238281 -4.988281 0.125 -4.273438 0.125 -3.328125 C 0.125 -2.378906 -0.234375 -1.664062 -0.953125 -1.1875 C -1.679688 -0.707031 -2.738281 -0.46875 -4.125 -0.46875 C -5.550781 -0.46875 -6.613281 -0.695312 -7.3125 -1.15625 C -8.019531 -1.625 -8.375 -2.359375 -8.375 -3.359375 C -8.375 -4.328125 -8.015625 -5.039062 -7.296875 -5.5 C -6.585938 -5.96875 -5.53125 -6.203125 -4.125 -6.203125 Z M -4.125 -5.140625 C -5.320312 -5.140625 -6.1875 -5 -6.71875 -4.71875 C -7.257812 -4.445312 -7.53125 -3.992188 -7.53125 -3.359375 C -7.53125 -2.710938 -7.265625 -2.242188 -6.734375 -1.953125 C -6.203125 -1.671875 -5.332031 -1.53125 -4.125 -1.53125 C -2.957031 -1.53125 -2.101562 -1.671875 -1.5625 -1.953125 C -1.019531 -2.242188 -0.75 -2.703125 -0.75 -3.328125 C -0.75 -3.953125 -1.023438 -4.410156 -1.578125 -4.703125 C -2.128906 -4.992188 -2.976562 -5.140625 -4.125 -5.140625 Z M -4.125 -5.140625 "/>
</g>
<g id="glyph-1-15">
<path d="M -2.6875 -6.171875 C -1.820312 -6.171875 -1.132812 -5.910156 -0.625 -5.390625 C -0.125 -4.878906 0.125 -4.160156 0.125 -3.234375 C 0.125 -2.472656 -0.0390625 -1.851562 -0.375 -1.375 C -0.71875 -0.90625 -1.207031 -0.609375 -1.84375 -0.484375 L -1.96875 -1.546875 C -1.15625 -1.765625 -0.75 -2.335938 -0.75 -3.265625 C -0.75 -3.828125 -0.914062 -4.269531 -1.25 -4.59375 C -1.59375 -4.914062 -2.066406 -5.078125 -2.671875 -5.078125 C -3.191406 -5.078125 -3.609375 -4.914062 -3.921875 -4.59375 C -4.242188 -4.269531 -4.40625 -3.832031 -4.40625 -3.28125 C -4.40625 -3 -4.359375 -2.734375 -4.265625 -2.484375 C -4.179688 -2.242188 -4.03125 -2 -3.8125 -1.75 L -3.8125 -0.71875 L -8.25 -1 L -8.25 -5.6875 L -7.359375 -5.6875 L -7.359375 -1.953125 L -4.734375 -1.796875 C -5.085938 -2.253906 -5.265625 -2.820312 -5.265625 -3.5 C -5.265625 -4.3125 -5.023438 -4.957031 -4.546875 -5.4375 C -4.078125 -5.925781 -3.457031 -6.171875 -2.6875 -6.171875 Z M -2.6875 -6.171875 "/>
</g>
<g id="glyph-1-16">
<path d="M 0 -0.921875 L -0.890625 -0.921875 L -0.890625 -3.015625 L -7.25 -3.015625 L -5.921875 -1.15625 L -6.921875 -1.15625 L -8.25 -3.109375 L -8.25 -4.078125 L -0.890625 -4.078125 L -0.890625 -6.09375 L 0 -6.09375 Z M 0 -0.921875 "/>
</g>
</g>
</defs>
<rect x="-50.4" y="-50.4" width="604.8" height="604.8" fill="rgb(100%, 100%, 100%)" fill-opacity="1"/>
<g fill="rgb(0%, 0%, 0%)" fill-opacity="1">
<use xlink:href="#glyph-0-1" x="208.398438" y="485.144531"/>
<use xlink:href="#glyph-0-2" x="215.398438" y="485.144531"/>
<use xlink:href="#glyph-0-3" x="222.398438" y="485.144531"/>
<use xlink:href="#glyph-0-4" x="225.398438" y="485.144531"/>
<use xlink:href="#glyph-0-5" x="231.398438" y="485.144531"/>
<use xlink:href="#glyph-0-6" x="234.398438" y="485.144531"/>
<use xlink:href="#glyph-0-7" x="242.398438" y="485.144531"/>
<use xlink:href="#glyph-0-8" x="249.398438" y="485.144531"/>
<use xlink:href="#glyph-0-4" x="256.398438" y="485.144531"/>
<use xlink:href="#glyph-0-5" x="262.398438" y="485.144531"/>
<use xlink:href="#glyph-0-3" x="265.398438" y="485.144531"/>
<use xlink:href="#glyph-0-7" x="268.398438" y="485.144531"/>
<use xlink:href="#glyph-0-9" x="275.398438" y="485.144531"/>
<use xlink:href="#glyph-0-10" x="282.398438" y="485.144531"/>
<use xlink:href="#glyph-0-11" x="289.398438" y="485.144531"/>
<use xlink:href="#glyph-0-12" x="292.398438" y="485.144531"/>
<use xlink:href="#glyph-0-5" x="299.398438" y="485.144531"/>
<use xlink:href="#glyph-0-13" x="302.398438" y="485.144531"/>
<use xlink:href="#glyph-0-1" x="306.398438" y="485.144531"/>
<use xlink:href="#glyph-0-14" x="313.398438" y="485.144531"/>
<use xlink:href="#glyph-0-15" x="320.398438" y="485.144531"/>
</g>
<g fill="rgb(0%, 0%, 0%)" fill-opacity="1">
<use xlink:href="#glyph-1-1" x="12.824219" y="291.300781"/>
<use xlink:href="#glyph-1-2" x="12.824219" y="282.300781"/>
<use xlink:href="#glyph-1-3" x="12.824219" y="275.300781"/>
<use xlink:href="#glyph-1-4" x="12.824219" y="265.300781"/>
<use xlink:href="#glyph-1-5" x="12.824219" y="258.300781"/>
<use xlink:href="#glyph-1-6" x="12.824219" y="251.300781"/>
<use xlink:href="#glyph-1-7" x="12.824219" y="247.300781"/>
<use xlink:href="#glyph-1-8" x="12.824219" y="244.300781"/>
<use xlink:href="#glyph-1-9" x="12.824219" y="237.300781"/>
<use xlink:href="#glyph-1-7" x="12.824219" y="234.300781"/>
<use xlink:href="#glyph-1-10" x="12.824219" y="231.300781"/>
<use xlink:href="#glyph-1-5" x="12.824219" y="224.300781"/>
<use xlink:href="#glyph-1-11" x="12.824219" y="217.300781"/>
<use xlink:href="#glyph-1-12" x="12.824219" y="210.300781"/>
<use xlink:href="#glyph-1-13" x="12.824219" y="204.300781"/>
</g>
<path fill="none" stroke-width="0.75" stroke-linecap="round" stroke-linejoin="round" stroke="rgb(0%, 0%, 0%)" stroke-opacity="1" stroke-miterlimit="10" d="M 74.398438 430.558594 L 423.492188 430.558594 "/>
<path fill="none" stroke-width="0.75" stroke-linecap="round" stroke-linejoin="round" stroke="rgb(0%, 0%, 0%)" stroke-opacity="1" stroke-miterlimit="10" d="M 74.398438 430.558594 L 74.398438 437.761719 "/>
<path fill="none" stroke-width="0.75" stroke-linecap="round" stroke-linejoin="round" stroke="rgb(0%, 0%, 0%)" stroke-opacity="1" stroke-miterlimit="10" d="M 161.671875 430.558594 L 161.671875 437.761719 "/>
<path fill="none" stroke-width="0.75" stroke-linecap="round" stroke-linejoin="round" stroke="rgb(0%, 0%, 0%)" stroke-opacity="1" stroke-miterlimit="10" d="M 248.945312 430.558594 L 248.945312 437.761719 "/>
<path fill="none" stroke-width="0.75" stroke-linecap="round" stroke-linejoin="round" stroke="rgb(0%, 0%, 0%)" stroke-opacity="1" stroke-miterlimit="10" d="M 336.21875 430.558594 L 336.21875 437.761719 "/>
<path fill="none" stroke-width="0.75" stroke-linecap="round" stroke-linejoin="round" stroke="rgb(0%, 0%, 0%)" stroke-opacity="1" stroke-miterlimit="10" d="M 423.492188 430.558594 L 423.492188 437.761719 "/>
<g fill="rgb(0%, 0%, 0%)" fill-opacity="1">
<use xlink:href="#glyph-0-16" x="70.898438" y="456.34375"/>
</g>
<g fill="rgb(0%, 0%, 0%)" fill-opacity="1">
<use xlink:href="#glyph-0-17" x="147.671875" y="456.34375"/>
<use xlink:href="#glyph-0-16" x="154.671875" y="456.34375"/>
<use xlink:href="#glyph-0-16" x="161.671875" y="456.34375"/>
<use xlink:href="#glyph-0-16" x="168.671875" y="456.34375"/>
</g>
<g fill="rgb(0%, 0%, 0%)" fill-opacity="1">
<use xlink:href="#glyph-0-18" x="234.945312" y="456.34375"/>
<use xlink:href="#glyph-0-16" x="241.945312" y="456.34375"/>
<use xlink:href="#glyph-0-16" x="248.945312" y="456.34375"/>
<use xlink:href="#glyph-0-16" x="255.945312" y="456.34375"/>
</g>
<g fill="rgb(0%, 0%, 0%)" fill-opacity="1">
<use xlink:href="#glyph-0-19" x="322.21875" y="456.34375"/>
<use xlink:href="#glyph-0-16" x="329.21875" y="456.34375"/>
<use xlink:href="#glyph-0-16" x="336.21875" y="456.34375"/>
<use xlink:href="#glyph-0-16" x="343.21875" y="456.34375"/>
</g>
<g fill="rgb(0%, 0%, 0%)" fill-opacity="1">
<use xlink:href="#glyph-0-20" x="409.492188" y="456.34375"/>
<use xlink:href="#glyph-0-16" x="416.492188" y="456.34375"/>
<use xlink:href="#glyph-0-16" x="423.492188" y="456.34375"/>
<use xlink:href="#glyph-0-16" x="430.492188" y="456.34375"/>
</g>
<path fill="none" stroke-width="0.75" stroke-linecap="round" stroke-linejoin="round" stroke="rgb(0%, 0%, 0%)" stroke-opacity="1" stroke-miterlimit="10" d="M 59.039062 416.800781 L 59.039062 108.207031 "/>
<path fill="none" stroke-width="0.75" stroke-linecap="round" stroke-linejoin="round" stroke="rgb(0%, 0%, 0%)" stroke-opacity="1" stroke-miterlimit="10" d="M 59.039062 416.800781 L 51.839844 416.800781 "/>
<path fill="none" stroke-width="0.75" stroke-linecap="round" stroke-linejoin="round" stroke="rgb(0%, 0%, 0%)" stroke-opacity="1" stroke-miterlimit="10" d="M 59.039062 313.933594 L 51.839844 313.933594 "/>
<path fill="none" stroke-width="0.75" stroke-linecap="round" stroke-linejoin="round" stroke="rgb(0%, 0%, 0%)" stroke-opacity="1" stroke-miterlimit="10" d="M 59.039062 211.070312 L 51.839844 211.070312 "/>
<path fill="none" stroke-width="0.75" stroke-linecap="round" stroke-linejoin="round" stroke="rgb(0%, 0%, 0%)" stroke-opacity="1" stroke-miterlimit="10" d="M 59.039062 108.207031 L 51.839844 108.207031 "/>
<g fill="rgb(0%, 0%, 0%)" fill-opacity="1">
<use xlink:href="#glyph-1-14" x="41.625" y="420.300781"/>
</g>
<g fill="rgb(0%, 0%, 0%)" fill-opacity="1">
<use xlink:href="#glyph-1-15" x="41.625" y="327.933594"/>
<use xlink:href="#glyph-1-14" x="41.625" y="320.933594"/>
<use xlink:href="#glyph-1-14" x="41.625" y="313.933594"/>
<use xlink:href="#glyph-1-14" x="41.625" y="306.933594"/>
</g>
<g fill="rgb(0%, 0%, 0%)" fill-opacity="1">
<use xlink:href="#glyph-1-16" x="41.625" y="228.570312"/>
<use xlink:href="#glyph-1-14" x="41.625" y="221.570312"/>
<use xlink:href="#glyph-1-14" x="41.625" y="214.570312"/>
<use xlink:href="#glyph-1-14" x="41.625" y="207.570312"/>
<use xlink:href="#glyph-1-14" x="41.625" y="200.570312"/>
</g>
<g fill="rgb(0%, 0%, 0%)" fill-opacity="1">
<use xlink:href="#glyph-1-16" x="41.625" y="125.707031"/>
<use xlink:href="#glyph-1-15" x="41.625" y="118.707031"/>
<use xlink:href="#glyph-1-14" x="41.625" y="111.707031"/>
<use xlink:href="#glyph-1-14" x="41.625" y="104.707031"/>
<use xlink:href="#glyph-1-14" x="41.625" y="97.707031"/>
</g>
<path fill-rule="nonzero" fill="rgb(82.745098%, 82.745098%, 82.745098%)" fill-opacity="1" stroke-width="0.75" stroke-linecap="round" stroke-linejoin="round" stroke="rgb(0%, 0%, 0%)" stroke-opacity="1" stroke-miterlimit="10" d="M 74.398438 416.800781 L 91.851562 416.800781 L 91.851562 401.433594 L 74.398438 401.433594 Z M 74.398438 416.800781 "/>
<path fill-rule="nonzero" fill="rgb(82.745098%, 82.745098%, 82.745098%)" fill-opacity="1" stroke-width="0.75" stroke-linecap="round" stroke-linejoin="round" stroke="rgb(0%, 0%, 0%)" stroke-opacity="1" stroke-miterlimit="10" d="M 91.855469 416.800781 L 109.308594 416.800781 L 109.308594 332.90625 L 91.855469 332.90625 Z M 91.855469 416.800781 "/>
<path fill-rule="nonzero" fill="rgb(82.745098%, 82.745098%, 82.745098%)" fill-opacity="1" stroke-width="0.75" stroke-linecap="round" stroke-linejoin="round" stroke="rgb(0%, 0%, 0%)" stroke-opacity="1" stroke-miterlimit="10" d="M 109.308594 416.800781 L 126.761719 416.800781 L 126.761719 218.003906 L 109.308594 218.003906 Z M 109.308594 416.800781 "/>
<path fill-rule="nonzero" fill="rgb(82.745098%, 82.745098%, 82.745098%)" fill-opacity="1" stroke-width="0.75" stroke-linecap="round" stroke-linejoin="round" stroke="rgb(0%, 0%, 0%)" stroke-opacity="1" stroke-miterlimit="10" d="M 126.761719 416.800781 L 144.214844 416.800781 L 144.214844 116.023438 L 126.761719 116.023438 Z M 126.761719 416.800781 "/>
<path fill-rule="nonzero" fill="rgb(82.745098%, 82.745098%, 82.745098%)" fill-opacity="1" stroke-width="0.75" stroke-linecap="round" stroke-linejoin="round" stroke="rgb(0%, 0%, 0%)" stroke-opacity="1" stroke-miterlimit="10" d="M 144.21875 416.800781 L 161.671875 416.800781 L 161.671875 72.800781 L 144.21875 72.800781 Z M 144.21875 416.800781 "/>
<path fill-rule="nonzero" fill="rgb(82.745098%, 82.745098%, 82.745098%)" fill-opacity="1" stroke-width="0.75" stroke-linecap="round" stroke-linejoin="round" stroke="rgb(0%, 0%, 0%)" stroke-opacity="1" stroke-miterlimit="10" d="M 161.671875 416.800781 L 179.125 416.800781 L 179.125 78.4375 L 161.671875 78.4375 Z M 161.671875 416.800781 "/>
<path fill-rule="nonzero" fill="rgb(82.745098%, 82.745098%, 82.745098%)" fill-opacity="1" stroke-width="0.75" stroke-linecap="round" stroke-linejoin="round" stroke="rgb(0%, 0%, 0%)" stroke-opacity="1" stroke-miterlimit="10" d="M 179.128906 416.800781 L 196.582031 416.800781 L 196.582031 151.617188 L 179.128906 151.617188 Z M 179.128906 416.800781 "/>
<path fill-rule="nonzero" fill="rgb(82.745098%, 82.745098%, 82.745098%)" fill-opacity="1" stroke-width="0.75" stroke-linecap="round" stroke-linejoin="round" stroke="rgb(0%, 0%, 0%)" stroke-opacity="1" stroke-miterlimit="10" d="M 196.582031 416.800781 L 214.035156 416.800781 L 214.035156 244.421875 L 196.582031 244.421875 Z M 196.582031 416.800781 "/>
<path fill-rule="nonzero" fill="rgb(82.745098%, 82.745098%, 82.745098%)" fill-opacity="1" stroke-width="0.75" stroke-linecap="round" stroke-linejoin="round" stroke="rgb(0%, 0%, 0%)" stroke-opacity="1" stroke-miterlimit="10" d="M 214.035156 416.800781 L 231.488281 416.800781 L 231.488281 313.050781 L 214.035156 313.050781 Z M 214.035156 416.800781 "/>
<path fill-rule="nonzero" fill="rgb(82.745098%, 82.745098%, 82.745098%)" fill-opacity="1" stroke-width="0.75" stroke-linecap="round" stroke-linejoin="round" stroke="rgb(0%, 0%, 0%)" stroke-opacity="1" stroke-miterlimit="10" d="M 231.492188 416.800781 L 248.945312 416.800781 L 248.945312 354.054688 L 231.492188 354.054688 Z M 231.492188 416.800781 "/>
<path fill-rule="nonzero" fill="rgb(82.745098%, 82.745098%, 82.745098%)" fill-opacity="1" stroke-width="0.75" stroke-linecap="round" stroke-linejoin="round" stroke="rgb(0%, 0%, 0%)" stroke-opacity="1" stroke-miterlimit="10" d="M 248.945312 416.800781 L 266.398438 416.800781 L 266.398438 380.488281 L 248.945312 380.488281 Z M 248.945312 416.800781 "/>
<path fill-rule="nonzero" fill="rgb(82.745098%, 82.745098%, 82.745098%)" fill-opacity="1" stroke-width="0.75" stroke-linecap="round" stroke-linejoin="round" stroke="rgb(0%, 0%, 0%)" stroke-opacity="1" stroke-miterlimit="10" d="M 266.398438 416.800781 L 283.851562 416.800781 L 283.851562 397.007812 L 266.398438 397.007812 Z M 266.398438 416.800781 "/>
<path fill-rule="nonzero" fill="rgb(82.745098%, 82.745098%, 82.745098%)" fill-opacity="1" stroke-width="0.75" stroke-linecap="round" stroke-linejoin="round" stroke="rgb(0%, 0%, 0%)" stroke-opacity="1" stroke-miterlimit="10" d="M 283.855469 416.800781 L 301.308594 416.800781 L 301.308594 405.898438 L 283.855469 405.898438 Z M 283.855469 416.800781 "/>
<path fill-rule="nonzero" fill="rgb(82.745098%, 82.745098%, 82.745098%)" fill-opacity="1" stroke-width="0.75" stroke-linecap="round" stroke-linejoin="round" stroke="rgb(0%, 0%, 0%)" stroke-opacity="1" stroke-miterlimit="10" d="M 301.308594 416.800781 L 318.761719 416.800781 L 318.761719 410.792969 L 301.308594 410.792969 Z M 301.308594 416.800781 "/>
<path fill-rule="nonzero" fill="rgb(82.745098%, 82.745098%, 82.745098%)" fill-opacity="1" stroke-width="0.75" stroke-linecap="round" stroke-linejoin="round" stroke="rgb(0%, 0%, 0%)" stroke-opacity="1" stroke-miterlimit="10" d="M 318.761719 416.800781 L 336.214844 416.800781 L 336.214844 414.023438 L 318.761719 414.023438 Z M 318.761719 416.800781 "/>
<path fill-rule="nonzero" fill="rgb(82.745098%, 82.745098%, 82.745098%)" fill-opacity="1" stroke-width="0.75" stroke-linecap="round" stroke-linejoin="round" stroke="rgb(0%, 0%, 0%)" stroke-opacity="1" stroke-miterlimit="10" d="M 336.21875 416.800781 L 353.671875 416.800781 L 353.671875 415.15625 L 336.21875 415.15625 Z M 336.21875 416.800781 "/>
<path fill-rule="nonzero" fill="rgb(82.745098%, 82.745098%, 82.745098%)" fill-opacity="1" stroke-width="0.75" stroke-linecap="round" stroke-linejoin="round" stroke="rgb(0%, 0%, 0%)" stroke-opacity="1" stroke-miterlimit="10" d="M 353.671875 416.800781 L 371.125 416.800781 L 371.125 416.039062 L 353.671875 416.039062 Z M 353.671875 416.800781 "/>
<path fill-rule="nonzero" fill="rgb(82.745098%, 82.745098%, 82.745098%)" fill-opacity="1" stroke-width="0.75" stroke-linecap="round" stroke-linejoin="round" stroke="rgb(0%, 0%, 0%)" stroke-opacity="1" stroke-miterlimit="10" d="M 371.128906 416.800781 L 388.582031 416.800781 L 388.582031 416.429688 L 371.128906 416.429688 Z M 371.128906 416.800781 "/>
<path fill-rule="nonzero" fill="rgb(82.745098%, 82.745098%, 82.745098%)" fill-opacity="1" stroke-width="0.75" stroke-linecap="round" stroke-linejoin="round" stroke="rgb(0%, 0%, 0%)" stroke-opacity="1" stroke-miterlimit="10" d="M 388.582031 416.800781 L 406.035156 416.800781 L 406.035156 416.574219 L 388.582031 416.574219 Z M 388.582031 416.800781 "/>
<path fill-rule="nonzero" fill="rgb(82.745098%, 82.745098%, 82.745098%)" fill-opacity="1" stroke-width="0.75" stroke-linecap="round" stroke-linejoin="round" stroke="rgb(0%, 0%, 0%)" stroke-opacity="1" stroke-miterlimit="10" d="M 406.035156 416.800781 L 423.488281 416.800781 L 423.488281 416.71875 L 406.035156 416.71875 Z M 406.035156 416.800781 "/>
<path fill-rule="nonzero" fill="rgb(82.745098%, 82.745098%, 82.745098%)" fill-opacity="1" stroke-width="0.75" stroke-linecap="round" stroke-linejoin="round" stroke="rgb(0%, 0%, 0%)" stroke-opacity="1" stroke-miterlimit="10" d="M 423.492188 416.800781 L 440.945312 416.800781 L 440.945312 416.78125 L 423.492188 416.78125 Z M 423.492188 416.800781 "/>
<path fill-rule="nonzero" fill="rgb(82.745098%, 82.745098%, 82.745098%)" fill-opacity="1" stroke-width="0.75" stroke-linecap="round" stroke-linejoin="round" stroke="rgb(0%, 0%, 0%)" stroke-opacity="1" stroke-miterlimit="10" d="M 440.945312 416.800781 L 458.398438 416.800781 L 458.398438 416.757812 L 440.945312 416.757812 Z M 440.945312 416.800781 "/>
</svg>
